<svg xmlns="http://www.w3.org/2000/svg" viewBox="0 0 40 40"><defs><style>.cls-1{opacity:0.32;}.cls-2{fill:#fff;}.cls-3{fill:#0dcb6b;}</style></defs><title>banner-icon</title><g id="Layer_2" data-name="Layer 2"><g id="Layer_1-2" data-name="Layer 1"><g class="cls-1"><path class="cls-2" d="M37.3,9.05V7.89H25.77V6.74a4,4,0,0,0-4-4H18.27a4,4,0,0,0-4,4V7.89H9.62a.57.57,0,0,0-.57.58v11a3,3,0,0,0,.19,1L3.14,22a.57.57,0,0,0,0,1.11l7.63,2v2.94H4.43v1.16h6.34v1.15H6.16v1.15h4.61v1.15H7.89v1.16h3.37l8.56,2.85a.56.56,0,0,0,.36,0l8.65-2.88a.58.58,0,0,0,.4-.55V25.13L35,23.64V32L33.9,34.16a.57.57,0,0,0,0,.51L35.05,37a.6.6,0,0,0,.52.32.57.57,0,0,0,.51-.32l1.16-2.31a.57.57,0,0,0,0-.51L36.14,32V23.34l.72-.19a.57.57,0,0,0,0-1.11l-6.1-1.58a3,3,0,0,0,.19-1V13.66h2.89V12.5H31V11.35h4.62V10.2H31V9.05ZM35.57,35.43l-.51-1,.51-1,.51,1ZM15.39,6.74a2.88,2.88,0,0,1,2.88-2.88h3.46a2.88,2.88,0,0,1,2.88,2.88V7.89H23.46V6.74A1.74,1.74,0,0,0,21.73,5H18.27a1.74,1.74,0,0,0-1.73,1.73V7.89H15.39Zm6.92,1.15H17.69V6.74a.58.58,0,0,1,.58-.58h3.46a.58.58,0,0,1,.58.58ZM10.2,9.05H29.8v2.3a1.72,1.72,0,0,1-1.73,1.73H22.31V11.35a.58.58,0,0,0-.58-.58H18.27a.58.58,0,0,0-.58.58v1.73H11.93a1.72,1.72,0,0,1-1.73-1.73ZM29.8,19.42a1.69,1.69,0,0,1-.35,1l0,0a2.37,2.37,0,0,1-.27.28h0a2.9,2.9,0,0,1-.29.19l-.05,0a1.72,1.72,0,0,1-.29.11l-.07,0a1.58,1.58,0,0,1-.38,0H11.93a1.58,1.58,0,0,1-.38,0l-.07,0a1.45,1.45,0,0,1-.29-.11l0,0a1.75,1.75,0,0,1-.29-.18h0a2.37,2.37,0,0,1-.27-.28l0,0a1.69,1.69,0,0,1-.35-1V13.64a2.82,2.82,0,0,0,1.73.59h.57V16a.58.58,0,0,0,.58.58h2.31A.57.57,0,0,0,16,16V14.23H24V16a.57.57,0,0,0,.57.58h2.31A.58.58,0,0,0,27.5,16V14.23h.57a2.82,2.82,0,0,0,1.73-.59ZM13.66,14.23h1.15v1.16H13.66Zm7.49-1.15h-2.3V11.93h2.3Zm4,1.15h1.15v1.16H25.19Zm2.88,18.62L20,35.54l-8.07-2.69V25.43l7.93,2.05.14,0,.14,0,7.93-2.05ZM20,26.32,5.58,22.59l4.33-1.11a3.08,3.08,0,0,0,.92.61l.2.06a3.18,3.18,0,0,0,.33.1,2.62,2.62,0,0,0,.57.06H28.07a2.62,2.62,0,0,0,.57-.06,3.18,3.18,0,0,0,.33-.1l.2-.06a3.08,3.08,0,0,0,.92-.61l4.33,1.11Z"/><path class="cls-2" d="M37.91,40H2.09A2.1,2.1,0,0,1,0,37.91V2.09A2.1,2.1,0,0,1,2.09,0H37.91A2.1,2.1,0,0,1,40,2.09V37.91A2.1,2.1,0,0,1,37.91,40ZM2.09,1A1.08,1.08,0,0,0,1,2.09V37.91A1.08,1.08,0,0,0,2.09,39H37.91A1.08,1.08,0,0,0,39,37.91V2.09A1.08,1.08,0,0,0,37.91,1Z"/></g><rect class="cls-3" x="27.5" y="18.85" width="1.15" height="1.15"/><rect class="cls-3" x="25.19" y="18.85" width="1.15" height="1.15"/><rect class="cls-3" x="22.88" y="18.85" width="1.15" height="1.15"/></g></g></svg>