<?xml version="1.0"?>
<svg xmlns="http://www.w3.org/2000/svg" xmlns:xlink="http://www.w3.org/1999/xlink" version="1.1" id="Capa_1" x="0px" y="0px" viewBox="0 0 512 512" style="enable-background:new 0 0 512 512;" xml:space="preserve" width="512px" height="512px" class=""><g><g>
	<g>
		<path d="M507.947,173.961L286.65,10.237c-17.974-13.299-42.004-13.549-60.214-0.771C213.546,3.399,199.162,0,183.997,0h-83.994    C44.861,0,0,44.861,0,100.003c0,23.105,7.88,44.403,21.089,61.354L4.053,173.961C1.504,175.847,0,178.83,0,182v280    c0,27.57,22.43,50,50,50h412c27.57,0,50-22.43,50-50V182C512,178.83,510.496,175.847,507.947,173.961z M274.756,26.315    l211.966,156.82l-158.249,158.25l-14.429-14.429c-32.006-32.005-84.082-32.005-116.088,0l-14.429,14.429L25.278,183.136    l9.728-7.197c17.493,14.995,40.204,24.067,64.997,24.067h56.206l39.282,39.282c1.913,1.913,4.471,2.929,7.073,2.929    c1.288,0,2.588-0.25,3.825-0.762c3.736-1.548,6.173-5.194,6.173-9.239v-36.361c18.977-5.666,36.065-16.982,48.745-32.419    C275.941,145.622,284,123.095,284,100.003c0-31.684-14.814-59.97-37.876-78.305C255.658,18.525,266.301,20.06,274.756,26.315z     M20,100.003C20,55.889,55.89,20,100.003,20h83.994C228.11,20,264,55.889,264,100.003c0,37.651-26.701,70.58-63.49,78.295    c-4.631,0.971-7.947,5.055-7.947,9.787v19.99l-25.14-25.14c-1.876-1.875-4.419-2.929-7.071-2.929h-60.349    C55.89,180.006,20,144.117,20,100.003z M36.983,487.929c-0.241,0.241-0.466,0.491-0.678,0.75C26.634,483.693,20,473.61,20,462    V206.143l149.385,149.385L36.983,487.929z M61.197,492l34-34H256c5.522,0,10-4.477,10-10s-4.478-10-10-10H115.197l28-28h73.976    c5.522,0,10-4.477,10-10s-4.478-10-10-10h-53.976l48.901-48.901c24.207-24.208,63.596-24.208,87.803,0L450.803,492H61.197z     M492,462c0,11.61-6.634,21.693-16.306,26.678c-0.211-0.258-0.437-0.509-0.678-0.75L342.615,355.527L444,254.143v83.027    c0,5.523,4.478,10,10,10c5.522,0,10-4.477,10-10V234.143l28-28V462z" data-original="#000000" class="active-path" data-old_color="#ffffff" fill="#ffffff"/>
	</g>
</g><g>
	<g>
		<path d="M308.399,440.93c-1.859-1.86-4.439-2.93-7.069-2.93s-5.21,1.07-7.07,2.93s-2.93,4.44-2.93,7.07s1.069,5.21,2.93,7.07    c1.861,1.86,4.44,2.93,7.07,2.93s5.21-1.07,7.069-2.93c1.86-1.86,2.931-4.44,2.931-7.07S310.26,442.79,308.399,440.93z" data-original="#000000" class="active-path" data-old_color="#ffffff" fill="#ffffff"/>
	</g>
</g><g>
	<g>
		<path d="M461.069,371.02c-1.859-1.86-4.439-2.93-7.069-2.93s-5.21,1.07-7.07,2.93c-1.86,1.86-2.93,4.44-2.93,7.07    s1.069,5.21,2.93,7.07c1.86,1.86,4.44,2.93,7.07,2.93s5.21-1.07,7.069-2.93c1.86-1.86,2.931-4.44,2.931-7.07    S462.93,372.88,461.069,371.02z" data-original="#000000" class="active-path" data-old_color="#ffffff" fill="#ffffff"/>
	</g>
</g><g>
	<g>
		<path d="M148.85,92.75c-1.87-1.86-4.439-2.93-7.08-2.93c-2.63,0-5.21,1.07-7.069,2.93c-1.86,1.86-2.931,4.44-2.931,7.07    s1.07,5.21,2.931,7.07c1.859,1.86,4.439,2.93,7.069,2.93c2.641,0,5.21-1.07,7.08-2.93c1.86-1.86,2.92-4.44,2.92-7.07    S150.71,94.61,148.85,92.75z" data-original="#000000" class="active-path" data-old_color="#ffffff" fill="#ffffff"/>
	</g>
</g><g>
	<g>
		<path d="M115.17,92.75c-1.86-1.86-4.44-2.93-7.07-2.93c-2.64,0-5.21,1.07-7.08,2.93c-1.859,1.86-2.92,4.44-2.92,7.07    c0,2.64,1.061,5.21,2.92,7.07c1.87,1.86,4.44,2.93,7.08,2.93c2.63,0,5.2-1.07,7.07-2.93c1.86-1.86,2.93-4.44,2.93-7.07    S117.031,94.61,115.17,92.75z" data-original="#000000" class="active-path" data-old_color="#ffffff" fill="#ffffff"/>
	</g>
</g><g>
	<g>
		<path d="M182.519,92.75c-1.859-1.86-4.439-2.93-7.069-2.93c-2.631,0-5.21,1.07-7.07,2.93s-2.93,4.44-2.93,7.07    s1.069,5.21,2.93,7.07c1.86,1.86,4.439,2.93,7.07,2.93c2.63,0,5.21-1.07,7.069-2.93c1.86-1.86,2.931-4.44,2.931-7.07    S184.38,94.61,182.519,92.75z" data-original="#000000" class="active-path" data-old_color="#ffffff" fill="#ffffff"/>
	</g>
</g></g> </svg>
