<svg xmlns="http://www.w3.org/2000/svg" viewBox="0 0 122.57 122.57"><defs><style>.cls-1{fill:#73fbd1;}</style></defs><title>logo</title><g id="Layer_2" data-name="Layer 2"><g id="Layer_1-2" data-name="Layer 1"><path class="cls-1" d="M61.28,85.57A24.29,24.29,0,1,0,37,61.28,24.31,24.31,0,0,0,61.28,85.57Z"/><path class="cls-1" d="M0,0V122.57H122.57V0ZM61.28,32A29.29,29.29,0,1,1,32,61.28,29.31,29.31,0,0,1,61.28,32Zm0,73A43.79,43.79,0,0,1,19.7,74.75H25a38.71,38.71,0,0,0,72.58,0h5.29A43.77,43.77,0,0,1,61.28,105Z"/></g></g></svg>