<?xml version="1.0" encoding="utf-8"?>
<!-- Generator: Adobe Illustrator 19.1.0, SVG Export Plug-In . SVG Version: 6.00 Build 0)  -->
<svg version="1.1" id="Layer_1" xmlns="http://www.w3.org/2000/svg" xmlns:xlink="http://www.w3.org/1999/xlink" x="0px" y="0px"
	 viewBox="0 0 421.3 97.5" style="enable-background:new 0 0 421.3 97.5;" xml:space="preserve">
<g>
	<g>
		<path style="fill:#128A4B;" d="M68.5,75.5H52.5V44.1H17.1v31.5H1.2V0.6h15.9V30h35.4V0.6h16.1V75.5z"/>
		<path style="fill:#128A4B;" d="M133.8,75.5h-14.3v-6.9c-4.9,5.5-11.2,8.2-19.1,8.2c-5.8,0-10.2-1.5-13.1-4.5
			c-2.9-3-4.4-7.2-4.4-12.6V21.3h14.3v32.9c0,6.7,3.3,10,10,10c5,0,9.1-2.1,12.4-6.2V21.3h14.3V75.5z"/>
		<path style="fill:#128A4B;" d="M162.2,75.5H148V21.3h14.3v7.4c2-2.5,4.6-4.6,7.8-6.3c3.1-1.6,6.3-2.5,9.5-2.5v13.9
			c-1-0.2-2.3-0.3-3.9-0.3c-2.4,0-4.9,0.6-7.6,1.8c-2.7,1.2-4.6,2.7-5.7,4.4V75.5z"/>
		<path style="fill:#128A4B;" d="M202.7,75.5h-14.3V21.3h14.3v7.4c2-2.5,4.6-4.6,7.8-6.3c3.1-1.6,6.3-2.5,9.5-2.5v13.9
			c-1-0.2-2.3-0.3-3.9-0.3c-2.4,0-4.9,0.6-7.6,1.8c-2.7,1.2-4.6,2.7-5.7,4.4V75.5z"/>
		<path style="fill:#128A4B;" d="M275.7,75.5h-14.3v-5.6c-3.9,4.6-9.6,7-17.2,7c-4.9,0-9.2-1.6-13.1-4.8c-3.9-3.2-5.8-7.6-5.8-13.2
			c0-5.8,1.9-10.2,5.7-13.1c3.8-2.9,8.2-4.4,13.2-4.4c7.7,0,13.4,2.2,17.2,6.6v-7.3c0-2.8-1.1-5-3.3-6.6c-2.2-1.6-5.1-2.5-8.6-2.5
			c-6,0-11.3,2.1-15.8,6.4l-5.4-9.5c6.4-5.7,14.3-8.5,23.7-8.5c7,0,12.7,1.6,17.1,4.8c4.4,3.2,6.6,8.5,6.6,15.7V75.5z M249.9,67.2
			c5.3,0,9.1-1.6,11.5-4.7v-6.7c-2.3-3.1-6.1-4.7-11.5-4.7c-2.9,0-5.4,0.7-7.3,2.2c-1.9,1.5-2.9,3.5-2.9,6c0,2.5,1,4.4,2.9,5.8
			C244.6,66.5,247,67.2,249.9,67.2z"/>
		<path style="fill:#128A4B;" d="M287.9,96.8l2.1-12.8c1.3,0.6,2.8,0.9,4.5,0.9c3.8,0,6.3-1.3,7.5-3.9l2-4.6l-22-55h15.3L311.5,59
			l14.2-37.7H341l-25.5,63.1c-1.9,4.8-4.5,8.1-7.9,10.1c-3.4,1.9-7.6,2.9-12.7,3.1C292.4,97.5,290,97.3,287.9,96.8z"/>
		<path style="fill:#128A4B;" d="M361.1,74c-1.8,1.8-3.9,2.7-6.4,2.7s-4.6-0.9-6.3-2.7c-1.8-1.8-2.6-3.9-2.6-6.3
			c0-2.5,0.9-4.6,2.6-6.4c1.8-1.8,3.9-2.7,6.3-2.7s4.6,0.9,6.4,2.7s2.7,3.9,2.7,6.4C363.8,70.1,362.9,72.2,361.1,74z M361,51.2
			h-12.6l-2.4-50.5h17.2L361,51.2z"/>
		<path style="fill:#128A4B;" d="M389.9,74c-1.8,1.8-3.9,2.7-6.4,2.7s-4.6-0.9-6.3-2.7c-1.8-1.8-2.6-3.9-2.6-6.3
			c0-2.5,0.9-4.6,2.6-6.4c1.8-1.8,3.9-2.7,6.3-2.7s4.6,0.9,6.4,2.7s2.7,3.9,2.7,6.4C392.6,70.1,391.7,72.2,389.9,74z M389.8,51.2
			h-12.6l-2.4-50.5H392L389.8,51.2z"/>
		<path style="fill:#128A4B;" d="M418.6,74c-1.8,1.8-3.9,2.7-6.4,2.7s-4.6-0.9-6.3-2.7c-1.8-1.8-2.6-3.9-2.6-6.3
			c0-2.5,0.9-4.6,2.6-6.4c1.8-1.8,3.9-2.7,6.3-2.7s4.6,0.9,6.4,2.7s2.7,3.9,2.7,6.4C421.3,70.1,420.4,72.2,418.6,74z M418.5,51.2
			h-12.6l-2.4-50.5h17.2L418.5,51.2z"/>
	</g>
</g>
</svg>
