<?xml version="1.0" encoding="utf-8"?>
<!-- Generator: Adobe Illustrator 19.1.0, SVG Export Plug-In . SVG Version: 6.00 Build 0)  -->
<svg version="1.1" id="Layer_1" xmlns="http://www.w3.org/2000/svg" xmlns:xlink="http://www.w3.org/1999/xlink" x="0px" y="0px"
	 viewBox="0 0 73.4 96" style="enable-background:new 0 0 73.4 96;" xml:space="preserve">
<style type="text/css">
	.st0{fill:#242424;}
	.st1{fill:#252524;}
</style>
<g>
	<path class="st0" d="M0,55.5c0.3-9.3,4.9-19,14.2-26.3c3.2-2.5,5.9-2.6,7.7-0.1c1.9,2.4,1.2,5-1.8,7.6C5.2,48.9,6.1,70.9,22,81.2
		c12,7.8,27.9,4.9,36.5-6.6c8.6-11.5,6.8-27.9-4.2-37.2c-0.7-0.6-1.5-1.1-2.1-1.8c-2.1-2-2.4-4.8-0.6-6.8c1.7-1.9,4.2-2.2,6.6-0.5
		C66,34,71,41.5,72.8,51C77.2,75.3,58.7,96.2,34,95C15.4,94.1-0.2,77.1,0,55.5z"/>
	<path class="st0" d="M30,64c0.5-8,1-15.8,1.3-23.4c0.1-2.2,0.7-3.5,3.2-3.5c7.4,0.1,7.4-0.2,7.7,7.2c0.4,7.3,1,14.6,1.3,21.9
		c0.2,4.7-2.3,7.4-6.5,7.5c-4.2,0.1-6.9-1.8-7.2-6c-0.1-1.4,0-2.7,0-3.7C29.9,64,29.9,64,30,64z"/>
	<path class="st0" d="M43.5,10.3c-0.1,6.6-2.4,8.9-7.2,8.8c-2.2-0.1-4-0.7-5-2.8c-1.1-2.2-1-4.3,0.4-6.3c0.8-1.2,1.7-2.2,2.6-3.4
		c0.8-1,1.3-2,1.4-3.3c0.1-2.8,0.5-3,2.9-1.4C41.9,4.2,43.4,7.4,43.5,10.3z"/>
	<path class="st1" d="M41.5,27.7c0,6.6-0.9,7.3-7.6,6.3c-1.4-0.2-1.9-0.9-1.9-2.2c0-1.4,0-2.8,0-4.3c0-6.8-0.5-5.8,6.1-6
		c2.6-0.1,3.8,0.8,3.5,3.5C41.4,25.9,41.5,26.8,41.5,27.7z"/>
</g>
</svg>
