<?xml version="1.0" encoding="utf-8"?>
<!-- Generator: Adobe Illustrator 19.1.0, SVG Export Plug-In . SVG Version: 6.00 Build 0)  -->
<svg version="1.1" baseProfile="tiny" id="Layer_1" xmlns="http://www.w3.org/2000/svg" xmlns:xlink="http://www.w3.org/1999/xlink"
	 x="0px" y="0px" viewBox="0 0 256 256" xml:space="preserve">
<circle fill="#F9F9F9" cx="128" cy="128" r="126"/>
<g>
	<path fill="#695A69" d="M155.8,152.7h-3.1v-2.4c0-0.4-0.3-0.7-0.7-0.7h-20.3c-0.4,0-0.7,0.3-0.7,0.7v2.4H96.6
		c-0.4-1.2-1-2.2-1.8-3.1c-1.7-1.9-4.2-3.1-6.9-3.1c-2.7,0-5.2,1.2-6.9,3.1c-0.8,0.9-1.4,1.9-1.8,3.1H78c-0.4-1.2-1-2.2-1.8-3.1
		c-1.7-1.9-4.2-3.1-6.9-3.1s-5.2,1.2-6.9,3.1c-0.8,0.9-1.4,1.9-1.8,3.1h-6.7v3.1H60c0,5.1,4.1,9.3,9.3,9.3c5.1,0,9.3-4.1,9.3-9.3
		c0,5.1,4.1,9.3,9.3,9.3s9.3-4.1,9.3-9.3h34v2.4c0,0.4,0.3,0.7,0.7,0.7H152c0.4,0,0.7-0.3,0.7-0.7v-2.4h9.3v-3.1H155.8z M69.3,162
		c-3.4,0-6.2-2.8-6.2-6.2c0-3.4,2.8-6.2,6.2-6.2c3.4,0,6.2,2.8,6.2,6.2C75.5,159.2,72.7,162,69.3,162z M87.8,162
		c-3.4,0-6.2-2.8-6.2-6.2c0-3.4,2.8-6.2,6.2-6.2c3.4,0,6.2,2.8,6.2,6.2C94,159.2,91.2,162,87.8,162z"/>
	<path fill="#E17277" d="M76.2,149.6h4.7c1.7-1.9,4.2-3.1,6.9-3.1H69.3C72,146.5,74.5,147.7,76.2,149.6z"/>
	<path fill="#E17277" d="M69.3,146.5H51.4c-0.4,0-0.7-0.3-0.7-0.7v-1.8c0-0.4,0.3-0.7,0.7-0.7H152c0.4,0,0.7,0.3,0.7,0.7v1.8
		c0,0.4-0.3,0.7-0.7,0.7H87.8c2.7,0,5.2,1.2,6.9,3.1h37H152h3.8v-37.1V90.9H47.7v58.7h14.7C64.1,147.7,66.6,146.5,69.3,146.5z
		 M50.8,94.7c0-0.4,0.3-0.7,0.7-0.7H152c0.4,0,0.7,0.3,0.7,0.7v1.8c0,0.4-0.3,0.7-0.7,0.7H51.4c-0.4,0-0.7-0.3-0.7-0.7V94.7z
		 M50.8,100.9c0-0.4,0.3-0.7,0.7-0.7H152c0.4,0,0.7,0.3,0.7,0.7v1.8c0,0.4-0.3,0.7-0.7,0.7H51.4c-0.4,0-0.7-0.3-0.7-0.7V100.9z
		 M50.8,107c0-0.4,0.3-0.7,0.7-0.7H152c0.4,0,0.7,0.3,0.7,0.7v1.8c0,0.4-0.3,0.7-0.7,0.7H51.4c-0.4,0-0.7-0.3-0.7-0.7V107z
		 M50.8,113.2c0-0.4,0.3-0.7,0.7-0.7H152c0.4,0,0.7,0.3,0.7,0.7v1.8c0,0.4-0.3,0.7-0.7,0.7H51.4c-0.4,0-0.7-0.3-0.7-0.7V113.2z
		 M50.8,119.4c0-0.4,0.3-0.7,0.7-0.7H152c0.4,0,0.7,0.3,0.7,0.7v1.8c0,0.4-0.3,0.7-0.7,0.7H51.4c-0.4,0-0.7-0.3-0.7-0.7V119.4z
		 M50.8,125.6c0-0.4,0.3-0.7,0.7-0.7H152c0.4,0,0.7,0.3,0.7,0.7v1.8c0,0.4-0.3,0.7-0.7,0.7H51.4c-0.4,0-0.7-0.3-0.7-0.7V125.6z
		 M50.8,131.8c0-0.4,0.3-0.7,0.7-0.7H152c0.4,0,0.7,0.3,0.7,0.7v1.8c0,0.4-0.3,0.7-0.7,0.7H51.4c-0.4,0-0.7-0.3-0.7-0.7V131.8z
		 M50.8,137.9c0-0.4,0.3-0.7,0.7-0.7H152c0.4,0,0.7,0.3,0.7,0.7v1.8c0,0.4-0.3,0.7-0.7,0.7H51.4c-0.4,0-0.7-0.3-0.7-0.7V137.9z"/>
	<path fill="#826E77" d="M78,152.7h1.1c0.4-1.2,1-2.2,1.8-3.1h-4.7C77,150.5,77.6,151.6,78,152.7z"/>
	<path fill="#826E77" d="M96.6,152.7h34.5v-2.4c0-0.4,0.3-0.7,0.7-0.7h-37C95.5,150.5,96.2,151.6,96.6,152.7z"/>
	<path fill="#826E77" d="M62.4,149.6H47.7v3.1h6.2h6.7C61,151.6,61.6,150.5,62.4,149.6z"/>
	<path fill="#A08A8A" d="M205.8,132.9L196,128h-4.6h-9.5c-0.7,0-1.3-0.6-1.3-1.3v-9.5v-4.6H196h1.5v-3.1H196h-3.1h-12.4H162v3.1
		v37.1h17.1c2.1-3.7,6.1-6.2,10.7-6.2c4.6,0,8.6,2.5,10.7,6.2h4.8v-11c0-0.7,0.6-1.3,1.3-1.3h1.8V137
		C208.3,135.3,207.3,133.7,205.8,132.9z M177.4,146.5h-12.4v-34h12.4V146.5z"/>
	<path fill="#826E77" d="M200.5,149.6c-2.1-3.7-6.1-6.2-10.7-6.2c-4.6,0-8.6,2.5-10.7,6.2H162h-6.2H152c0.4,0,0.7,0.3,0.7,0.7v2.4
		h3.1h6.2v3.1v3.1h15.9h3.2c-0.3-1-0.5-2-0.5-3.1c0-5.1,4.1-9.3,9.3-9.3s9.3,4.1,9.3,9.3c0,1.1-0.2,2.1-0.5,3.1h3.2h6.6v-9.3h-3.1
		L200.5,149.6L200.5,149.6z"/>
	<path fill="#DFD0C6" d="M69.3,149.6c-3.4,0-6.2,2.8-6.2,6.2c0,3.4,2.8,6.2,6.2,6.2c3.4,0,6.2-2.8,6.2-6.2
		C75.5,152.4,72.7,149.6,69.3,149.6z M69.3,158.9c-1.7,0-3.1-1.4-3.1-3.1c0-1.7,1.4-3.1,3.1-3.1c1.7,0,3.1,1.4,3.1,3.1
		C72.4,157.5,71,158.9,69.3,158.9z"/>
	<circle fill="#C8B2A8" cx="69.3" cy="155.8" r="3.1"/>
	<path fill="#DFD0C6" d="M87.8,149.6c-3.4,0-6.2,2.8-6.2,6.2c0,3.4,2.8,6.2,6.2,6.2c3.4,0,6.2-2.8,6.2-6.2
		C94,152.4,91.2,149.6,87.8,149.6z M87.8,158.9c-1.7,0-3.1-1.4-3.1-3.1c0-1.7,1.4-3.1,3.1-3.1s3.1,1.4,3.1,3.1
		C90.9,157.5,89.5,158.9,87.8,158.9z"/>
	<circle fill="#C8B2A8" cx="87.8" cy="155.8" r="3.1"/>
	<path fill="#695A69" d="M189.8,146.5c-5.1,0-9.3,4.1-9.3,9.3c0,1.1,0.2,2.1,0.5,3.1c1.3,3.6,4.7,6.2,8.7,6.2c4,0,7.5-2.6,8.7-6.2
		c0.3-1,0.5-2,0.5-3.1C199.1,150.7,194.9,146.5,189.8,146.5z M189.8,162c-3.4,0-6.2-2.8-6.2-6.2c0-3.4,2.8-6.2,6.2-6.2
		s6.2,2.8,6.2,6.2C196,159.2,193.2,162,189.8,162z"/>
	<path fill="#DFD0C6" d="M196,155.8c0-3.4-2.8-6.2-6.2-6.2s-6.2,2.8-6.2,6.2c0,3.4,2.8,6.2,6.2,6.2S196,159.2,196,155.8z
		 M186.7,155.8c0-1.7,1.4-3.1,3.1-3.1c1.7,0,3.1,1.4,3.1,3.1c0,1.7-1.4,3.1-3.1,3.1C188.1,158.9,186.7,157.5,186.7,155.8z"/>
	<circle fill="#C8B2A8" cx="189.8" cy="155.8" r="3.1"/>
	<path fill="#95FFFF" d="M180.5,126.7c0,0.7,0.6,1.3,1.3,1.3h9.5l-10.8-10.8V126.7L180.5,126.7z"/>
	<path fill="#695A69" d="M205.2,138.6v11h3.1v-12.4h-1.8C205.8,137.3,205.2,137.9,205.2,138.6z"/>
	<path fill="#826E77" d="M192.9,109.5l-6.3-5.2c-1.9-1.6-4.4-2.5-6.9-2.5H162v7.7h18.5L192.9,109.5L192.9,109.5z"/>
	<rect x="165.1" y="112.6" fill="#826E77" width="12.4" height="34"/>
	<rect x="180.5" y="112.6" fill="#6EB1E2" width="15.4" height="4.6"/>
	<polygon fill="#80D7F0" points="191.3,128 196,128 196,117.2 180.5,117.2 	"/>
	<rect x="155.8" y="112.6" fill="#695A69" width="6.2" height="37.1"/>
	<path fill="#BF515A" d="M51.4,97.1H152c0.4,0,0.7-0.3,0.7-0.7v-1.8c0-0.4-0.3-0.7-0.7-0.7H51.4c-0.4,0-0.7,0.3-0.7,0.7v1.8
		C50.8,96.8,51.1,97.1,51.4,97.1z"/>
	<path fill="#BF515A" d="M51.4,103.3H152c0.4,0,0.7-0.3,0.7-0.7v-1.8c0-0.4-0.3-0.7-0.7-0.7H51.4c-0.4,0-0.7,0.3-0.7,0.7v1.8
		C50.8,103,51.1,103.3,51.4,103.3z"/>
	<path fill="#BF515A" d="M51.4,109.5H152c0.4,0,0.7-0.3,0.7-0.7V107c0-0.4-0.3-0.7-0.7-0.7H51.4c-0.4,0-0.7,0.3-0.7,0.7v1.8
		C50.8,109.2,51.1,109.5,51.4,109.5z"/>
	<path fill="#BF515A" d="M51.4,115.6H152c0.4,0,0.7-0.3,0.7-0.7v-1.8c0-0.4-0.3-0.7-0.7-0.7H51.4c-0.4,0-0.7,0.3-0.7,0.7v1.8
		C50.8,115.3,51.1,115.6,51.4,115.6z"/>
	<path fill="#BF515A" d="M51.4,121.8H152c0.4,0,0.7-0.3,0.7-0.7v-1.8c0-0.4-0.3-0.7-0.7-0.7H51.4c-0.4,0-0.7,0.3-0.7,0.7v1.8
		C50.8,121.5,51.1,121.8,51.4,121.8z"/>
	<path fill="#BF515A" d="M51.4,128H152c0.4,0,0.7-0.3,0.7-0.7v-1.8c0-0.4-0.3-0.7-0.7-0.7H51.4c-0.4,0-0.7,0.3-0.7,0.7v1.8
		C50.8,127.7,51.1,128,51.4,128z"/>
	<path fill="#BF515A" d="M51.4,134.2H152c0.4,0,0.7-0.3,0.7-0.7v-1.8c0-0.4-0.3-0.7-0.7-0.7H51.4c-0.4,0-0.7,0.3-0.7,0.7v1.8
		C50.8,133.9,51.1,134.2,51.4,134.2z"/>
	<path fill="#BF515A" d="M51.4,140.4H152c0.4,0,0.7-0.3,0.7-0.7v-1.8c0-0.4-0.3-0.7-0.7-0.7H51.4c-0.4,0-0.7,0.3-0.7,0.7v1.8
		C50.8,140.1,51.1,140.4,51.4,140.4z"/>
	<path fill="#BF515A" d="M152.7,145.9v-1.8c0-0.4-0.3-0.7-0.7-0.7H51.4c-0.4,0-0.7,0.3-0.7,0.7v1.8c0,0.4,0.3,0.7,0.7,0.7h17.9h18.5
		H152C152.4,146.5,152.7,146.2,152.7,145.9z"/>
</g>
</svg>
