<?xml version="1.0" encoding="utf-8"?>
<!-- Generator: Adobe Illustrator 19.1.0, SVG Export Plug-In . SVG Version: 6.00 Build 0)  -->
<svg version="1.1" baseProfile="tiny" id="Layer_1" xmlns="http://www.w3.org/2000/svg" xmlns:xlink="http://www.w3.org/1999/xlink"
	 x="0px" y="0px" viewBox="0 0 256 256" xml:space="preserve">
<circle fill="#F9F9F9" cx="128" cy="128" r="126"/>
<path fill="#26A6D1" d="M128,2C58.4,2,2,58.4,2,128c0,69.6,56.4,126,126,126s126-56.4,126-126C254,58.4,197.6,2,128,2z M191.5,102.3
	l0.1,3.9c0,39.4-30.9,84.8-87.4,84.8c-17.3,0-33.5-4.9-47.1-13.4c2.4,0.3,4.9,0.4,7.3,0.4c14.4,0,27.6-4.8,38.1-12.8
	c-13.4-0.2-24.8-8.9-28.7-20.7c1.9,0.4,3.8,0.5,5.8,0.5c2.8,0,5.5-0.4,8.1-1c-14-2.7-24.6-14.8-24.6-29.2v-0.4
	c4.1,2.2,8.9,3.6,13.9,3.7c-8.2-5.3-13.7-14.5-13.7-24.8c0-5.5,1.5-10.6,4.2-15c15.1,18,37.8,29.9,63.3,31.1
	c-0.5-2.2-0.8-4.5-0.8-6.8c0-16.5,13.7-29.8,30.7-29.8c8.8,0,16.8,3.6,22.4,9.4c7-1.3,13.6-3.8,19.5-7.2c-2.3,7-7.2,12.8-13.5,16.5
	c6.2-0.7,12.1-2.3,17.6-4.7C202.7,92.9,197.4,98.1,191.5,102.3z"/>
</svg>
