<?xml version="1.0" encoding="utf-8"?>
<!-- Generator: Adobe Illustrator 19.1.0, SVG Export Plug-In . SVG Version: 6.00 Build 0)  -->
<svg version="1.1" baseProfile="tiny" id="Layer_1" xmlns="http://www.w3.org/2000/svg" xmlns:xlink="http://www.w3.org/1999/xlink"
	 x="0px" y="0px" viewBox="0 0 256 256" xml:space="preserve">
<circle fill="#F9F9F9" cx="128" cy="128" r="126"/>
<g>
	<polygon fill="#E77200" points="174.9,72.7 208,128 174.9,183.3 174.9,163.2 140.3,163.2 162.3,105.2 86.9,105.2 86.9,92.9
		174.9,92.9 	"/>
	<polygon fill="#C65C05" points="95.3,105.2 78.3,105.2 56.4,163.2 148.7,163.2 170.7,105.2 	"/>
	<polygon fill="#E2D9C3" points="162.3,105.2 140.3,163.2 122.7,134.2 	"/>
	<polygon fill="#FCF4DE" points="162.3,105.2 122.7,134.2 98.4,151.9 87.6,134.2 70,105.2 86.9,105.2 	"/>
	<polygon fill="#C6BDA7" points="122.7,134.2 140.3,163.2 48,163.2 87.6,134.2 87.6,134.2 98.4,151.9 	"/>
	<polygon fill="#E2D9C3" points="70,105.2 87.6,134.2 87.6,134.2 48,163.2 	"/>
</g>
</svg>
