<?xml version="1.0" encoding="utf-8"?>
<!-- Generator: Adobe Illustrator 19.1.0, SVG Export Plug-In . SVG Version: 6.00 Build 0)  -->
<svg version="1.1" baseProfile="tiny" id="Layer_1" xmlns="http://www.w3.org/2000/svg" xmlns:xlink="http://www.w3.org/1999/xlink"
	 x="0px" y="0px" viewBox="0 0 256 256" xml:space="preserve">
<circle fill="#F9F9F9" cx="128" cy="128" r="126"/>
<g>
	<circle fill="#C9C9C9" cx="97.9" cy="80.1" r="11.7"/>
	<g>
		<path fill="#002833" d="M97.3,119L86,94.5c0,0-11.8,0.1-11.8,11.1s0,13.4,0,13.4S97.4,119,97.3,119z"/>
		<path fill="#002833" d="M98.4,119l11.3-24.5c0,0,11.8,0.1,11.8,11.1s0,13.4,0,13.4S98.3,119,98.4,119z"/>
	</g>
	<polygon fill="#FF5F5F" points="97.9,94.5 89.7,94.5 97.9,112.5 106,94.5 	"/>
	<circle fill="#C9C9C9" cx="158.1" cy="148.7" r="11.7"/>
	<g>
		<path fill="#002833" d="M157.6,187.6l-11.3-24.5c0,0-11.8,0.1-11.8,11.1c0,10.9,0,13.4,0,13.4S157.7,187.6,157.6,187.6z"/>
		<path fill="#002833" d="M158.7,187.6l11.3-24.5c0,0,11.8,0.1,11.8,11.1c0,10.9,0,13.4,0,13.4S158.6,187.6,158.7,187.6z"/>
	</g>
	<polygon fill="#FF5F5F" points="158.1,163.1 150,163.1 158.1,181.1 166.3,163.1 	"/>
	<path fill="#C9C9C9" d="M128,177.5h-5.2v-2.7h5.2V177.5z M117.4,177.5h-5.4v-2.7h5.4L117.4,177.5L117.4,177.5z M106.7,177.5h-5.4
		v-2.7h5.4V177.5z M99.7,173.8h-2.7v-5.4h2.7V173.8z M99.7,163h-2.7v-5.4h2.7V163z M99.7,152.3h-2.7v-5.4h2.7V152.3z M99.7,141.6
		h-2.7v-5.4h2.7V141.6z M99.7,130.8h-2.7v-5.4h2.7V130.8z"/>
</g>
</svg>
