<?xml version="1.0" encoding="utf-8"?>
<!-- Generator: Adobe Illustrator 19.1.0, SVG Export Plug-In . SVG Version: 6.00 Build 0)  -->
<svg version="1.1" baseProfile="tiny" id="Layer_1" xmlns="http://www.w3.org/2000/svg" xmlns:xlink="http://www.w3.org/1999/xlink"
	 x="0px" y="0px" viewBox="0 0 256 256" xml:space="preserve">
<g>
	<g>
		<g>
			<path fill="#FFB980" d="M91.7,142.1c-5.2,0-9.9-2.2-13.4-5.8c0,2.2-0.1,5.3-0.7,7.5c0.4,0.2,0.7,0.6,0.7,1.1
				c0.7,6,6.5,10.6,13.3,10.6c6.8,0,12.5-4.5,13.3-10.6c0.1-0.5,0.3-0.8,0.7-1.1c-0.6-2.3-0.6-5.4-0.7-7.5
				C101.6,139.9,96.9,142.1,91.7,142.1z"/>
		</g>
		<g>
			<path fill="#F8AB6B" d="M104.8,136.6c-3.4,3.4-8,5.5-13.1,5.5c-5.2,0-9.9-2.2-13.4-5.8c0,2.2-0.1,5.3-0.7,7.5
				c0.4,0.2,0.7,0.6,0.7,1.1c0.3,2.7,1.6,5,3.6,6.9C90.9,150.5,101.1,141.7,104.8,136.6z"/>
		</g>
		<g>
			<path fill="#00E68C" d="M118.8,145.4c-0.1,0-0.1,0-0.2,0l-11.8-1.8c-0.1,0-0.2,0-0.3,0c-0.7,0-1.4,0.6-1.5,1.3
				c-0.7,6-6.5,10.6-13.3,10.6c-6.8,0-12.5-4.5-13.3-10.6c-0.1-0.8-0.8-1.3-1.5-1.3c-0.1,0-0.2,0-0.3,0l-11.8,1.8
				c-0.1,0-0.1,0-0.2,0c-5.6,1.6-8.5,7.1-8.5,11.7v5.8c0,2.4,2.2,4.4,4.9,4.4h61.5c2.7,0,4.9-2,4.9-4.4v-5.8
				C127.3,152.5,124.4,147,118.8,145.4z"/>
		</g>
		<g>
			<path fill="#FDC88E" d="M105.1,105H79.8c-4.1,0-7.4,3.3-7.4,7.4v8.9c0,11.5,8.7,20.8,19.3,20.8s19.3-9.3,19.3-20.8v-10.4
				C111,107.7,108.3,105,105.1,105z"/>
		</g>
		<g>
			<path fill="#5C546A" d="M102.1,88.7H82.8c-2.8,0-5.1,1.9-5.8,4.5c-5.1,0.6-9.1,5-9.1,10.3v7.4c0,3.8,1.6,7.4,4.5,9.9v-8.4
				c0-4.1,3.3-7.4,7.4-7.4h25.2c3.3,0,5.9,2.7,5.9,5.9v9.9c2.8-2.5,4.5-6.1,4.5-9.9V102C115.4,94.7,109.4,88.7,102.1,88.7z"/>
		</g>
	</g>
	<g>
		<g>
			<path fill="#FFB980" d="M164.3,142.1c-5.2,0-9.9-2.2-13.4-5.8c0,2.2-0.1,5.3-0.7,7.5c0.4,0.2,0.7,0.6,0.7,1.1
				c0.7,6,6.5,10.6,13.3,10.6c6.8,0,12.5-4.5,13.3-10.6c0.1-0.5,0.3-0.8,0.7-1.1c-0.6-2.3-0.6-5.4-0.7-7.5
				C174.2,139.9,169.5,142.1,164.3,142.1z"/>
		</g>
		<g>
			<path fill="#F8AB6B" d="M177.4,136.6c-3.4,3.4-8,5.5-13.1,5.5c-5.2,0-9.9-2.2-13.4-5.8c0,2.2-0.1,5.3-0.7,7.5
				c0.4,0.2,0.7,0.6,0.7,1.1c0.3,2.7,1.6,5,3.6,6.9C163.5,150.5,173.7,141.7,177.4,136.6z"/>
		</g>
		<g>
			<path fill="#00ABFF" d="M191.4,145.4c-0.1,0-0.1,0-0.2,0l-11.8-1.8c-0.1,0-0.2,0-0.3,0c-0.7,0-1.4,0.6-1.5,1.3
				c-0.7,6-6.5,10.6-13.3,10.6c-6.8,0-12.5-4.5-13.3-10.6c-0.1-0.8-0.8-1.3-1.5-1.3c-0.1,0-0.2,0-0.3,0l-11.8,1.8
				c-0.1,0-0.1,0-0.2,0c-5.6,1.6-8.5,7.1-8.5,11.7v5.8c0,2.4,2.2,4.4,4.9,4.4h61.5c2.7,0,4.9-2,4.9-4.4v-5.8
				C199.9,152.5,197,147,191.4,145.4z"/>
		</g>
		<g>
			<path fill="#FDC88E" d="M177.7,105h-25.2c-4.1,0-7.4,3.3-7.4,7.4v8.9c0,11.5,8.7,20.8,19.3,20.8s19.3-9.3,19.3-20.8v-10.4
				C183.6,107.7,180.9,105,177.7,105z"/>
		</g>
		<g>
			<path fill="#7E5C62" d="M174.7,88.7h-19.3c-2.8,0-5.1,1.9-5.8,4.5c-5.1,0.6-9.1,5-9.1,10.3v7.4c0,3.8,1.6,7.4,4.5,9.9v-8.4
				c0-4.1,3.3-7.4,7.4-7.4h25.2c3.3,0,5.9,2.7,5.9,5.9v9.9c2.8-2.5,4.5-6.1,4.5-9.9V102C188.1,94.7,182.1,88.7,174.7,88.7z"/>
		</g>
	</g>
	<g>
		<g>
			<path fill="#FDC88E" d="M128,149.4c-7.9,0-15-3.4-20.2-8.8c0,3.3-0.1,8-1,11.4c0.6,0.3,1,0.9,1.1,1.6c1.1,9.1,9.8,16,20.1,16
				c10.4,0,19-6.9,20.1-16c0.1-0.7,0.5-1.3,1.1-1.6c-0.9-3.4-1-8.1-1-11.4C143,146,135.9,149.4,128,149.4z"/>
		</g>
		<g>
			<path fill="#FFB980" d="M147.8,141c-5.2,5.2-12.2,8.4-19.8,8.4c-7.9,0-15-3.4-20.2-8.8c0,3.3-0.1,8-1,11.4c0.6,0.3,1,0.9,1.1,1.6
				c0.5,4,2.5,7.6,5.4,10.4C126.8,162.1,142.2,148.7,147.8,141z"/>
		</g>
		<g>
			<path fill="#FF4F19" d="M169,154.4c-0.1,0-0.2,0-0.3-0.1l-17.9-2.7c-0.1,0-0.3,0-0.5,0c-1.1,0-2.1,0.8-2.2,2
				c-1.1,9.1-9.8,16-20.1,16c-10.4,0-19-6.9-20.1-16c-0.1-1.2-1.2-2-2.3-2c-0.1,0-0.3,0-0.4,0l-17.9,2.7c-0.1,0-0.2,0-0.3,0.1
				c-8.5,2.4-12.9,10.7-12.9,17.7v8.7c0,3.7,3.3,6.7,7.4,6.7h93.2c4.1,0,7.4-3,7.4-6.7v-8.7C181.9,165.1,177.5,156.8,169,154.4z"/>
		</g>
		<g>
			<path fill="#FFE1B2" d="M148.2,93.2H110c-6.2,0-11.2,5-11.2,11.2v13.5c0,17.4,13.1,31.5,29.2,31.5s29.2-14.1,29.2-31.5v-15.7
				C157.2,97.2,153.2,93.2,148.2,93.2z"/>
		</g>
		<g>
			<path fill="#7E5449" d="M143.7,68.4h-29.2c-4.2,0-7.8,2.9-8.7,6.9C98,76.3,92,82.9,92,90.9v11.2c0,5.8,2.5,11.2,6.7,15v-12.8
				c0-6.2,5-11.2,11.2-11.2h38.2c5,0,9,4,9,9v15c4.3-3.8,6.7-9.2,6.7-15V88.7C164,77.5,154.9,68.4,143.7,68.4z"/>
		</g>
	</g>
</g>
</svg>
