<?xml version="1.0" encoding="utf-8"?>
<!-- Generator: Adobe Illustrator 19.1.0, SVG Export Plug-In . SVG Version: 6.00 Build 0)  -->
<svg version="1.1" baseProfile="tiny" id="Layer_1" xmlns="http://www.w3.org/2000/svg" xmlns:xlink="http://www.w3.org/1999/xlink"
	 x="0px" y="0px" viewBox="0 0 256 256" xml:space="preserve">
<circle fill="#F9F9F9" cx="128" cy="128" r="126"/>
<g>
	<circle fill="#E7ECED" cx="128" cy="128" r="59.5"/>
	<path fill="#424A60" d="M128,76.7c28.3,0,51.3,23,51.3,51.3s-23,51.3-51.3,51.3s-51.3-23-51.3-51.3S99.7,76.7,128,76.7 M128,68.5
		c-32.9,0-59.5,26.6-59.5,59.5s26.6,59.5,59.5,59.5s59.5-26.6,59.5-59.5S160.9,68.5,128,68.5L128,68.5z"/>
	<g>
		<path fill="#7383BF" d="M128,80.6c-1.1,0-2.1,0.9-2.1,2.1v2.1c0,1.1,0.9,2.1,2.1,2.1s2.1-0.9,2.1-2.1v-2.1
			C130.1,81.5,129.1,80.6,128,80.6z"/>
		<path fill="#7383BF" d="M128,168.8c-1.1,0-2.1,0.9-2.1,2.1v2.1c0,1.1,0.9,2.1,2.1,2.1s2.1-0.9,2.1-2.1v-2.1
			C130.1,169.7,129.1,168.8,128,168.8z"/>
		<path fill="#7383BF" d="M173.1,125.7h-2.1c-1.1,0-2.1,0.9-2.1,2.1s0.9,2.1,2.1,2.1h2.1c1.1,0,2.1-0.9,2.1-2.1
			S174.3,125.7,173.1,125.7z"/>
		<path fill="#7383BF" d="M84.9,125.7h-2.1c-1.1,0-2.1,0.9-2.1,2.1s0.9,2.1,2.1,2.1h2.1c1.1,0,2.1-0.9,2.1-2.1S86,125.7,84.9,125.7z
			"/>
		<path fill="#7383BF" d="M158.5,94.4l-1.5,1.5c-0.8,0.8-0.8,2.1,0,2.9c0.4,0.4,0.9,0.6,1.5,0.6s1.1-0.2,1.5-0.6l1.5-1.5
			c0.8-0.8,0.8-2.1,0-2.9C160.6,93.6,159.3,93.6,158.5,94.4z"/>
		<path fill="#7383BF" d="M96.1,156.8l-1.5,1.5c-0.8,0.8-0.8,2.1,0,2.9c0.4,0.4,0.9,0.6,1.5,0.6c0.5,0,1.1-0.2,1.5-0.6l1.5-1.5
			c0.8-0.8,0.8-2.1,0-2.9S96.9,156,96.1,156.8z"/>
		<path fill="#7383BF" d="M159.9,156.8c-0.8-0.8-2.1-0.8-2.9,0c-0.8,0.8-0.8,2.1,0,2.9l1.5,1.5c0.4,0.4,0.9,0.6,1.5,0.6
			c0.5,0,1.1-0.2,1.5-0.6c0.8-0.8,0.8-2.1,0-2.9L159.9,156.8z"/>
		<path fill="#7383BF" d="M97.5,94.4c-0.8-0.8-2.1-0.8-2.9,0c-0.8,0.8-0.8,2.1,0,2.9l1.5,1.5c0.4,0.4,0.9,0.6,1.5,0.6
			c0.5,0,1.1-0.2,1.5-0.6c0.8-0.8,0.8-2.1,0-2.9L97.5,94.4z"/>
	</g>

		<line fill="none" stroke="#424A60" stroke-width="2" stroke-linecap="round" stroke-linejoin="round" stroke-miterlimit="10" x1="121.8" y1="127.8" x2="105.4" y2="127.8"/>

		<line fill="none" stroke="#424A60" stroke-width="2" stroke-linecap="round" stroke-linejoin="round" stroke-miterlimit="10" x1="128" y1="121.6" x2="128" y2="99"/>

		<circle fill="none" stroke="#424A60" stroke-width="2" stroke-linecap="round" stroke-linejoin="round" stroke-miterlimit="10" cx="128" cy="127.8" r="6.2"/>
</g>
</svg>
