<?xml version="1.0" encoding="utf-8"?>
<!-- Generator: Adobe Illustrator 19.1.0, SVG Export Plug-In . SVG Version: 6.00 Build 0)  -->
<svg version="1.1" baseProfile="tiny" id="Layer_1" xmlns="http://www.w3.org/2000/svg" xmlns:xlink="http://www.w3.org/1999/xlink"
	 x="0px" y="0px" viewBox="0 0 256 256" xml:space="preserve">
<circle fill="#F9F9F9" cx="128" cy="128" r="126"/>
<g>
	<path fill="#E0E0D3" d="M173,96l-26.3-26.3c-0.8-0.8-1.8-1.2-2.9-1.2H85.9c-2.3,0-4.1,1.9-4.1,4.1v110.8c0,2.3,1.9,4.1,4.1,4.1
		h84.2c2.3,0,4.1-1.9,4.1-4.1V98.9C174.2,97.8,173.8,96.8,173,96z"/>
	<polygon fill="#333E48" points="145.5,68.4 145.5,97.2 174.2,97.2 	"/>
	<g>
		<path fill="#5C6670" d="M100.3,101.3h18.5c1.1,0,2.1-0.9,2.1-2.1c0-1.1-0.9-2.1-2.1-2.1h-18.5c-1.1,0-2.1,0.9-2.1,2.1
			C98.2,100.4,99.1,101.3,100.3,101.3z"/>
		<path fill="#5C6670" d="M135.2,142.4h-34.9c-1.1,0-2.1,0.9-2.1,2.1c0,1.1,0.9,2.1,2.1,2.1h34.9c1.1,0,2.1-0.9,2.1-2.1
			C137.2,143.3,136.3,142.4,135.2,142.4z"/>
		<path fill="#5C6670" d="M155.7,128h-14.4c-1.1,0-2.1,0.9-2.1,2.1s0.9,2.1,2.1,2.1h14.4c1.1,0,2.1-0.9,2.1-2.1S156.9,128,155.7,128
			z"/>
		<path fill="#5C6670" d="M100.3,117.7h10.3c1.1,0,2.1-0.9,2.1-2.1s-0.9-2.1-2.1-2.1h-10.3c-1.1,0-2.1,0.9-2.1,2.1
			S99.1,117.7,100.3,117.7z"/>
		<path fill="#5C6670" d="M131.1,117.7h14.4c1.1,0,2.1-0.9,2.1-2.1s-0.9-2.1-2.1-2.1h-14.4c-1.1,0-2.1,0.9-2.1,2.1
			S129.9,117.7,131.1,117.7z"/>
		<path fill="#5C6670" d="M118.8,115.7c0,0.5,0.2,1.1,0.6,1.5c0.4,0.4,0.9,0.6,1.5,0.6c0.5,0,1.1-0.2,1.5-0.6
			c0.4-0.4,0.6-0.9,0.6-1.5c0-0.5-0.2-1.1-0.6-1.5c-0.8-0.8-2.1-0.8-2.9,0C119,114.6,118.8,115.1,118.8,115.7z"/>
		<path fill="#5C6670" d="M110.5,128c-1.1,0-2.1,0.9-2.1,2.1s0.9,2.1,2.1,2.1h20.5c1.1,0,2.1-0.9,2.1-2.1s-0.9-2.1-2.1-2.1H110.5z"
			/>
		<path fill="#5C6670" d="M100.3,132.1c0.5,0,1.1-0.2,1.5-0.6c0.4-0.4,0.6-0.9,0.6-1.5c0-0.5-0.2-1.1-0.6-1.5
			c-0.8-0.8-2.2-0.8-2.9,0c-0.4,0.4-0.6,0.9-0.6,1.5c0,0.5,0.2,1.1,0.6,1.5C99.2,131.9,99.7,132.1,100.3,132.1z"/>
		<path fill="#5C6670" d="M155.7,156.8h-14.4c-1.1,0-2.1,0.9-2.1,2.1s0.9,2.1,2.1,2.1h14.4c1.1,0,2.1-0.9,2.1-2.1
			S156.9,156.8,155.7,156.8z"/>
		<path fill="#5C6670" d="M131.1,156.8h-20.5c-1.1,0-2.1,0.9-2.1,2.1s0.9,2.1,2.1,2.1h20.5c1.1,0,2.1-0.9,2.1-2.1
			S132.2,156.8,131.1,156.8z"/>
		<path fill="#5C6670" d="M98.8,157.3c-0.4,0.4-0.6,0.9-0.6,1.5c0,0.6,0.2,1.1,0.6,1.5c0.4,0.4,0.9,0.6,1.5,0.6
			c0.6,0,1.1-0.2,1.5-0.6c0.4-0.4,0.6-0.9,0.6-1.5c0-0.6-0.2-1.1-0.6-1.4C101,156.6,99.6,156.6,98.8,157.3z"/>
		<path fill="#5C6670" d="M155.7,117.7c0.5,0,1.1-0.2,1.5-0.6c0.4-0.4,0.6-0.9,0.6-1.5c0-0.5-0.2-1.1-0.6-1.5
			c-0.8-0.8-2.1-0.8-2.9,0c-0.4,0.4-0.6,0.9-0.6,1.5c0,0.5,0.2,1.1,0.6,1.5C154.7,117.5,155.2,117.7,155.7,117.7z"/>
		<path fill="#5C6670" d="M146.9,145.9c0.4-0.4,0.6-0.9,0.6-1.5c0-0.5-0.2-1.1-0.6-1.5c-0.8-0.8-2.2-0.8-2.9,0
			c-0.4,0.4-0.6,0.9-0.6,1.5c0,0.5,0.2,1.1,0.6,1.5c0.4,0.4,0.9,0.6,1.5,0.6S146.5,146.3,146.9,145.9z"/>
		<path fill="#5C6670" d="M154.3,143c-0.4,0.4-0.6,0.9-0.6,1.5c0,0.5,0.2,1.1,0.6,1.5c0.4,0.4,0.9,0.6,1.5,0.6
			c0.6,0,1.1-0.2,1.5-0.6c0.4-0.4,0.6-0.9,0.6-1.5c0-0.5-0.2-1.1-0.6-1.5C156.4,142.2,155,142.2,154.3,143z"/>
	</g>
</g>
</svg>
