<?xml version="1.0" encoding="utf-8"?>
<!-- Generator: Adobe Illustrator 19.1.0, SVG Export Plug-In . SVG Version: 6.00 Build 0)  -->
<svg version="1.1" baseProfile="tiny" id="Layer_1" xmlns="http://www.w3.org/2000/svg" xmlns:xlink="http://www.w3.org/1999/xlink"
	 x="0px" y="0px" viewBox="0 0 256 256" xml:space="preserve">
<circle fill="#F9F9F9" cx="128" cy="128" r="126"/>
<g>
	<circle fill="#E9EBEE" cx="74.3" cy="70.4" r="1.9"/>
	<circle fill="#E9EBEE" cx="86.3" cy="70.4" r="1.9"/>
	<circle fill="#E9EBEE" cx="98.1" cy="70.4" r="1.9"/>
	<circle fill="#E9EBEE" cx="110.1" cy="70.4" r="1.9"/>
	<circle fill="#E9EBEE" cx="122.1" cy="70.4" r="1.9"/>
	<circle fill="#E9EBEE" cx="133.9" cy="70.4" r="1.9"/>
	<circle fill="#E9EBEE" cx="145.9" cy="70.4" r="1.9"/>
	<circle fill="#E9EBEE" cx="157.9" cy="70.4" r="1.9"/>
	<circle fill="#E9EBEE" cx="169.7" cy="70.4" r="1.9"/>
	<circle fill="#E9EBEE" cx="181.7" cy="70.4" r="1.9"/>
	<circle fill="#E9EBEE" cx="74.3" cy="81.5" r="1.9"/>
	<circle fill="#E9EBEE" cx="86.3" cy="81.5" r="1.9"/>
	<circle fill="#E9EBEE" cx="98.1" cy="81.5" r="1.9"/>
	<circle fill="#E9EBEE" cx="110.1" cy="81.5" r="1.9"/>
	<circle fill="#E9EBEE" cx="122.1" cy="81.5" r="1.9"/>
	<circle fill="#E9EBEE" cx="133.9" cy="81.5" r="1.9"/>
	<circle fill="#E9EBEE" cx="145.9" cy="81.5" r="1.9"/>
	<circle fill="#E9EBEE" cx="157.9" cy="81.5" r="1.9"/>
	<circle fill="#E9EBEE" cx="169.7" cy="81.5" r="1.9"/>
	<circle fill="#E9EBEE" cx="181.7" cy="81.5" r="1.9"/>
	<circle fill="#E9EBEE" cx="74.3" cy="92.5" r="1.9"/>
	<circle fill="#E9EBEE" cx="86.3" cy="92.5" r="1.9"/>
	<circle fill="#E9EBEE" cx="98.1" cy="92.5" r="1.9"/>
	<circle fill="#E9EBEE" cx="110.1" cy="92.5" r="1.9"/>
	<circle fill="#E9EBEE" cx="122.1" cy="92.5" r="1.9"/>
	<circle fill="#E9EBEE" cx="133.9" cy="92.5" r="1.9"/>
	<circle fill="#E9EBEE" cx="145.9" cy="92.5" r="1.9"/>
	<circle fill="#E9EBEE" cx="157.9" cy="92.5" r="1.9"/>
	<circle fill="#E9EBEE" cx="169.7" cy="92.5" r="1.9"/>
	<circle fill="#E9EBEE" cx="181.7" cy="92.5" r="1.9"/>
	<circle fill="#E9EBEE" cx="74.3" cy="103.7" r="1.9"/>
	<circle fill="#E9EBEE" cx="86.3" cy="103.7" r="1.9"/>
	<circle fill="#E9EBEE" cx="98.1" cy="103.7" r="1.9"/>
	<circle fill="#E9EBEE" cx="110.1" cy="103.7" r="1.9"/>
	<circle fill="#E9EBEE" cx="122.1" cy="103.7" r="1.9"/>
	<circle fill="#E9EBEE" cx="133.9" cy="103.7" r="1.9"/>
	<circle fill="#E9EBEE" cx="145.9" cy="103.7" r="1.9"/>
	<circle fill="#E9EBEE" cx="157.9" cy="103.7" r="1.9"/>
	<circle fill="#E9EBEE" cx="169.7" cy="103.7" r="1.9"/>
	<circle fill="#E9EBEE" cx="181.7" cy="103.7" r="1.9"/>
	<circle fill="#E9EBEE" cx="74.3" cy="114.6" r="1.9"/>
	<circle fill="#E9EBEE" cx="86.3" cy="114.6" r="1.9"/>
	<circle fill="#E9EBEE" cx="98.1" cy="114.6" r="1.9"/>
	<circle fill="#E9EBEE" cx="110.1" cy="114.6" r="1.9"/>
	<circle fill="#E9EBEE" cx="122.1" cy="114.6" r="1.9"/>
	<circle fill="#E9EBEE" cx="133.9" cy="114.6" r="1.9"/>
	<circle fill="#E9EBEE" cx="145.9" cy="114.6" r="1.9"/>
	<circle fill="#E9EBEE" cx="157.9" cy="114.6" r="1.9"/>
	<circle fill="#E9EBEE" cx="169.7" cy="114.6" r="1.9"/>
	<circle fill="#E9EBEE" cx="181.7" cy="114.6" r="1.9"/>
	<circle fill="#E9EBEE" cx="74.3" cy="125.8" r="1.9"/>
	<circle fill="#E9EBEE" cx="86.3" cy="125.8" r="1.9"/>
	<circle fill="#E9EBEE" cx="98.1" cy="125.8" r="1.9"/>
	<circle fill="#E9EBEE" cx="110.1" cy="125.8" r="1.9"/>
	<circle fill="#E9EBEE" cx="122.1" cy="125.8" r="1.9"/>
	<circle fill="#E9EBEE" cx="133.9" cy="125.8" r="1.9"/>
	<circle fill="#E9EBEE" cx="145.9" cy="125.8" r="1.9"/>
	<circle fill="#E9EBEE" cx="157.9" cy="125.8" r="1.9"/>
	<circle fill="#E9EBEE" cx="169.7" cy="125.8" r="1.9"/>
	<circle fill="#E9EBEE" cx="181.7" cy="125.8" r="1.9"/>
	<circle fill="#E9EBEE" cx="74.3" cy="137" r="1.9"/>
	<circle fill="#E9EBEE" cx="86.3" cy="137" r="1.9"/>
	<circle fill="#E9EBEE" cx="98.1" cy="137" r="1.9"/>
	<circle fill="#E9EBEE" cx="110.1" cy="137" r="1.9"/>
	<circle fill="#E9EBEE" cx="122.1" cy="137" r="1.9"/>
	<circle fill="#E9EBEE" cx="133.9" cy="137" r="1.9"/>
	<circle fill="#E9EBEE" cx="145.9" cy="137" r="1.9"/>
	<circle fill="#E9EBEE" cx="157.9" cy="137" r="1.9"/>
	<circle fill="#E9EBEE" cx="169.7" cy="137" r="1.9"/>
	<circle fill="#E9EBEE" cx="181.7" cy="137" r="1.9"/>
	<circle fill="#E9EBEE" cx="74.3" cy="147.9" r="1.9"/>
	<circle fill="#E9EBEE" cx="86.3" cy="147.9" r="1.9"/>
	<circle fill="#E9EBEE" cx="98.1" cy="147.9" r="1.9"/>
	<circle fill="#E9EBEE" cx="110.1" cy="147.9" r="1.9"/>
	<circle fill="#E9EBEE" cx="122.1" cy="147.9" r="1.9"/>
	<circle fill="#E9EBEE" cx="133.9" cy="147.9" r="1.9"/>
	<circle fill="#E9EBEE" cx="145.9" cy="147.9" r="1.9"/>
	<circle fill="#E9EBEE" cx="157.9" cy="147.9" r="1.9"/>
	<circle fill="#E9EBEE" cx="169.7" cy="147.9" r="1.9"/>
	<circle fill="#E9EBEE" cx="181.7" cy="147.9" r="1.9"/>
	<circle fill="#E9EBEE" cx="74.3" cy="159.1" r="1.9"/>
	<circle fill="#E9EBEE" cx="86.3" cy="159.1" r="1.9"/>
	<circle fill="#E9EBEE" cx="98.1" cy="159.1" r="1.9"/>
	<circle fill="#E9EBEE" cx="110.1" cy="159.1" r="1.9"/>
	<circle fill="#E9EBEE" cx="122.1" cy="159.1" r="1.9"/>
	<circle fill="#E9EBEE" cx="133.9" cy="159.1" r="1.9"/>
	<circle fill="#E9EBEE" cx="145.9" cy="159.1" r="1.9"/>
	<circle fill="#E9EBEE" cx="157.9" cy="159.1" r="1.9"/>
	<circle fill="#E9EBEE" cx="169.7" cy="159.1" r="1.9"/>
	<circle fill="#E9EBEE" cx="181.7" cy="159.1" r="1.9"/>
	<circle fill="#E9EBEE" cx="74.3" cy="170" r="1.9"/>
	<circle fill="#E9EBEE" cx="86.3" cy="170" r="1.9"/>
	<circle fill="#E9EBEE" cx="98.1" cy="170" r="1.9"/>
	<circle fill="#E9EBEE" cx="110.1" cy="170" r="1.9"/>
	<circle fill="#E9EBEE" cx="122.1" cy="170" r="1.9"/>
	<circle fill="#E9EBEE" cx="133.9" cy="170" r="1.9"/>
	<circle fill="#E9EBEE" cx="145.9" cy="170" r="1.9"/>
	<circle fill="#E9EBEE" cx="157.9" cy="170" r="1.9"/>
	<circle fill="#E9EBEE" cx="169.7" cy="170" r="1.9"/>
	<circle fill="#E9EBEE" cx="181.7" cy="170" r="1.9"/>
</g>
<path fill="#719FA3" d="M193.3,184.4c0,1.7-1.5,3.2-3.2,3.2H65.8c-1.7,0-3.2-1.5-3.2-3.2l0,0c0-1.7,1.5-3.2,3.2-3.2h124.3
	C191.9,181.2,193.3,182.7,193.3,184.4L193.3,184.4z"/>
<path fill="#036089" d="M124.8,99.7c6.5,0,11.6,5.3,11.6,11.8V158c0,6.5-5.1,11.8-11.6,11.8l0,0c-6.5,0-11.6-5.3-11.6-11.8v-46.6
	C113.2,104.9,118.3,99.7,124.8,99.7L124.8,99.7z"/>
<path fill="#03406D" d="M112.8,111.5c0-6.5,5.3-11.8,11.8-11.8l0,0c6.5,0,11.8,5.3,11.8,11.8V158c0,6.5-5.3,11.8-11.8,11.8l0,0"/>
<path fill="#1C9AAF" d="M133.1,102c4.6,4.6,4.6,12,0,16.6L85,166.9c-4.6,4.6-12,4.6-16.6,0l0,0c-4.6-4.6-4.6-12,0-16.6l48.1-48.1
	C120.8,97.5,128.4,97.5,133.1,102L133.1,102z"/>
<path fill="#1589AD" d="M133.1,102L133.1,102c4.6,4.6,4.6,12,0,16.6L85,166.9c-4.6,4.6-12,4.6-16.6,0l0,0"/>
<path fill="#1C9AAF" d="M191.2,92.5l-36.9,7.2l6.5,6.5l-44.7,44.5c-4.6,4.6-4.6,12,0,16.6c4.6,4.6,12,4.6,16.6,0l44.5-44.5l6.5,6.5
	L191.2,92.5z"/>
<path fill="#1589AD" d="M116.2,167.3c4.6,4.6,12,4.6,16.6,0l44.5-44.5l6.5,6.5l7.4-36.9"/>
</svg>
