<?xml version="1.0" encoding="utf-8"?>
<!-- Generator: Adobe Illustrator 19.1.0, SVG Export Plug-In . SVG Version: 6.00 Build 0)  -->
<svg version="1.1" baseProfile="tiny" id="Layer_1" xmlns="http://www.w3.org/2000/svg" xmlns:xlink="http://www.w3.org/1999/xlink"
	 x="0px" y="0px" viewBox="0 0 256 256" xml:space="preserve">
<circle fill="#F9F9F9" cx="128" cy="128" r="126"/>
<g>
	<path fill="#3B5998" d="M128,2c69.6,0,126,56.4,126,126c0,69.6-56.4,126-126,126S2,197.6,2,128C2,58.4,58.4,2,128,2z"/>
	<path fill="#FFFFFF" d="M143.3,88.7h16.2v-24h-19.1v0.1c-23.1,0.8-27.9,13.8-28.3,27.5h0v12H96.4v23.5h15.7v63h23.7v-63h19.4
		l3.8-23.5h-23.2v-7.2C135.9,92.4,139,88.7,143.3,88.7z"/>
</g>
</svg>
