<?xml version="1.0" encoding="utf-8"?>
<!-- Generator: Adobe Illustrator 19.1.0, SVG Export Plug-In . SVG Version: 6.00 Build 0)  -->
<svg version="1.1" baseProfile="tiny" id="Layer_1" xmlns="http://www.w3.org/2000/svg" xmlns:xlink="http://www.w3.org/1999/xlink"
	 x="0px" y="0px" viewBox="0 0 256 256" xml:space="preserve">
<circle fill="#F9F9F9" cx="128" cy="128" r="126"/>
<path fill="#0E76A8" d="M128,2C58.4,2,2,58.4,2,128s56.4,126,126,126s126-56.4,126-126S197.6,2,128,2z M84.7,65
	c6.5,0,11.8,5.3,11.8,11.8c0,6.5-5.3,11.8-11.8,11.8c-6.5,0-11.8-5.3-11.8-11.8C72.9,70.3,78.2,65,84.7,65z M96.6,175.1H73V96.5
	h23.6V175.1z M191.1,175.1h-23.6v-42.9c0-8.8-2.6-17.6-12.9-17.6c-10.3,0-18.6,8.8-18.6,17.8v42.7h-23.7V96.2H136v10.9
	c7.3-9.2,17.5-13.4,29-13.4c11.5,0,26.1,5.7,26.1,36.7V175.1z"/>
</svg>
