<?xml version="1.0" encoding="utf-8"?>
<!-- Generator: Adobe Illustrator 19.1.0, SVG Export Plug-In . SVG Version: 6.00 Build 0)  -->
<svg version="1.1" baseProfile="tiny" id="Layer_1" xmlns="http://www.w3.org/2000/svg" xmlns:xlink="http://www.w3.org/1999/xlink"
	 x="0px" y="0px" viewBox="0 0 256 256" xml:space="preserve">
<circle fill="#F9F9F9" cx="128" cy="128" r="126"/>
<g>
	<path fill="#E0E0D3" d="M86.2,68.4c-2.2,0-4,1.8-4,4l0,112.1c0,2.2,1.6,3.2,3.6,2.2l4.3-2.2c2-1,5.2-1,7.2,0l4.3,2.2
		c2,1,5.2,1,7.2,0l4.3-2.2c2-1,5.2-1,7.2,0l4.3,2.2c2,1,5.2,1,7.2,0l4.3-2.2c2-1,5.2-1,7.2,0l4.3,2.2c2,1,5.2,1,7.2,0l4.3-2.2
		c2-1,5.2-1,7.2,0l4.3,2.2c2,1,3.6,0,3.6-2.2V72.5c0-2.2-1.8-4-4-4H86.2z"/>
	<g>
		<path fill="#5C6670" d="M139.1,85.9H94.8c-1.1,0-2-0.9-2-2c0-1.1,0.9-2,2-2h44.3c1.1,0,2,0.9,2,2
			C141.1,84.9,140.2,85.9,139.1,85.9z"/>
		<path fill="#5C6670" d="M123.1,97.1H94.8c-1.1,0-2-0.9-2-2c0-1.1,0.9-2,2-2h28.3c1.1,0,2,0.9,2,2
			C125.2,96.2,124.3,97.1,123.1,97.1z"/>
		<path fill="#5C6670" d="M139.1,108.4H94.8c-1.1,0-2-0.9-2-2c0-1.1,0.9-2,2-2h44.3c1.1,0,2,0.9,2,2
			C141.1,107.5,140.2,108.4,139.1,108.4z"/>
		<path fill="#5C6670" d="M123.1,119.7H94.8c-1.1,0-2-0.9-2-2c0-1.1,0.9-2,2-2h28.3c1.1,0,2,0.9,2,2
			C125.2,118.8,124.3,119.7,123.1,119.7z"/>
		<path fill="#5C6670" d="M110.6,131H94.8c-1.1,0-2-0.9-2-2c0-1.1,0.9-2,2-2h15.8c1.1,0,2,0.9,2,2C112.7,130.1,111.8,131,110.6,131z
			"/>
		<path fill="#5C6670" d="M123.1,142.3H94.8c-1.1,0-2-0.9-2-2c0-1.1,0.9-2,2-2h28.3c1.1,0,2,0.9,2,2
			C125.2,141.4,124.3,142.3,123.1,142.3z"/>
	</g>
	<g>
		<path fill="#333E48" d="M161.4,85.9h-8.7c-1.1,0-2-0.9-2-2c0-1.1,0.9-2,2-2h8.7c1.1,0,2,0.9,2,2C163.4,84.9,162.5,85.9,161.4,85.9
			z"/>
		<path fill="#333E48" d="M161.4,97.1h-8.7c-1.1,0-2-0.9-2-2c0-1.1,0.9-2,2-2h8.7c1.1,0,2,0.9,2,2C163.4,96.2,162.5,97.1,161.4,97.1
			z"/>
		<path fill="#333E48" d="M161.4,108.4h-8.7c-1.1,0-2-0.9-2-2c0-1.1,0.9-2,2-2h8.7c1.1,0,2,0.9,2,2
			C163.4,107.5,162.5,108.4,161.4,108.4z"/>
		<path fill="#333E48" d="M161.4,119.7h-8.7c-1.1,0-2-0.9-2-2c0-1.1,0.9-2,2-2h8.7c1.1,0,2,0.9,2,2
			C163.4,118.8,162.5,119.7,161.4,119.7z"/>
		<path fill="#333E48" d="M161.4,131h-8.7c-1.1,0-2-0.9-2-2c0-1.1,0.9-2,2-2h8.7c1.1,0,2,0.9,2,2C163.4,130.1,162.5,131,161.4,131z"
			/>
		<path fill="#333E48" d="M161.4,142.3h-8.7c-1.1,0-2-0.9-2-2c0-1.1,0.9-2,2-2h8.7c1.1,0,2,0.9,2,2
			C163.4,141.4,162.5,142.3,161.4,142.3z"/>
		<path fill="#333E48" d="M157.2,152.4c0.7,0,1.2,0.5,1.2,1.2v0.3c1.3,0.2,2.4,0.6,3.4,1.1c0.4,0.3,0.8,0.7,0.8,1.4
			c0,0.9-0.7,1.6-1.6,1.6c-0.3,0-0.6-0.1-0.8-0.2c-0.7-0.4-1.3-0.6-2-0.8v3.6c3.6,1,5.1,2.4,5.1,5.1c0,2.6-2,4.3-5,4.7v1.3
			c0,0.7-0.5,1.2-1.2,1.2c-0.7,0-1.2-0.5-1.2-1.2v-1.3c-1.7-0.2-3.3-0.8-4.7-1.7c-0.5-0.3-0.8-0.8-0.8-1.4c0-0.9,0.7-1.6,1.6-1.6
			c0.3,0,0.6,0.1,0.9,0.3c1,0.6,1.9,1.1,3,1.3v-3.8c-3.4-0.9-5.1-2.2-5.1-5c0-2.6,2-4.3,5-4.6v-0.3C156,153,156.5,152.4,157.2,152.4
			z M156.1,160.1v-3.2c-1.1,0.2-1.6,0.7-1.6,1.5C154.5,159.1,154.8,159.6,156.1,160.1z M158.3,164.2v3.3c1.1-0.2,1.7-0.7,1.7-1.5
			C160,165.2,159.6,164.6,158.3,164.2z"/>
	</g>
	<rect x="92.5" y="156.5" fill="#5C6670" width="43.1" height="12.7"/>
</g>
</svg>
