<?xml version="1.0" encoding="utf-8"?>
<!-- Generator: Adobe Illustrator 19.1.0, SVG Export Plug-In . SVG Version: 6.00 Build 0)  -->
<svg version="1.1" baseProfile="tiny" id="Layer_1" xmlns="http://www.w3.org/2000/svg" xmlns:xlink="http://www.w3.org/1999/xlink"
	 x="0px" y="0px" viewBox="0 0 256 256" xml:space="preserve">
<circle fill="#F9F9F9" cx="128" cy="128" r="126"/>
<g>
	<g>
		<rect x="153.1" y="110.4" fill="#5C546A" width="12.6" height="55.2"/>
	</g>
	<g>
		<path fill="#5C546A" d="M198.3,170.7H57.7c-2.8,0-5-2.2-5-5v-5h150.6v5C203.3,168.4,201.1,170.7,198.3,170.7z"/>
	</g>
	<g>
		<path fill="#FF4F19" d="M202.1,125.3l-24.4-34.1c-0.5-0.6-1.2-0.9-1.9-0.9h-10c-1.4,0-2.5,1.1-2.5,2.5v67.8c0,1.4,1.1,2.5,2.5,2.5
			h35.1c4.2,0,7.5-3.4,7.5-7.5v-22.9C208.3,129,205.6,125.9,202.1,125.3z"/>
	</g>
	<g>
		<path fill="#5C546A" d="M187.8,92.9c3.2,0,6.1,2.1,7.1,5.1l7.1,27.3c0,0-18.1-3.7-23.4-5.1c-3.3-0.9-5.5-3.9-5.5-7.3V92.9H187.8z"
			/>
	</g>
	<g>
		<g>
			<path fill="#8A8895" d="M173.2,95.4c-1.4,0-2.5-1.1-2.5-2.5V80.9c0-1.3-0.5-2.6-1.5-3.6l-2.8-2.8c-1-1-1-2.6,0-3.6s2.6-1,3.6,0
				l2.8,2.8c1.9,1.9,2.9,4.4,2.9,7.1v11.9C175.7,94.2,174.6,95.4,173.2,95.4z"/>
		</g>
	</g>
	<g>
		<path fill="#527991" d="M150.6,80.3H55.2c-4.2,0-7.5,3.4-7.5,7.5v67.8c0,4.2,3.4,7.5,7.5,7.5c0,0,99,0,100.4,0s2.5-1.1,2.5-2.5
			V87.8C158.1,83.7,154.7,80.3,150.6,80.3z"/>
	</g>
	<g>
		<path fill="#5D647F" d="M47.7,155.6c0,4.2,3.4,7.5,7.5,7.5h100.4c1.4,0,2.5-1.1,2.5-2.5v-17.6H47.7V155.6z"/>
	</g>
	<g>
		<path fill="#8A8895" d="M125.5,175.7h-20.1c-2.8,0-5-2.2-5-5v-5c0-2.8,2.2-5,5-5h20.1c2.8,0,5,2.2,5,5v5
			C130.5,173.5,128.3,175.7,125.5,175.7z"/>
	</g>
	<g>
		<g>
			<path fill="#5C546A" d="M107.9,170.7c-0.7,0-1.3-0.3-1.8-0.7c-0.5-0.5-0.7-1.1-0.7-1.8c0-0.7,0.3-1.3,0.7-1.8
				c1-0.9,2.6-0.9,3.6,0c0.5,0.5,0.7,1.1,0.7,1.8c0,0.7-0.3,1.3-0.8,1.8C109.2,170.4,108.6,170.7,107.9,170.7z"/>
		</g>
	</g>
	<g>
		<path fill="#FFD100" d="M199.5,143.1c-2.1,0-3.8,1.7-3.8,3.8c0,2.1,1.7,3.8,3.8,3.8h3.8v-7.5H199.5z"/>
	</g>
	<g>
		<g>
			<circle fill="#5C546A" cx="77.8" cy="168.2" r="17.6"/>
		</g>
		<g>
			<circle fill="#8A8895" cx="77.8" cy="168.2" r="10"/>
		</g>
	</g>
	<g>
		<g>
			<circle fill="#5C546A" cx="178.2" cy="168.2" r="17.6"/>
		</g>
		<g>
			<circle fill="#8A8895" cx="178.2" cy="168.2" r="10"/>
		</g>
	</g>
	<g>
		<rect x="203.3" y="143.1" fill="#FFFFFF" width="5" height="7.5"/>
	</g>
	<g>
		<path fill="#E7001E" d="M195.8,90.3h-30.1c-1.4,0-2.5,1.1-2.5,2.5v2.5h32.6c1.4,0,2.5-1.1,2.5-2.5
			C198.3,91.5,197.2,90.3,195.8,90.3z"/>
	</g>
</g>
</svg>
