<?xml version="1.0" encoding="utf-8"?>
<!-- Generator: Adobe Illustrator 19.1.0, SVG Export Plug-In . SVG Version: 6.00 Build 0)  -->
<svg version="1.1" baseProfile="tiny" id="Layer_1" xmlns="http://www.w3.org/2000/svg" xmlns:xlink="http://www.w3.org/1999/xlink"
	 x="0px" y="0px" viewBox="0 0 256 256" xml:space="preserve">
<circle fill="#F9F9F9" cx="128" cy="128" r="126"/>
<g>
	<path fill="#F0C419" d="M128.1,138.3L128.1,138.3c-16.4,0-29.7-13.3-29.7-29.7V70.9c0-1.3,1-2.3,2.3-2.3h54.8c1.3,0,2.3,1,2.3,2.3
		v37.7C157.8,124.9,144.5,138.3,128.1,138.3z"/>
	<path fill="#F0C419" d="M153.7,187.5h-51.3l0,0c0-6.8,5.5-12.3,12.3-12.3h26.7C148.2,175.2,153.7,180.7,153.7,187.5L153.7,187.5z"
		/>
	<path fill="#F29C1F" d="M135.3,147v-9.6c-2.3,0.6-4.7,0.9-7.2,0.9c-2.5,0-4.9-0.3-7.2-0.9v9.6c-2.5,2.1-4.1,5.2-4.1,8.7
		s1.6,6.6,4.1,8.7v10.8h14.4v-10.8c2.5-2.1,4.1-5.2,4.1-8.7C139.4,152.2,137.8,149,135.3,147z"/>
	<polygon fill="#F3D55B" points="128.3,77.9 135.7,92.8 152.1,95.2 140.2,106.8 143,123.2 128.3,115.4 113.6,123.2 116.4,106.8
		104.5,95.2 121,92.8 	"/>
	<path fill="#F29C1F" d="M98.4,108.5V73.1c-3.3-1.6-6.6-2.5-9.8-2.5c-7.7,0-12.1,4.7-12.2,4.8c-7.3,8.2-6.3,21.2,2.3,29.1l30,27V131
		C102.4,125.5,98.4,117.5,98.4,108.5z M81.4,101.5c-6.9-6.4-7.8-16.9-2-23.3c0,0,3.4-3.5,9.2-3.5c3.1,0,6.4,1,9.8,3v30.8
		c0,3.3,0.5,6.6,1.5,9.6L81.4,101.5z"/>
	<path fill="#F29C1F" d="M179.6,75.6c0,0-4.5-4.8-12.2-4.8c-3.1,0-6.4,0.8-9.6,2.4v4.7c3.3-1.9,6.5-2.9,9.6-2.9
		c5.7,0,9.1,3.4,9.1,3.4c5.8,6.5,4.9,17-2,23.4l-18.4,16.6c0-0.1,0-0.1,0-0.2c-1.7,5.1-4.8,9.6-8.8,13v0.6l30-27.1
		C185.9,96.8,186.9,83.7,179.6,75.6z"/>
</g>
</svg>
