<?xml version="1.0" encoding="utf-8"?>
<!-- Generator: Adobe Illustrator 19.1.0, SVG Export Plug-In . SVG Version: 6.00 Build 0)  -->
<svg version="1.1" baseProfile="tiny" id="Layer_1" xmlns="http://www.w3.org/2000/svg" xmlns:xlink="http://www.w3.org/1999/xlink"
	 x="0px" y="0px" viewBox="0 0 256 256" xml:space="preserve">
<circle fill="#F9F9F9" cx="128" cy="128" r="126"/>
<g>
	<path fill="#E0E0D3" d="M176.5,72.5c0-2.2-1.8-4.1-4.1-4.1H83.6c-2.2,0-4.1,1.8-4.1,4.1v111.1c0,2.2,1.8,4.1,4.1,4.1h88.9
		c2.2,0,4.1-1.8,4.1-4.1V72.5z"/>
	<path fill="#333E48" d="M165.1,87.6h-41.2c-1.1,0-2-0.9-2-2c0-1.1,0.9-2,2-2h41.2c1.1,0,2,0.9,2,2
		C167.1,86.7,166.2,87.6,165.1,87.6z"/>
	<path fill="#5C6670" d="M152.9,96.8h-29c-1.1,0-2-0.9-2-2c0-1.1,0.9-2,2-2h29c1.1,0,2,0.9,2,2C155,95.9,154,96.8,152.9,96.8z"/>
	<circle fill="#0055B8" cx="102.6" cy="90.2" r="13.8"/>
	<path fill="#FFFFFF" d="M100,97c-0.5,0-1.1-0.2-1.4-0.6l-4.4-4.4c-0.8-0.8-0.8-2.1,0-2.9c0.8-0.8,2.1-0.8,2.9,0l3,3l7.6-7.6
		c0.8-0.8,2.1-0.8,2.9,0c0.8,0.8,0.8,2.1,0,2.9l-9.1,9.1C101,96.8,100.5,97,100,97z"/>
	<path fill="#333E48" d="M165.1,125.4h-41.2c-1.1,0-2-0.9-2-2s0.9-2,2-2h41.2c1.1,0,2,0.9,2,2C167.1,124.5,166.2,125.4,165.1,125.4z
		"/>
	<path fill="#5C6670" d="M152.9,134.6h-29c-1.1,0-2-0.9-2-2c0-1.1,0.9-2,2-2h29c1.1,0,2,0.9,2,2C155,133.7,154,134.6,152.9,134.6z"
		/>
	<circle fill="#D49000" cx="102.6" cy="128" r="13.8"/>
	<path fill="#333E48" d="M165.1,163.2h-41.2c-1.1,0-2-0.9-2-2c0-1.1,0.9-2,2-2h41.2c1.1,0,2,0.9,2,2
		C167.1,162.3,166.2,163.2,165.1,163.2z"/>
	<path fill="#5C6670" d="M152.9,172.4h-29c-1.1,0-2-0.9-2-2c0-1.1,0.9-2,2-2h29c1.1,0,2,0.9,2,2C155,171.5,154,172.4,152.9,172.4z"
		/>
	<circle fill="#D49000" cx="102.6" cy="165.8" r="13.8"/>
</g>
</svg>
