<?xml version="1.0" encoding="utf-8"?>
<!-- Generator: Adobe Illustrator 19.1.0, SVG Export Plug-In . SVG Version: 6.00 Build 0)  -->
<svg version="1.1" baseProfile="tiny" id="Layer_1" xmlns="http://www.w3.org/2000/svg" xmlns:xlink="http://www.w3.org/1999/xlink"
	 x="0px" y="0px" viewBox="0 0 256 256" xml:space="preserve">
<circle fill="#F9F9F9" cx="128" cy="128" r="126"/>
<g>
	<g>
		<path fill="#768989" d="M94.3,168c0,1.4-1.1,2.5-2.5,2.5H81.1c-1.4,0-2.5-1.1-2.5-2.5v-5.7c0-1.4,1.1-2.5,2.5-2.5h10.7
			c1.4,0,2.5,1.1,2.5,2.5L94.3,168L94.3,168z"/>
		<path fill="#768989" d="M188.3,168c0,1.4-1.1,2.5-2.5,2.5h-10.7c-1.4,0-2.5-1.1-2.5-2.5v-5.7c0-1.4,1.1-2.5,2.5-2.5h10.7
			c1.4,0,2.5,1.1,2.5,2.5V168z"/>
	</g>
	<path fill="#C17E52" d="M135.1,147.3c0,1.1-0.9,2-2,2H100c-1.1,0-2-0.9-2-2v-33.1c0-1.1,0.9-2,2-2h33.1c1.1,0,2,0.9,2,2V147.3z"/>
	<path fill="#B56841" d="M135.1,114.2v33.1c0,1.1-0.9,2-2,2H100"/>
	<path fill="#A86743" d="M98,114.2c0-1.1,0.9-2,2-2h33.1c1.1,0,2,0.9,2,2v33.1c0,1.1-0.9,2-2,2"/>
	<path fill="#C17E52" d="M177.7,147.3c0,1.1-0.9,2-2,2h-33.1c-1.1,0-2-0.9-2-2v-33.1c0-1.1,0.9-2,2-2h33.1c1.1,0,2,0.9,2,2V147.3z"
		/>
	<path fill="#B56841" d="M177.7,114.2v33.1c0,1.1-0.9,2-2,2h-33.1"/>
	<path fill="#A86743" d="M140.6,114.2c0-1.1,0.9-2,2-2h33.1c1.1,0,2,0.9,2,2v33.1c0,1.1-0.9,2-2,2"/>
	<path fill="#C17E52" d="M155,105.4c0,1.1-0.9,2-2,2h-33.1c-1.1,0-2-0.9-2-2V72.3c0-1.1,0.9-2,2-2H153c1.1,0,2,0.9,2,2V105.4z"/>
	<path fill="#B56841" d="M155,72.3v33.1c0,1.1-0.9,2-2,2h-33.1"/>
	<path fill="#A86743" d="M117.9,72.3c0-1.1,0.9-2,2-2H153c1.1,0,2,0.9,2,2v33.1c0,1.1-0.9,2-2,2"/>
	<path fill="#FF7F00" d="M83.1,85.1c-2,0-3.7,1.7-3.7,3.7v59.5c0,2,1.7,3.7,3.7,3.7c2,0,3.7-1.7,3.7-3.7V88.8
		C86.8,86.8,85.1,85.1,83.1,85.1z"/>
	<g>
		<path fill="#E56505" d="M83.1,85.1c-2,0-3.7,1.7-3.7,3.7V112c0,2,1.7,3.7,3.7,3.7c2,0,3.7-1.7,3.7-3.7V88.8
			C86.8,86.8,85.1,85.1,83.1,85.1z"/>
		<path fill="#E56505" d="M64.1,69.7c-1.4,1.4-1.4,3.8,0,5.2l16.4,16.4c1.4,1.4,3.8,1.4,5.2,0c1.4-1.4,1.4-3.8,0-5.2L69.3,69.7
			C67.9,68.3,65.5,68.3,64.1,69.7z"/>
	</g>
	<path fill="#93A4A5" d="M193,162.4c0,1.4-1.1,2.5-2.5,2.5H76.4c-1.4,0-2.5-1.1-2.5-2.5v-11.9c0-1.4,1.1-2.5,2.5-2.5h114.1
		c1.4,0,2.5,1.1,2.5,2.5V162.4z"/>
	<path fill="#A9BFBF" d="M190.5,148H76.4c-1.4,0-2.5,1.1-2.5,2.5v1.2c0,1.4,1.1,2.5,2.5,2.5h114.1c1.4,0,2.5-1.1,2.5-2.5v-1.2
		C193,149.1,191.9,148,190.5,148z"/>
	<path fill="#FFC41F" d="M101.7,173.3c0,5.3-4.3,9.6-9.6,9.6c-5.3,0-9.6-4.3-9.6-9.6c0-5.3,4.3-9.6,9.6-9.6S101.7,168,101.7,173.3z"
		/>
	<path fill="#FFA522" d="M92.1,163.7c5.3,0,9.6,4.3,9.6,9.6c0,5.3-4.3,9.6-9.6,9.6"/>
	<path fill="#1A3D5B" d="M92.1,187.4c-7.8,0-14.1-6.3-14.1-14.1c0-7.8,6.3-14.1,14.1-14.1s14.1,6.3,14.1,14.1
		C106.2,181.1,99.8,187.4,92.1,187.4z M92.1,168.2c-2.8,0-5.1,2.3-5.1,5.1c0,2.8,2.3,5.1,5.1,5.1c2.8,0,5.1-2.3,5.1-5.1
		C97.1,170.5,94.9,168.2,92.1,168.2z"/>
	<circle fill="#FFC41F" cx="174.9" cy="173.3" r="9.6"/>
	<path fill="#FFA522" d="M168.1,166.5c3.7-3.7,9.8-3.7,13.6,0c3.8,3.7,3.7,9.8,0,13.6"/>
	<path fill="#1A3D5B" d="M184.9,183.3c-5.5,5.5-14.5,5.5-20,0c-5.5-5.5-5.5-14.4,0-19.9c5.5-5.5,14.5-5.5,20,0
		C190.4,168.8,190.4,177.8,184.9,183.3z M171.3,169.7c-2,2-2,5.2,0,7.2c2,2,5.2,2,7.2,0c2-2,2-5.2,0-7.2
		C176.5,167.7,173.3,167.7,171.3,169.7z"/>
</g>
</svg>
