<?xml version="1.0" encoding="utf-8"?>
<!-- Generator: Adobe Illustrator 19.1.0, SVG Export Plug-In . SVG Version: 6.00 Build 0)  -->
<svg version="1.1" baseProfile="tiny" id="Layer_1" xmlns="http://www.w3.org/2000/svg" xmlns:xlink="http://www.w3.org/1999/xlink"
	 x="0px" y="0px" viewBox="0 0 256 256" xml:space="preserve">
<circle fill="#F9F9F9" cx="128" cy="128" r="126"/>
<g>
	<path fill="#008DB3" d="M197,116.3l-7.6-5.2l-6.9-30.2c-1.7-7.2-8.1-12.4-15.6-12.4H89.1c-7.4,0-13.9,5.1-15.6,12.4L66.6,111
		l-7.6,5.2c-5,3.5-8,9.2-8,15.2v27.2c0,5,4.1,9.1,9.1,9.1h135.7c5,0,9.1-4.1,9.1-9.1v-27.2C205,125.4,202,119.7,197,116.3z"/>
	<path fill="#76CDCE" d="M180.6,111H75.4l6.5-28.3c0.8-3.4,3.7-5.7,7.2-5.7h77.9c3.4,0,6.4,2.3,7.2,5.7L180.6,111z"/>
	<g>
		<g>
			<path fill="#FFFFFF" d="M63.3,133.7c0,6.7,5.4,12.1,12.1,12.1c6.7,0,12.1-5.4,12.1-12.1H63.3z"/>
		</g>
		<g>
			<path fill="#FFFFFF" d="M168.6,133.7c0,6.7,5.4,12.1,12.1,12.1c6.7,0,12.1-5.4,12.1-12.1H168.6z"/>
		</g>
	</g>
	<path fill="#CCCCCC" d="M201.7,154.8H54.3c-3.6,0-6.5,2.9-6.5,6.5l0,0c0,3.6,2.9,6.5,6.5,6.5h147.4c3.6,0,6.5-2.9,6.5-6.5l0,0
		C208.2,157.7,205.3,154.8,201.7,154.8z"/>
	<path fill="#666666" d="M59.6,167.8v15.9c0,2.1,1.7,3.8,3.8,3.8H78c2.1,0,3.8-1.7,3.8-3.8v-15.9"/>
	<path fill="#666666" d="M174.2,167.8v15.9c0,2.1,1.7,3.8,3.8,3.8h14.5c2.1,0,3.8-1.7,3.8-3.8v-15.9"/>
	<path fill="#4D4D4D" d="M153.2,167.8v1.9c0,4.7-3.8,8.5-8.5,8.5h-27.6c-4.7,0-8.5-3.8-8.5-8.5v-1.9"/>
	<path fill="#96E0DE" d="M180.6,111h-36.2l-34-34h56.6c3.4,0,6.4,2.3,7.2,5.7L180.6,111z"/>
	<rect x="100" y="133.7" fill="#037893" width="59.1" height="4.7"/>
	<rect x="100" y="141.6" fill="#037893" width="59.1" height="4.7"/>
</g>
</svg>
