<?xml version="1.0" encoding="utf-8"?>
<!-- Generator: Adobe Illustrator 19.1.0, SVG Export Plug-In . SVG Version: 6.00 Build 0)  -->
<svg version="1.1" baseProfile="tiny" id="Layer_1" xmlns="http://www.w3.org/2000/svg" xmlns:xlink="http://www.w3.org/1999/xlink"
	 x="0px" y="0px" viewBox="0 0 256 256" xml:space="preserve">
<circle fill="#222222" cx="128" cy="128" r="126"/>
<g>
	<path fill="#E5E5DA" d="M203.9,68.4l-10.3,10.3c-0.5,0.5-1.2,0.8-2,0.8s-1.4-0.3-2-0.8c-1.1-1.1-1.1-2.8,0-3.9l6.4-6.4h-11.6
		l-10.3,10.3c-0.5,0.5-1.2,0.8-2,0.8s-1.4-0.3-2-0.8c-1.1-1.1-1.1-2.8,0-3.9l6.4-6.4h-11.6l-10.3,10.3c-0.5,0.5-1.2,0.8-2,0.8
		s-1.4-0.3-2-0.8c-1.1-1.1-1.1-2.8,0-3.9l6.4-6.4h-11.6l-10.3,10.3c-0.5,0.5-1.2,0.8-2,0.8c-0.7,0-1.4-0.3-2-0.8
		c-1.1-1.1-1.1-2.8,0-3.9l6.4-6.4h-11.6l-10.3,10.3c-0.5,0.5-1.2,0.8-2,0.8c-0.7,0-1.4-0.3-2-0.8c-1.1-1.1-1.1-2.8,0-3.9l6.4-6.4
		H107L96.7,78.7c-0.5,0.5-1.2,0.8-2,0.8s-1.4-0.3-2-0.8c-1.1-1.1-1.1-2.8,0-3.9l6.4-6.4H87.6L77.3,78.7c-0.5,0.5-1.2,0.8-2,0.8
		c-0.7,0-1.4-0.3-2-0.8c-1.1-1.1-1.1-2.8,0-3.9l6.4-6.4H68.2L57.9,78.7c-0.5,0.5-1.2,0.8-2,0.8c-0.7,0-1.4-0.3-2-0.8
		c-1.1-1.1-1.1-2.8,0-3.9l6.4-6.4H47.7v0.3v118.8h4.4l10.3-10.3c1.1-1.1,2.8-1.1,3.9,0s1.1,2.8,0,3.9l-6.4,6.4h11.6l10.3-10.3
		c1.1-1.1,2.8-1.1,3.9,0s1.1,2.8,0,3.9l-6.4,6.4h11.6l10.3-10.3c1.1-1.1,2.8-1.1,3.9,0c1.1,1.1,1.1,2.8,0,3.9l-6.4,6.4h11.6
		l10.3-10.3c1.1-1.1,2.8-1.1,3.9,0c1.1,1.1,1.1,2.8,0,3.9l-6.4,6.4h11.6l10.3-10.3c1.1-1.1,2.8-1.1,3.9,0c1.1,1.1,1.1,2.8,0,3.9
		l-6.4,6.4H149l10.3-10.3c1.1-1.1,2.8-1.1,3.9,0c1.1,1.1,1.1,2.8,0,3.9l-6.4,6.4h11.6l10.3-10.3c1.1-1.1,2.8-1.1,3.9,0
		s1.1,2.8,0,3.9l-6.4,6.4h11.6l10.3-10.3c1.1-1.1,2.8-1.1,3.9,0c1.1,1.1,1.1,2.8,0,3.9l-6.4,6.4h12.7V68.7v-0.3H203.9z"/>
	<path fill="#7FB1C8" d="M66.2,177.3c-1.1-1.1-2.8-1.1-3.9,0l-10.3,10.3h7.8l6.4-6.4C67.3,180.1,67.3,178.4,66.2,177.3z"/>
	<path fill="#E59677" d="M85.6,177.3c-1.1-1.1-2.8-1.1-3.9,0l-10.3,10.3h7.8l6.4-6.4C86.7,180.1,86.7,178.4,85.6,177.3z"/>
	<path fill="#7FB1C8" d="M105,177.3c-1.1-1.1-2.8-1.1-3.9,0l-10.3,10.3h7.8l6.4-6.4C106.1,180.1,106.1,178.4,105,177.3z"/>
	<path fill="#E59677" d="M124.4,177.3c-1.1-1.1-2.8-1.1-3.9,0l-10.3,10.3h7.8l6.4-6.4C125.5,180.1,125.5,178.4,124.4,177.3z"/>
	<path fill="#7FB1C8" d="M143.8,177.3c-1.1-1.1-2.8-1.1-3.9,0l-10.3,10.3h7.8l6.4-6.4C144.9,180.1,144.9,178.4,143.8,177.3z"/>
	<path fill="#E59677" d="M163.2,177.3c-1.1-1.1-2.8-1.1-3.9,0L149,187.6h7.8l6.4-6.4C164.3,180.1,164.3,178.4,163.2,177.3z"/>
	<path fill="#7FB1C8" d="M182.6,177.3c-1.1-1.1-2.8-1.1-3.9,0l-10.3,10.3h7.8l6.4-6.4C183.7,180.1,183.7,178.4,182.6,177.3z"/>
	<path fill="#E59677" d="M202,177.3c-1.1-1.1-2.8-1.1-3.9,0l-10.3,10.3h7.8l6.4-6.4C203.1,180.1,203.1,178.4,202,177.3z"/>
	<path fill="#7FB1C8" d="M54,78.7c0.5,0.5,1.2,0.8,2,0.8c0.7,0,1.4-0.3,2-0.8l10.3-10.3h-7.8L54,74.8C52.9,75.9,52.9,77.6,54,78.7z"
		/>
	<path fill="#E59677" d="M73.4,78.7c0.5,0.5,1.2,0.8,2,0.8c0.7,0,1.4-0.3,2-0.8l10.3-10.3h-7.8l-6.4,6.4
		C72.3,75.9,72.3,77.6,73.4,78.7z"/>
	<path fill="#7FB1C8" d="M92.8,78.7c0.5,0.5,1.2,0.8,2,0.8s1.4-0.3,2-0.8L107,68.4h-7.8l-6.4,6.4C91.7,75.9,91.7,77.6,92.8,78.7z"/>
	<path fill="#E59677" d="M112.2,78.7c0.5,0.5,1.2,0.8,2,0.8c0.7,0,1.4-0.3,2-0.8l10.3-10.3h-7.8l-6.4,6.4
		C111.1,75.9,111.1,77.6,112.2,78.7z"/>
	<path fill="#7FB1C8" d="M131.6,78.7c0.5,0.5,1.2,0.8,2,0.8c0.7,0,1.4-0.3,2-0.8l10.3-10.3h-7.8l-6.4,6.4
		C130.5,75.9,130.5,77.6,131.6,78.7z"/>
	<path fill="#E59677" d="M151,78.7c0.5,0.5,1.2,0.8,2,0.8s1.4-0.3,2-0.8l10.3-10.3h-7.8l-6.4,6.4C149.9,75.9,149.9,77.6,151,78.7z"
		/>
	<path fill="#7FB1C8" d="M170.4,78.7c0.5,0.5,1.2,0.8,2,0.8s1.4-0.3,2-0.8l10.3-10.3h-7.8l-6.4,6.4
		C169.3,75.9,169.3,77.6,170.4,78.7z"/>
	<path fill="#E59677" d="M189.8,78.7c0.5,0.5,1.2,0.8,2,0.8s1.4-0.3,2-0.8l10.3-10.3h-7.8l-6.4,6.4
		C188.7,75.9,188.7,77.6,189.8,78.7z"/>
	<rect x="166.8" y="101.7" fill="#D75A4A" width="22.2" height="22.2"/>
	<path fill="#C4C2A5" d="M122.5,118.3H67.1c-1.5,0-2.8-1.2-2.8-2.8c0-1.5,1.2-2.8,2.8-2.8h55.4c1.5,0,2.8,1.2,2.8,2.8
		C125.2,117.1,124,118.3,122.5,118.3z"/>
	<path fill="#C4C2A5" d="M122.5,132.2H67.1c-1.5,0-2.8-1.2-2.8-2.8c0-1.5,1.2-2.8,2.8-2.8h55.4c1.5,0,2.8,1.2,2.8,2.8
		C125.2,130.9,124,132.2,122.5,132.2z"/>
	<path fill="#C4C2A5" d="M89.2,104.5H67.1c-1.5,0-2.8-1.2-2.8-2.8c0-1.5,1.2-2.8,2.8-2.8h22.2c1.5,0,2.8,1.2,2.8,2.8
		C92,103.2,90.7,104.5,89.2,104.5z"/>
</g>
</svg>
