<?xml version="1.0" encoding="utf-8"?>
<!-- Generator: Adobe Illustrator 19.1.0, SVG Export Plug-In . SVG Version: 6.00 Build 0)  -->
<svg version="1.1" baseProfile="tiny" id="Layer_1" xmlns="http://www.w3.org/2000/svg" xmlns:xlink="http://www.w3.org/1999/xlink"
	 x="0px" y="0px" viewBox="0 0 256 256" xml:space="preserve">
<circle fill="#F9F9F9" cx="128" cy="128" r="126"/>
<g>
	<g>
		<path fill="#C6C5CA" d="M133.1,107.5h18.1V72.3c0-1.8-1.5-3.3-3.3-3.3h-11.4c-1.8,0-3.3,1.5-3.3,3.3L133.1,107.5L133.1,107.5z"/>
		<path fill="#C6C5CA" d="M109.5,107.5h18.1V88c0-1.8-1.5-3.3-3.3-3.3h-11.4c-1.8,0-3.3,1.5-3.3,3.3L109.5,107.5L109.5,107.5z"/>
	</g>
	<path fill="#ACABB1" d="M161.1,127.7H99.2v-17.6c0-4,3.2-7.2,7.2-7.2h47.5c4,0,7.2,3.2,7.2,7.2V127.7L161.1,127.7z"/>
	<path fill="#3E3D42" d="M179.3,156c-1,2.3-3.3,3.8-5.8,3.8H82.8c-2.9,0-5.4-1.9-6.1-4.7l-9-33.2c-0.3-1.2,0-2.5,0.8-3.5
		c0.8-1,2.1-1.5,3.3-1.3l113.3,12.8c1.2,0.1,2.3,0.8,2.9,1.9c0.6,1,0.7,2.3,0.2,3.4L179.3,156z"/>
	<circle fill="#2D2D30" cx="94.5" cy="138.8" r="7.1"/>
	<circle fill="#3D9AE2" cx="94.5" cy="138.8" r="2.7"/>
	<circle fill="#2D2D30" cx="120.4" cy="138.8" r="7.1"/>
	<circle fill="#3D9AE2" cx="120.4" cy="138.8" r="2.7"/>
	<path fill="#1A6FB0" d="M127.9,187.1c-4.2,0-8.2-1.6-11.2-4.6c-3.4-3.4-8.9-3.4-12.3,0c-1.4,1.4-3.6,1.4-5,0c-1.4-1.4-1.4-3.6,0-5
		c6.2-6.2,16.2-6.2,22.4,0c3.4,3.4,8.9,3.4,12.3,0c3-3,7-4.6,11.2-4.6c4.2,0,8.2,1.6,11.2,4.6c1.4,1.4,1.4,3.6,0,5
		c-1.4,1.4-3.6,1.4-5,0c-1.6-1.6-3.8-2.5-6.1-2.5c-2.3,0-4.5,0.9-6.1,2.5C136.1,185.4,132.1,187.1,127.9,187.1z"/>
	<path fill="#3D9AE2" d="M127.6,167.7c-4.4,0-8.9-1.7-12.2-5.1c-3.7-3.7-9.7-3.7-13.4,0c-6.7,6.7-17.7,6.7-24.5,0
		c-1.5-1.5-1.5-4,0-5.5s4-1.5,5.5,0c3.7,3.7,9.7,3.7,13.4,0c6.7-6.7,17.7-6.7,24.5,0c1.8,1.8,4.2,2.8,6.7,2.8c2.5,0,4.9-1,6.7-2.8
		c3.3-3.3,7.6-5.1,12.2-5.1s9,1.8,12.2,5.1c3.7,3.7,9.7,3.7,13.4,0c1.5-1.5,4-1.5,5.5,0c1.5,1.5,1.5,4,0,5.5
		c-6.7,6.7-17.7,6.7-24.5,0c-1.8-1.8-4.2-2.8-6.7-2.8c-2.5,0-4.9,1-6.7,2.8C136.4,166,132,167.7,127.6,167.7z"/>
	<path fill="#57565C" d="M111.5,117.2h-4.5c-0.7,0-1.2-0.6-1.2-1.2v-4.5c0-0.7,0.6-1.2,1.2-1.2h4.5c0.7,0,1.2,0.6,1.2,1.2v4.5
		C112.7,116.6,112.2,117.2,111.5,117.2z"/>
	<path fill="#787680" d="M121.9,117.2h-4.5c-0.7,0-1.2-0.6-1.2-1.2v-4.5c0-0.7,0.6-1.2,1.2-1.2h4.5c0.7,0,1.2,0.6,1.2,1.2v4.5
		C123.1,116.6,122.6,117.2,121.9,117.2z"/>
	<path fill="#57565C" d="M132.3,117.2h-4.5c-0.7,0-1.2-0.6-1.2-1.2v-4.5c0-0.7,0.6-1.2,1.2-1.2h4.5c0.7,0,1.2,0.6,1.2,1.2v4.5
		C133.6,116.6,133,117.2,132.3,117.2z"/>
	<path fill="#787680" d="M142.7,117.2h-4.5c-0.7,0-1.2-0.6-1.2-1.2v-4.5c0-0.7,0.6-1.2,1.2-1.2h4.5c0.7,0,1.2,0.6,1.2,1.2v4.5
		C144,116.6,143.4,117.2,142.7,117.2z"/>
	<path fill="#57565C" d="M153.2,117.2h-4.5c-0.7,0-1.2-0.6-1.2-1.2v-4.5c0-0.7,0.6-1.2,1.2-1.2h4.5c0.7,0,1.2,0.6,1.2,1.2v4.5
		C154.4,116.6,153.8,117.2,153.2,117.2z"/>
	<g>
		<rect x="109.5" y="89.5" fill="#FFFFFF" width="18" height="5.5"/>
		<rect x="133.1" y="73.7" fill="#FFFFFF" width="18" height="5.5"/>
		<rect x="133.1" y="81.5" fill="#FFFFFF" width="18" height="5.5"/>
	</g>
	<g>
		<rect x="109.5" y="99.9" fill="#898890" width="18.1" height="3"/>
		<rect x="133.1" y="99.9" fill="#898890" width="18.1" height="3"/>
	</g>
</g>
</svg>
