<?xml version="1.0" encoding="utf-8"?>
<!-- Generator: Adobe Illustrator 19.1.0, SVG Export Plug-In . SVG Version: 6.00 Build 0)  -->
<svg version="1.1" baseProfile="tiny" id="Layer_1" xmlns="http://www.w3.org/2000/svg" xmlns:xlink="http://www.w3.org/1999/xlink"
	 x="0px" y="0px" viewBox="0 0 256 256" xml:space="preserve">
<circle fill="#F9F9F9" cx="128" cy="128" r="126"/>
<g>
	<g>
		<path fill="#5C546A" d="M99.1,178.4l19.9-21.7l-4.3-11.2c0,0-12.9,1.8-13.2,2.9c-0.4,1.1-1.4,15.6-1.6,18.1
			C99.8,169.1,99.1,178.4,99.1,178.4"/>
	</g>
	<g>
		<path fill="#B9BBC1" d="M196.9,68.9c-0.6-0.6-1.5-0.8-2.3-0.5l-134.7,50c-0.8,0.3-1.4,1.1-1.4,2c0,0.9,0.5,1.7,1.3,2.1L84,133.5
			c1.9,0.9,3.3,2.6,3.7,4.6l7.8,39.1c0.2,0.9,0.9,1.6,1.8,1.7c0.9,0.1,1.8-0.3,2.2-1.1l12.3-22.9c0.3-0.6,0.9-1,1.6-1.1
			c0.7-0.1,1.4,0.1,1.9,0.7L146,187c0.4,0.4,1,0.7,1.6,0.7c0.1,0,0.3,0,0.4,0c0.7-0.1,1.3-0.6,1.6-1.3l47.8-115.1
			C197.7,70.5,197.5,69.6,196.9,68.9z"/>
	</g>
	<g>
		<path fill="#8B8996" d="M195.9,68.4L86,135c0.8,0.9,1.4,1.9,1.7,3.1l7.8,39.1c0.2,0.9,0.9,1.6,1.8,1.7c0.9,0.1,1.8-0.3,2.2-1.1
			l12.3-22.9c0.1-0.2,0.2-0.3,0.4-0.4c0,0,0-0.1,0-0.1l84.7-85.6C196.6,68.7,196.3,68.5,195.9,68.4z"/>
	</g>
</g>
</svg>
