<?xml version="1.0" encoding="utf-8"?>
<!-- Generator: Adobe Illustrator 19.1.0, SVG Export Plug-In . SVG Version: 6.00 Build 0)  -->
<svg version="1.1" baseProfile="tiny" id="Layer_1" xmlns="http://www.w3.org/2000/svg" xmlns:xlink="http://www.w3.org/1999/xlink"
	 x="0px" y="0px" viewBox="0 0 256 256" xml:space="preserve">
<circle fill="#F9F9F9" cx="128" cy="128" r="126"/>
<g>
	<path fill="#E6E6E6" d="M151.5,112.3c3.9-2.6,6.2-7,6.2-11.7V78.4H98.2v22.3c0,4.7,2.3,9.1,6.2,11.7l18.5,13.6
		c0.7,0.5,1.1,1.3,1.1,2.1l0,0c0,0.8-0.4,1.6-1.1,2.1l-18.5,13.6c-3.9,2.6-6.2,7-6.2,11.7v22.3h59.6v-22.3c0-4.7-2.3-9.1-6.2-11.7
		L133,130.1c-0.7-0.5-1.1-1.3-1.1-2.1l0,0c0-0.8,0.4-1.6,1.1-2.1L151.5,112.3z"/>
	<rect x="88.3" y="177.6" fill="#9E6C53" width="79.4" height="7.9"/>
	<rect x="88.3" y="70.4" fill="#9E6C53" width="79.4" height="7.9"/>
	<g>
		<path fill="#8A5336" d="M175.6,183.6h-7.9H80.4c-1.1,0-2,0.9-2,2c0,1.1,0.9,2,2,2h87.4h7.9c1.1,0,2-0.9,2-2
			C177.6,184.5,176.7,183.6,175.6,183.6z"/>
		<path fill="#8A5336" d="M80.4,72.4h87.4h7.9c1.1,0,2-0.9,2-2c0-1.1-0.9-2-2-2h-7.9H80.4c-1.1,0-2,0.9-2,2
			C78.4,71.5,79.3,72.4,80.4,72.4z"/>
	</g>
	<path fill="#EBBA16" d="M148.2,107.4c2.2-1.5,3.6-4,3.6-6.7l0,0c0-2.6-1.8-4.9-4.3-5.5l-29.9-7.5c-6.8-1.7-13.5,3.5-13.5,10.5v2.4
		c0,2.7,1.3,5.2,3.6,6.7l18.2,13.4v31.5c0,7.2-7.5,12-14,9l0,0c-3.5-1.6-7.8,0.8-7.8,4.7c0,0,0,0.1,0,0.1v11.7h47.6v-22.3
		c0,0,0-0.1,0-0.1c0-3.8-3.8-6.6-7.5-5.9l-4.1,0.7c-5.4,0.9-10.2-3.2-10.2-8.6v-20.7L148.2,107.4z"/>
</g>
</svg>
