<svg xmlns="http://www.w3.org/2000/svg" viewBox="0 0 54.88 31.58"><defs><style>.cls-1{fill:#003c5e;}.cls-2,.cls-5{fill:#fff;}.cls-3{fill:#007504;}.cls-4{fill:#189618;}.cls-11,.cls-13,.cls-4,.cls-5,.cls-6,.cls-8,.cls-9{fill-rule:evenodd;}.cls-12,.cls-6{fill:#90c9ea;}.cls-7{fill:#abc3ff;}.cls-8{fill:#79a1f2;}.cls-9{fill:#618de5;}.cls-10{fill:#7b91ff;}.cls-11{fill:#80c3ff;}.cls-13{fill:#494089;}</style></defs><title>404</title><g id="Layer_2" data-name="Layer 2"><g id="OBJECTS"><path class="cls-1" d="M6.29,9.35c-2.43.78-5.25,2-5.7,4.52a4.21,4.21,0,0,0,2.09,4.19c.7.42,1.56.71,1.92,1.43.57,1.13-.45,2.42-1.53,3.08S.68,23.74.19,24.9a3.21,3.21,0,0,0,.12,2.43c1.18,2.81,4.6,4.05,7.65,3.9s5.93-1.34,8.92-1.95c10.26-2.1,21,2.66,31.26.48a9.74,9.74,0,0,0,4.43-1.94A7,7,0,0,0,54.87,23c.11-1.75-.51-3.72-2.08-4.51a4.35,4.35,0,0,0-3-.19,8.36,8.36,0,0,1-1.91.42,1.59,1.59,0,0,1-1.56-1A1.84,1.84,0,0,1,47.09,16c1.06-.91,2.48-1.37,3.44-2.39a4.06,4.06,0,0,0-1.59-6.62C45.71,5.8,42.19,8.92,38.88,8a1,1,0,0,1-.63-.39.88.88,0,0,1,0-.73c.4-1.33,2-2.18,2-3.57a2.58,2.58,0,0,0-1-2c-3.87-3.47-9.47.65-13.42,2C19.4,5.46,12.79,7.25,6.29,9.35Z"/><path class="cls-2" d="M22,20.38s0,0,0,0l.92-.54h0s-.1-.27-.17-.42-.14-.28-.21-.41a7.41,7.41,0,0,0-.54-.72,0,0,0,0,0,0,0l-.92.55a0,0,0,0,1,0,0l-1.22-2.05h0l-.48.23a5.39,5.39,0,0,0-.48.25,4.38,4.38,0,0,0-.42.28l-.39.29s0,0,0,0l1.21,2.06h0L17.41,21h0l-.53-7h0a5.33,5.33,0,0,0-1,0,8.71,8.71,0,0,0-.95.31s0,0,0,0l.71,9.56h0l.21.11h0l4.34-2.57a0,0,0,0,1,0,0l1.06,1.79h0l.48-.23.48-.25c.14-.09.28-.18.41-.28l.4-.29h0Z"/><path class="cls-2" d="M39.7,19.57l-.45-.3L38.81,19l-.44-.21h0l-1.25,2h0l-1.82-1.12h0L41.19,16h0a5.41,5.41,0,0,0-.51-.88c-.21-.25-.71-.7-.71-.7h0l-8.12,5.1s0,0,0,0v.23h0l4.29,2.64a0,0,0,0,1,0,0L35,24.2s0,0,0,0l.42.32a4.53,4.53,0,0,0,.46.3,4.63,4.63,0,0,0,.43.24l.44.21s0,0,0,0l1.09-1.78s0,0,0,0l.91.55s0,0,0,0a3.9,3.9,0,0,0,.29-.34,4.56,4.56,0,0,0,.27-.39,8.26,8.26,0,0,0,.39-.8s0,0,0,0l-.9-.56h0l1.25-2s0,0,0,0Z"/><circle class="cls-3" cx="27.44" cy="17.45" r="4.75"/><path class="cls-4" d="M22.73,16.86c1.41.2,3.78-.81,4.53-1A21.87,21.87,0,0,1,32,16a4.73,4.73,0,0,0-.44-1c-.58,0-1.19-.08-1.77-.1-1.11,0-2.21.26-3.32.2-.51,0-1.66-.48-2.71-.66A4.79,4.79,0,0,0,22.73,16.86Z"/><path class="cls-4" d="M27.44,12.7a4.59,4.59,0,0,0-1.39.21,6.54,6.54,0,0,0,2.07.49,2.21,2.21,0,0,0,1.46-.17h0A4.75,4.75,0,0,0,27.44,12.7Z"/><path class="cls-4" d="M32.19,17.52a9.17,9.17,0,0,0-4.2-.08c-.75.17-1.47.42-2.22.61a11.55,11.55,0,0,1-2.87.33h-.12a4.75,4.75,0,0,0,1.32,2.45,16.58,16.58,0,0,0,3.26-1.57,6.58,6.58,0,0,1,2.83-1.33,6.81,6.81,0,0,1,1.95.24A4.62,4.62,0,0,0,32.19,17.52Z"/><path class="cls-4" d="M31.94,19a3.71,3.71,0,0,0-2.08.71c-.25.21-.47.47-.74.66A3.64,3.64,0,0,1,28,20.8c-.82.21-1.64.44-2.44.7a.43.43,0,0,0-.26.17,4.68,4.68,0,0,0,2.18.53A4.54,4.54,0,0,0,29,21.93c.49-.7.79-1.61,1.57-1.94.13-.06.59-.13,1-.23A5.46,5.46,0,0,0,31.94,19Z"/><path class="cls-5" d="M41.63,31.58a13.61,13.61,0,0,0-26.76,0Z"/><path class="cls-6" d="M30.74,28.28c-.06.47-.8.77-1.65.66s-1.48-.59-1.42-1.07.8-.77,1.65-.66S30.8,27.8,30.74,28.28Z"/><circle class="cls-7" cx="18.32" cy="9.35" r="1.76"/><path class="cls-8" d="M18.32,7.59a1.81,1.81,0,0,0-.86.23l0,.06c.18.18.6.18.84.2a2.93,2.93,0,0,0,1-.14A1.71,1.71,0,0,0,18.32,7.59Z"/><path class="cls-8" d="M19.66,8.53l.17-.07a1.43,1.43,0,0,0-.15-.22l-.52.24a3.61,3.61,0,0,1-.42.16,2.38,2.38,0,0,1-.65,0,12.26,12.26,0,0,1-1.36-.09,1.87,1.87,0,0,0-.17.75,2.21,2.21,0,0,0,0,.37.84.84,0,0,0,.26-.15,3.34,3.34,0,0,1,.73-.31Z"/><path class="cls-8" d="M19.94,8.66c-.14.12-.24.28-.39.4a2.16,2.16,0,0,1-.51.29,2.78,2.78,0,0,0-.4.16s-.09.05-.1.1.08.16.17.18a2,2,0,0,0,.55,0l.65,0H20a1.54,1.54,0,0,0,.06-.43A1.77,1.77,0,0,0,19.94,8.66Z"/><path class="cls-8" d="M18.37,9.3a4.62,4.62,0,0,0-.91.3,6,6,0,0,1-.58.26l-.23,0a1.76,1.76,0,0,0,.55.83l.06-.07c.26-.35.44-.79.82-1a.86.86,0,0,0,.2-.13A.24.24,0,0,0,18.37,9.3Z"/><path class="cls-8" d="M19.91,10.1h-.06l-1.13.06a1.38,1.38,0,0,0-.67.16,1.26,1.26,0,0,0-.34.42l-.15.2a1.9,1.9,0,0,0,.71.17l.14-.18a1.53,1.53,0,0,1,1.05-.6l.33,0A2.25,2.25,0,0,0,19.91,10.1Z"/><path class="cls-9" d="M19.93,10.05A1.6,1.6,0,0,0,20,9.72a10.94,10.94,0,0,1-1.56.42,11.33,11.33,0,0,1-1.62.2,2.75,2.75,0,0,0,.22.26,11.57,11.57,0,0,0,1.45-.19A11.38,11.38,0,0,0,19.93,10.05Z"/><path class="cls-2" d="M16.6,10.48c-.63,0-1.15-.1-1.21-.41s.32-.58,1.11-.88a.15.15,0,0,1,.18.08.14.14,0,0,1-.08.18c-.8.3-.94.53-.93.57s1,.33,2.81,0a10,10,0,0,0,1.95-.57c.58-.25.68-.43.67-.46s-.24-.21-1.14-.18a.14.14,0,0,1-.14-.13A.13.13,0,0,1,20,8.52c.89,0,1.36.1,1.42.4s-.22.5-.83.76a9.91,9.91,0,0,1-2,.59A11.18,11.18,0,0,1,16.6,10.48Z"/><circle class="cls-10" cx="45.52" cy="12.63" r="1.42" transform="translate(-1.57 8.84) rotate(-10.9)"/><path class="cls-11" d="M46.19,11.38a1.45,1.45,0,0,0-.7-.17.13.13,0,0,1,0,.06c.06.19.36.36.52.46a2.63,2.63,0,0,0,.78.3A1.42,1.42,0,0,0,46.19,11.38Z"/><path class="cls-11" d="M46.78,12.56l.15,0a1.5,1.5,0,0,0,0-.22l-.47,0a2,2,0,0,1-.35-.05,1.77,1.77,0,0,1-.49-.21c-.32-.18-.62-.38-.92-.59a1.44,1.44,0,0,0-.41.47,1.08,1.08,0,0,0-.11.28,1,1,0,0,0,.24,0,2.83,2.83,0,0,1,.64.06Z"/><path class="cls-11" d="M46.93,12.75c-.15,0-.28.11-.43.14a1.55,1.55,0,0,1-.48,0c-.11,0-.22,0-.33,0a.16.16,0,0,0-.12,0c0,.06,0,.15.06.19a1.43,1.43,0,0,0,.37.23l.47.23.09,0a1.42,1.42,0,0,0,.2-.28A1.53,1.53,0,0,0,46.93,12.75Z"/><path class="cls-11" d="M45.57,12.61a3.28,3.28,0,0,0-.76-.14,4.38,4.38,0,0,1-.51,0,.77.77,0,0,1-.17-.07,1.36,1.36,0,0,0,.07.8l.07,0a2.76,2.76,0,0,1,1-.4h.2A.21.21,0,0,0,45.57,12.61Z"/><path class="cls-11" d="M46.35,13.77l0,0-.82-.38a1,1,0,0,0-.54-.15,1.24,1.24,0,0,0-.4.16s-.11.05-.18.09a1.51,1.51,0,0,0,.44.39l.16-.07a1.24,1.24,0,0,1,1,0l.24.11Z"/><path class="cls-2" d="M15,26.75h2.77a.54.54,0,0,1,.54.54v.56a0,0,0,0,1,0,0H14.5a0,0,0,0,1,0,0V27.3A.54.54,0,0,1,15,26.75Z" transform="translate(-15.39 29.1) rotate(-62.2)"/><path class="cls-2" d="M39.44,27.1h1.81a.54.54,0,0,1,.54.54v.56a0,0,0,0,1,0,0H38.9a0,0,0,0,1,0,0v-.56A.54.54,0,0,1,39.44,27.1Z" transform="translate(51.06 -20.07) rotate(68.23)"/><path class="cls-2" d="M20.42,21.79h2.77a.54.54,0,0,1,.54.54v.56a0,0,0,0,1,0,0H19.87a0,0,0,0,1,0,0v-.56A.54.54,0,0,1,20.42,21.79Z" transform="translate(-8.94 16.91) rotate(-35.68)"/><path class="cls-2" d="M35.3,23.24h2.77a.54.54,0,0,1,.54.54v.56a0,0,0,0,1,0,0H34.76a0,0,0,0,1,0,0v-.56a.54.54,0,0,1,.54-.54Z" transform="translate(21.77 -17.31) rotate(37.09)"/><ellipse class="cls-12" cx="21.91" cy="24.96" rx="2.17" ry="0.96" transform="translate(-8.93 12.62) rotate(-26.92)"/><path class="cls-13" d="M21.61,24.52c1-.5,1.92-.59,2.28-.25a.47.47,0,0,0-.05-.29c-.24-.48-1.3-.42-2.37.12s-1.74,1.37-1.5,1.84a.41.41,0,0,0,.1.13C20.13,25.59,20.73,25,21.61,24.52Z"/><path class="cls-6" d="M36.92,25.61c-.19.31-.9.21-1.58-.22s-1.08-1-.89-1.32.89-.2,1.58.22S37.11,25.31,36.92,25.61Z"/><path class="cls-13" d="M35.84,24.52c.61.38,1,.9.93,1.22a.37.37,0,0,0,.15-.13c.19-.3-.21-.89-.89-1.32s-1.39-.52-1.58-.22a.3.3,0,0,0,0,.1A1.81,1.81,0,0,1,35.84,24.52Z"/><path class="cls-13" d="M29.32,27.21c-.85-.11-1.59.19-1.65.66a.21.21,0,0,0,0,.11,1.55,1.55,0,0,1,1.6-.51c.79.1,1.39.52,1.42,1a.44.44,0,0,0,0-.15C30.8,27.8,30.17,27.32,29.32,27.21Z"/><circle class="cls-12" cx="8.23" cy="15.44" r="0.45"/><path class="cls-6" d="M34.26,3.17a.2.2,0,1,1,.2-.2A.2.2,0,0,1,34.26,3.17Z"/><circle class="cls-12" cx="37.11" cy="6.7" r="0.2"/><circle class="cls-12" cx="3.54" cy="13.24" r="0.2"/><path class="cls-5" d="M32.28,10.23A.26.26,0,1,1,32,10,.26.26,0,0,1,32.28,10.23Z"/><path class="cls-5" d="M43.15,22.12a.26.26,0,0,1-.26.26.26.26,0,0,1,0-.52A.26.26,0,0,1,43.15,22.12Z"/><path class="cls-5" d="M50.78,22.55a.26.26,0,1,1-.25-.26A.26.26,0,0,1,50.78,22.55Z"/><path class="cls-5" d="M10.07,26.32a.25.25,0,0,1-.26.26.26.26,0,0,1-.26-.26.26.26,0,0,1,.26-.26A.26.26,0,0,1,10.07,26.32Z"/><path class="cls-5" d="M25,7.59a.26.26,0,1,1-.26-.25A.26.26,0,0,1,25,7.59Z"/><polygon class="cls-5" points="21.87 13.88 22.22 14.08 21.86 14.26 21.67 14.61 21.48 14.26 21.14 14.06 21.49 13.88 21.69 13.53 21.87 13.88"/><polygon class="cls-5" points="38.12 10.25 38.34 10.38 38.11 10.5 37.99 10.73 37.87 10.5 37.64 10.37 37.87 10.25 38 10.02 38.12 10.25"/><polygon class="cls-5" points="11.54 21.06 11.77 21.19 11.54 21.31 11.41 21.54 11.29 21.3 11.06 21.18 11.29 21.06 11.42 20.83 11.54 21.06"/><polygon class="cls-5" points="11.67 11.88 11.89 12.01 11.66 12.13 11.54 12.35 11.41 12.12 11.19 11.99 11.42 11.87 11.55 11.65 11.67 11.88"/><polygon class="cls-5" points="4.78 25.58 5.01 25.71 4.78 25.83 4.65 26.06 4.53 25.83 4.3 25.7 4.53 25.58 4.66 25.35 4.78 25.58"/><polygon class="cls-5" points="45.7 19.23 45.92 19.36 45.69 19.48 45.56 19.7 45.44 19.47 45.22 19.34 45.45 19.22 45.58 19 45.7 19.23"/><polygon class="cls-5" points="48.48 28.29 48.7 28.42 48.47 28.54 48.34 28.77 48.22 28.54 48 28.41 48.23 28.29 48.35 28.06 48.48 28.29"/></g></g></svg>