<?xml version="1.0"?>
<svg xmlns="http://www.w3.org/2000/svg" xmlns:xlink="http://www.w3.org/1999/xlink" version="1.1" id="Layer_1" x="0px" y="0px" viewBox="0 0 496 496" style="enable-background:new 0 0 496 496;" xml:space="preserve" width="512px" height="512px" class=""><g><path style="fill:#73DAEC" d="M327.2,412.8l-5.6-17.6l15.2-11.2h-19.2l-5.6-17.6l-5.6,17.6h-19.2l15.2,11.2l-5.6,17.6l15.2-11.2  L327.2,412.8z M391.2,412.8l-5.6-17.6l15.2-11.2h-19.2l-5.6-17.6l-5.6,17.6h-19.2l15.2,11.2l-5.6,17.6l15.2-11.2L391.2,412.8z   M455.2,412.8l-5.6-17.6l15.2-11.2h-19.2l-5.6-17.6l-5.6,17.6h-19.2l15.2,11.2l-5.6,17.6l15.2-11.2L455.2,412.8z M135.2,412.8  l-5.6-17.6l15.2-11.2h-19.2l-5.6-17.6l-5.6,17.6H95.2l15.2,11.2l-5.6,17.6l15.2-11.2L135.2,412.8z M31.2,384l15.2,11.2l-5.6,17.6  L56,401.6l15.2,11.2l-5.6-17.6L80.8,384H61.6L56,366.4L50.4,384H31.2z M223.2,384l15.2,11.2l-5.6,17.6l15.2-11.2l15.2,11.2  l-5.6-17.6l15.2-11.2h-19.2l-5.6-17.6l-5.6,17.6H223.2z M208.8,384h-19.2l-5.6-17.6l-5.6,17.6h-19.2l15.2,11.2l-5.6,17.6l15.2-11.2  l15.2,11.2l-5.6-17.6L208.8,384z M480,424H16v-72h464V424z" data-original="#FF9900" class="" data-old_color="#FF9900"/><path style="fill:#D9CDC1;" d="M312,264v40H184v-40c0-35.2,28.8-64,64-64S312,228.8,312,264z" data-original="#D9CDC1" class=""/><circle style="fill:#6CCADB" cx="248" cy="112" r="40" data-original="#FF7D00" class="active-path" data-old_color="#6CCBDC"/><path style="fill:#FFF8EF;" d="M256,216c-35.2,0-64,28.8-64,64v24h120v-40c0-7.2-1.6-13.6-3.2-20C296.8,227.2,277.6,216,256,216z" data-original="#FFF8EF" class=""/><path style="fill:#73DAEC" d="M288,112c0-3.2-0.8-6.4-0.8-8.8c-8-9.6-18.4-15.2-31.2-15.2c-22.4,0-40,17.6-40,40  c0,3.2,0.8,6.4,0.8,8.8c7.2,8.8,18.4,15.2,31.2,15.2C270.4,152,288,134.4,288,112z" data-original="#FF9900" class="" data-old_color="#FF9900"/><g>
	<polygon style="fill:#003C5E" points="449.6,395.2 455.2,412.8 440,401.6 424.8,412.8 430.4,395.2 415.2,384 434.4,384 440,366.4    445.6,384 464.8,384  " data-original="#42210B" class="" data-old_color="#003c5e"/>
	<polygon style="fill:#003C5E" points="385.6,395.2 391.2,412.8 376,401.6 360.8,412.8 366.4,395.2 351.2,384 370.4,384 376,366.4    381.6,384 400.8,384  " data-original="#42210B" class="" data-old_color="#003c5e"/>
	<polygon style="fill:#003C5E" points="321.6,395.2 327.2,412.8 312,401.6 296.8,412.8 302.4,395.2 287.2,384 306.4,384 312,366.4    317.6,384 336.8,384  " data-original="#42210B" class="" data-old_color="#003c5e"/>
	<polygon style="fill:#003C5E" points="238.4,395.2 223.2,384 242.4,384 248,366.4 253.6,384 272.8,384 257.6,395.2 263.2,412.8    248,401.6 232.8,412.8  " data-original="#42210B" class="" data-old_color="#003c5e"/>
	<path style="fill:#003C5E" d="M248,72c-22.4,0-40,17.6-40,40s17.6,40,40,40s40-17.6,40-40S270.4,72,248,72z M248,168   c-31.2,0-56-24.8-56-56s24.8-56,56-56s56,24.8,56,56S279.2,168,248,168z" data-original="#42210B" class="" data-old_color="#003c5e"/>
	<polygon style="fill:#003C5E" points="193.6,395.2 199.2,412.8 184,401.6 168.8,412.8 174.4,395.2 159.2,384 178.4,384 184,366.4    189.6,384 208.8,384  " data-original="#42210B" class="" data-old_color="#003c5e"/>
	<path style="fill:#003C5E" d="M168,264c0-44,36-80,80-80s80,36,80,80v48c0,4-4,8-8,8H176c-4,0-8-4-8-8V264z M184,264v40h128v-40   c0-35.2-28.8-64-64-64S184,228.8,184,264z" data-original="#42210B" class="" data-old_color="#003c5e"/>
	<polygon style="fill:#003C5E" points="129.6,395.2 135.2,412.8 120,401.6 104.8,412.8 110.4,395.2 95.2,384 114.4,384 120,366.4    125.6,384 144.8,384  " data-original="#42210B" class="" data-old_color="#003c5e"/>
	<polygon style="fill:#003C5E" points="46.4,395.2 31.2,384 50.4,384 56,366.4 61.6,384 80.8,384 65.6,395.2 71.2,412.8 56,401.6    40.8,412.8  " data-original="#42210B" class="" data-old_color="#003c5e"/>
	<path style="fill:#003C5E" d="M16,352v72h464v-72H16z M0,432v-88c0-4,4-8,8-8h480c4,0,8,4,8,8v88c0,4-4,8-8,8H8C4,440,0,436,0,432   z" data-original="#42210B" class="" data-old_color="#003c5e"/>
</g><path style="fill:#6CCADB" d="M480,352l-444,8c-6.4,0-12,5.6-12,12v31.2c0,7.2,5.6,12.8,12,12.8l444,8H16v-72H480z" data-original="#FF7D00" class="active-path" data-old_color="#6CCBDC"/></g> </svg>
