<?xml version="1.0"?>
<svg xmlns="http://www.w3.org/2000/svg" xmlns:xlink="http://www.w3.org/1999/xlink" version="1.1" id="Capa_1" x="0px" y="0px" viewBox="0 0 511.998 511.998" style="enable-background:new 0 0 511.998 511.998;" xml:space="preserve" width="512px" height="512px" class=""><g><g>
	<path style="fill:#58595B" d="M204.8,435.21c-28.275,0-51.192,22.917-51.192,51.192v17.064h204.769v-17.064   c0-28.275-22.917-51.192-51.192-51.192H204.8z" data-original="#58595B" class="" data-old_color="#70707F"/>
	<path style="fill:#58595B" d="M281.589,324.293c-0.026-9.411-7.653-17.039-17.064-17.064H247.46   c-9.411,0.026-17.038,7.653-17.064,17.064V435.21h51.192V324.293z" data-original="#58595B" class="" data-old_color="#70707F"/>
</g><g>
	<path style="fill:#F6F0F0" d="M128.012,372.158l-34.128,6.058l-67.745,11.945c-8.123,1.485-14.044,8.549-14.078,16.808   c0,0.998,0.085,1.997,0.256,2.986c1.672,9.266,10.52,15.443,19.794,13.822l198.285-34.981V354.07L128.012,372.158z" data-original="#ACABB1" class="" data-old_color="#F4EFEF"/>
	<path style="fill:#F6F0F0" d="M281.589,345.111v34.64l204.257-36.005c8.123-1.485,14.044-8.549,14.078-16.808   c0-0.998-0.085-1.997-0.256-2.986c-1.672-9.266-10.52-15.443-19.794-13.822l-61.772,10.921l-34.128,5.972L281.589,345.111z" data-original="#ACABB1" class="" data-old_color="#F4EFEF"/>
	<polygon style="fill:#F6F0F0" points="128.012,332.825 93.884,332.825 93.884,378.216 128.012,372.158  " data-original="#ACABB1" class="" data-old_color="#F4EFEF"/>
	<polygon style="fill:#F6F0F0" points="383.973,327.023 418.102,321.051 418.102,281.633 383.973,281.633  " data-original="#ACABB1" class="" data-old_color="#F4EFEF"/>
	<path style="fill:#F6F0F0" d="M213.332,247.505v-17.064H8.563v17.064c0,47.123,38.198,85.321,85.321,85.321h34.128   C175.134,332.825,213.332,294.619,213.332,247.505z" data-original="#ACABB1" class="" data-old_color="#F4EFEF"/>
</g><g>
	<path style="fill:#FFD800" d="M34.159,162.184c-0.026-42.413,34.324-76.814,76.737-76.848s76.814,34.324,76.848,76.729   c0.026,28.813-16.091,55.211-41.722,68.367h41.295c37.669-42.174,34.017-106.898-8.157-144.567S72.255,51.856,34.586,94.03   c-34.7,38.846-34.7,97.555,0,136.402h41.295C50.276,217.318,34.159,190.954,34.159,162.184z" data-original="#FFAF46" class="active-path" data-old_color="#FFD100"/>
	<path style="fill:#FFD800" d="M187.736,162.184c0.034-42.413-34.324-76.814-76.729-76.848   c-42.413-0.034-76.814,34.324-76.848,76.729c-0.026,28.813,16.091,55.211,41.722,68.367h70.133   C171.628,217.318,187.736,190.954,187.736,162.184z M145.076,179.248c0,9.428-7.636,17.064-17.064,17.064h-17.064l0,0H93.884   v-68.256h17.064l0,0h17.064c9.428,0,17.064,7.636,17.064,17.064c0,9.428-7.636,17.064-17.064,17.064   C137.44,162.184,145.076,169.82,145.076,179.248z" data-original="#FFAF46" class="active-path" data-old_color="#FFD100"/>
	<path style="fill:#FFD800" d="M145.076,145.12c0-9.428-7.636-17.064-17.064-17.064H93.884v34.128h34.128   C137.44,162.184,145.076,154.54,145.076,145.12z" data-original="#FFAF46" class="active-path" data-old_color="#FFD100"/>
	<path style="fill:#FFD800" d="M93.884,196.312h34.128c9.428,0,17.064-7.636,17.064-17.064s-7.636-17.064-17.064-17.064H93.884   V196.312z" data-original="#FFAF46" class="active-path" data-old_color="#FFD100"/>
</g><path style="fill:#F6F0F0" d="M365.971,179.248h-67.318v17.064c0,47.123,38.198,85.321,85.321,85.321h34.128  c47.123,0,85.321-38.198,85.321-85.321v-17.064L365.971,179.248L365.971,179.248z" data-original="#ACABB1" class="" data-old_color="#F4EFEF"/><g>
	<path style="fill:#47DCEF" d="M401.037,8.607c-56.542-0.026-102.41,45.792-102.436,102.333   c-0.009,25.204,9.274,49.52,26.074,68.308h41.295c-37.729-19.368-52.617-65.654-33.249-103.383s65.654-52.617,103.383-33.249   s52.617,65.654,33.249,103.383c-7.338,14.283-18.958,25.912-33.249,33.249h41.295c37.695-42.148,34.094-106.873-8.054-144.567   C450.566,17.873,426.241,8.59,401.037,8.607z" data-original="#FFD6A0" class="" data-old_color="#47DBEE"/>
	<path style="fill:#47DCEF" d="M477.826,110.992c0.034-42.413-34.324-76.814-76.729-76.848s-76.814,34.324-76.848,76.729   c-0.026,28.813,16.091,55.211,41.722,68.367h70.133C461.717,166.126,477.826,139.762,477.826,110.992z M401.037,119.524   c14.138,0,25.596,11.459,25.596,25.596c0,14.138-11.459,25.596-25.596,25.596s-25.596-11.459-25.596-25.596   c0,14.138,11.459,25.596,25.596,25.596s25.596-11.459,25.596-25.596C426.634,130.982,415.175,119.524,401.037,119.524   s-25.596-11.459-25.596-25.596s11.459-25.596,25.596-25.596l0,0c14.138,0,25.596,11.459,25.596,25.596   c0-14.138-11.459-25.596-25.596-25.596s-25.596,11.459-25.596,25.596S386.908,119.524,401.037,119.524z" data-original="#FFD6A0" class="" data-old_color="#47DBEE"/>
</g><g>
	<path style="fill:#173F5A" d="M153.608,179.248c-0.026-6.314-2.398-12.397-6.655-17.064c9.488-10.401,8.745-26.518-1.655-36.005   c-4.727-4.309-10.895-6.689-17.286-6.655h-8.532v-8.532h-17.064v8.532H76.819v17.064h8.532v51.192h-8.532v17.064h25.596v8.532   h17.064v-8.532h8.532C142.149,204.844,153.608,193.377,153.608,179.248z M102.416,136.588h25.596c4.71,0,8.532,3.822,8.532,8.532   c0,4.71-3.822,8.532-8.532,8.532h-25.596V136.588z M128.012,170.716c4.71,0,8.532,3.822,8.532,8.532   c0,4.71-3.822,8.532-8.532,8.532h-25.596v-17.064H128.012z" data-original="#231F20" class="" data-old_color="#231F20"/>
	<path style="fill:#173F5A" d="M503.422,170.716h-8.959c33.019-51.602,17.951-120.191-33.642-153.21s-120.191-17.96-153.21,33.642   c-23.318,36.44-23.318,83.119,0,119.568h-8.959c-4.71,0-8.532,3.822-8.532,8.532v17.064c0.068,48.496,37.029,88.972,85.321,93.417   v30.161l-85.321,15.059v-10.657c0-14.138-11.459-25.596-25.596-25.596h-17.064c-14.138,0-25.596,11.459-25.596,25.596v22.627   l-85.321,15.076v-21.074c48.291-4.445,85.252-44.921,85.321-93.417v-17.064c0-4.71-3.822-8.532-8.532-8.532h-8.959   c33.019-51.602,17.951-120.191-33.642-153.21S50.541,50.739,17.522,102.34c-23.318,36.44-23.318,83.119,0,119.568H8.563   c-4.71,0-8.532,3.822-8.532,8.532v17.064c0.068,48.496,37.029,88.972,85.321,93.417v30.11l-60.697,10.725   c-12.226,2.167-21.134,12.798-21.125,25.212c0,1.493,0.128,2.986,0.384,4.462c2.193,12.226,12.832,21.134,25.255,21.125   c1.485,0,2.969-0.128,4.428-0.375l188.268-33.224v27.721H204.8c-32.968,0.034-59.69,26.757-59.724,59.724v17.064   c0,4.71,3.822,8.532,8.532,8.532h204.769c4.71,0,8.532-3.822,8.532-8.532v-17.064c-0.034-32.968-26.757-59.69-59.724-59.724   h-17.064V386.91l197.21-34.76c12.226-2.167,21.134-12.798,21.125-25.212c0-1.493-0.128-2.986-0.384-4.462   c-2.491-13.916-15.759-23.19-29.683-20.75l-51.755,9.138V289.73c48.291-4.445,85.252-44.921,85.321-93.417v-17.064   C511.954,174.53,508.14,170.716,503.422,170.716z M307.185,110.992c0.043-51.832,42.089-93.818,93.921-93.784   s93.827,42.089,93.784,93.921c-0.017,21.74-7.576,42.805-21.398,59.588h-11.757c33.121-33.522,32.797-87.539-0.725-120.66   s-87.539-32.797-120.66,0.725c-32.84,33.232-32.84,86.694,0,119.935h-11.766C314.719,153.9,307.151,132.783,307.185,110.992z    M401.037,110.992c-9.428,0-17.064-7.636-17.064-17.064s7.636-17.064,17.064-17.064s17.064,7.636,17.064,17.064   c0,4.71,3.822,8.532,8.532,8.532s8.532-3.822,8.532-8.532c-0.06-15.511-10.571-29.035-25.596-32.917v-9.744   c0-4.71-3.822-8.532-8.532-8.532s-8.532,3.822-8.532,8.532v9.744c-18.216,4.693-29.188,23.258-24.496,41.474   c3.874,15.068,17.474,25.588,33.028,25.571c9.428,0,17.064,7.636,17.064,17.064c0,9.428-7.636,17.064-17.064,17.064   s-17.064-7.636-17.064-17.064c0-4.71-3.822-8.532-8.532-8.532s-8.532,3.822-8.532,8.532c0.034,9.837,4.334,19.18,11.791,25.596   h-10.597c-33.019-18.19-45.041-59.699-26.85-92.718s59.699-45.041,92.718-26.85s45.041,59.699,26.85,92.718   c-6.228,11.314-15.545,20.622-26.85,26.85h-10.597c14.214-12.252,15.81-33.71,3.558-47.925   C420.448,115.258,410.986,110.941,401.037,110.992z M17.095,162.184c0.043-51.841,42.097-93.827,93.929-93.784   c51.832,0.043,93.818,42.089,93.784,93.921c-0.017,21.74-7.576,42.805-21.398,59.588h-11.766   c33.121-33.514,32.797-87.539-0.717-120.66s-87.547-32.806-120.669,0.717c-32.84,33.232-32.84,86.703,0,119.944H38.493   C24.629,205.092,17.061,183.975,17.095,162.184z M42.691,162.184c-0.026-37.703,30.502-68.291,68.197-68.325   s68.282,30.502,68.316,68.197c0.026,24.897-13.515,47.831-35.323,59.844H78.014C56.197,209.964,42.649,187.055,42.691,162.184z    M17.095,247.505v-8.532H204.8v8.532c-0.051,42.387-34.401,76.737-76.788,76.789H93.884   C51.496,324.242,17.146,289.892,17.095,247.505z M102.416,341.357h17.064v23.651l-17.064,3.012V341.357z M30.644,415.373   c-4.616,0.845-9.053-2.21-9.914-6.826c-0.085-0.52-0.137-1.058-0.137-1.587c0.034-4.121,2.978-7.636,7.022-8.413l194.249-34.299   v17.388L30.644,415.373z M349.845,486.402v8.532H162.14v-8.532c0.026-23.548,19.112-42.635,42.66-42.66h102.385   C330.742,443.768,349.82,462.854,349.845,486.402z M238.928,426.678V324.293c0-4.71,3.822-8.532,8.532-8.532h17.064   c4.71,0,8.532,3.822,8.532,8.532v102.385H238.928z M481.341,318.534c4.616-0.845,9.053,2.21,9.914,6.826   c0.085,0.52,0.137,1.058,0.137,1.587c-0.034,4.121-2.978,7.645-7.03,8.413L290.121,369.59v-17.32L481.341,318.534z    M401.276,315.335l-8.771,1.536v-26.705h17.064v23.711L401.276,315.335z M494.89,196.312   c-0.051,42.387-34.401,76.737-76.788,76.788h-34.128c-42.387-0.051-76.737-34.401-76.788-76.788v-8.532H494.89V196.312z" data-original="#231F20" class="" data-old_color="#231F20"/>
</g></g> </svg>
