<svg xmlns="http://www.w3.org/2000/svg" viewBox="0 0 234.58 185.22"><defs><style>.cls-1,.cls-2,.cls-3{fill:#fff;}.cls-1,.cls-2{stroke:#fff;stroke-miterlimit:22.93;stroke-width:0.57px;}.cls-1,.cls-3{fill-rule:evenodd;}</style></defs><title>logo-white</title><g id="Layer_2" data-name="Layer 2"><g id="Layer_1-2" data-name="Layer 1"><path class="cls-1" d="M20.63,76.57a16.14,16.14,0,0,0-8.54,2.35,17.41,17.41,0,0,0-8.4,14.92A18.8,18.8,0,0,0,5,100.57a15.81,15.81,0,0,0,3.59,5.35A16.43,16.43,0,0,0,14,109.5a16.87,16.87,0,0,0,6.41,1.3,18.54,18.54,0,0,0,4.76-.55,18.36,18.36,0,0,0,4.34-1.92l1.6,2.76a21.16,21.16,0,0,1-5.1,2.34,20.26,20.26,0,0,1-5.6.71,19.35,19.35,0,0,1-10.06-2.74A20.46,20.46,0,0,1,3,104,20.1,20.1,0,0,1,1.84,86.1a20.19,20.19,0,0,1,4.4-6.56,20,20,0,0,1,14.32-5.92,20.19,20.19,0,0,1,5.37.63,20.44,20.44,0,0,1,4.94,2.24L29,79.08a15.72,15.72,0,0,0-3.94-1.9A16.55,16.55,0,0,0,20.63,76.57Z"/><path class="cls-1" d="M55.66,77A16.67,16.67,0,0,0,43.58,82.1a17.35,17.35,0,0,0-3.66,5.6,18.1,18.1,0,0,0-1.27,6.76,17,17,0,0,0,17,16.65,16.06,16.06,0,0,0,8.42-2.31A17.13,17.13,0,0,0,72.43,94a16.56,16.56,0,0,0-1.32-6.55A16.94,16.94,0,0,0,67.57,82a17.15,17.15,0,0,0-5.4-3.65A16.29,16.29,0,0,0,55.66,77Zm0-3.4a20.18,20.18,0,0,1,7.9,1.57,19.8,19.8,0,0,1,6.5,4.37,20.4,20.4,0,0,1-.16,29,21,21,0,0,1-6.68,4.42,20.57,20.57,0,0,1-7.92,1.57,19.59,19.59,0,0,1-10-2.77,20.25,20.25,0,0,1-7.3-7.35,20.49,20.49,0,0,1,0-20.49A20.2,20.2,0,0,1,55.65,73.62Z"/><path class="cls-1" d="M84.29,66.42h3.48v3.11H84.29V66.42Zm0,7.73h3.48v39.61H84.29Z"/><path class="cls-1" d="M96.07,77.77h3.41v2.88a17.27,17.27,0,0,1,6.23-5.53,18.31,18.31,0,0,1,8.22-1.73,19.47,19.47,0,0,1,7.27,1.32A17,17,0,0,1,127,78.58a18,18,0,0,1,3.89,6.21,23.11,23.11,0,0,1,1.4,8.23v20.74h-3.49V93.19a20.32,20.32,0,0,0-1.08-6.86,14.12,14.12,0,0,0-3.08-5.08,13.29,13.29,0,0,0-4.7-3.1A16.18,16.18,0,0,0,114,77.1a14.2,14.2,0,0,0-5.44,1.09,14.54,14.54,0,0,0-4.68,3.1,14.84,14.84,0,0,0-3.22,4.63,13.62,13.62,0,0,0-1.16,5.54v22.3H96.07Z"/><path class="cls-1" d="M173.35,78.08h3.41v31.44h-3.41v-4.37a19.92,19.92,0,0,1-7.63,7,21.31,21.31,0,0,1-9.94,2.37,19.7,19.7,0,0,1-10.26-2.9,21.18,21.18,0,0,1-7.52-7.67,20.63,20.63,0,0,1-2.75-10.39,19.73,19.73,0,0,1,1.68-7.82,20.73,20.73,0,0,1,4.52-6.52,21.25,21.25,0,0,1,6.65-4.38,20.44,20.44,0,0,1,8-1.59,21.93,21.93,0,0,1,7,1.22,19.06,19.06,0,0,1,5.77,3.22,21.93,21.93,0,0,1,4.48,5V78.08ZM138.89,93.69a16.7,16.7,0,0,0,2.35,8.67,17.44,17.44,0,0,0,6.36,6.32,16.89,16.89,0,0,0,8.71,2.35,16.64,16.64,0,0,0,8.48-2.37,17,17,0,0,0,6.17-6.21,17.38,17.38,0,0,0,2.31-8.54A17.6,17.6,0,0,0,172,87.2a17.42,17.42,0,0,0-9-9.43,15.73,15.73,0,0,0-6.59-1.43,17,17,0,0,0-8.71,2.35A17.52,17.52,0,0,0,141.24,85,16.76,16.76,0,0,0,138.89,93.69Z"/><rect class="cls-2" x="186.32" y="54.08" width="3.41" height="59.68"/><path class="cls-1" d="M197.87,74.15h3.41V95.28a16.32,16.32,0,0,0,1.12,5.88,16.71,16.71,0,0,0,3.22,5.17,15.39,15.39,0,0,0,4.79,3.58,13.46,13.46,0,0,0,5.76,1.27,14.32,14.32,0,0,0,10.43-4.33,14.87,14.87,0,0,0,3.22-4.88A15.46,15.46,0,0,0,231,96V74.15h3.33V112.1A36.78,36.78,0,0,1,234,117a16.68,16.68,0,0,1-1.15,4.19,13.28,13.28,0,0,1-2.52,3.9,15.76,15.76,0,0,1-4.87,3.74,16,16,0,0,1-6,1.34v-2.86a10.83,10.83,0,0,0,4.29-.93,10.6,10.6,0,0,0,3.81-2.73,12.78,12.78,0,0,0,3.44-8.76v-8a20.26,20.26,0,0,1-4.09,4.26,15.7,15.7,0,0,1-4.94,2.55,20.22,20.22,0,0,1-5.92.82,16.7,16.7,0,0,1-9.16-2.68,19.18,19.18,0,0,1-6.59-7.14,20.07,20.07,0,0,1-2.4-9.65Z"/><path class="cls-3" d="M101.33,150.54H101A47.21,47.21,0,0,1,77,144a48.74,48.74,0,0,1-17.64-17.58c-.7-1.18-1.34-2.38-1.93-3.6h2.46a46.37,46.37,0,0,0,8.58,11.72,47.26,47.26,0,0,0,15.11,10.12,44.44,44.44,0,0,0,35.23,0,47.21,47.21,0,0,0,15.1-10.12,46.17,46.17,0,0,0,8.59-11.72h2.45q-.87,1.83-1.92,3.6A48.77,48.77,0,0,1,125.36,144a47.17,47.17,0,0,1-24,6.57Zm79.77-27.75h-6a72.22,72.22,0,0,1-3.72,10.11,76.86,76.86,0,0,1-17.48,24.42,82.83,82.83,0,0,1-25,16.13,75.67,75.67,0,0,1-17,4.85c-3,.41-6.32.71-9.86.91l-1.16,0-1.16,0c-3.53-.2-6.82-.5-9.85-.91a75.52,75.52,0,0,1-17-4.85,82.87,82.87,0,0,1-25-16.13A76.83,76.83,0,0,1,30.2,132.9a72.27,72.27,0,0,1-3.73-10.11h-6a80.88,80.88,0,0,0,8.78,21.29,83.21,83.21,0,0,0,67.73,41c.92.06,1.85.1,2.77.13h2.08c.93,0,1.86-.07,2.78-.13a83.21,83.21,0,0,0,67.73-41,80.52,80.52,0,0,0,8.77-21.29Zm-8.58,0h-4.44a67,67,0,0,1-6.83,15.37,69.49,69.49,0,0,1-26,25.15,69.86,69.86,0,0,1-69,0,69.51,69.51,0,0,1-26-25.15,67,67,0,0,1-6.82-15.37H29a72.09,72.09,0,0,0,7.32,16.78,77.32,77.32,0,0,0,40.51,33.28V173A84.26,84.26,0,0,0,88.6,176.1a66.37,66.37,0,0,0,11.45.86h1.46A66.57,66.57,0,0,0,113,176.1,84.62,84.62,0,0,0,124.7,173v-.19a77.32,77.32,0,0,0,40.51-33.28,72,72,0,0,0,7.31-16.78Zm-7.18,0h-3.87a62,62,0,0,1-5.41,11.58,64.16,64.16,0,0,1-110.55,0,62.08,62.08,0,0,1-5.42-11.58H36.22a67.29,67.29,0,0,0,5.92,13.55,65.55,65.55,0,0,0,24.63,24.59,66.29,66.29,0,0,0,10.1,4.75v0A67,67,0,0,0,100.05,170h1.46a67,67,0,0,0,23.19-4.24v0a66.74,66.74,0,0,0,10.1-4.75,65.55,65.55,0,0,0,24.63-24.59,66.69,66.69,0,0,0,5.91-13.55Zm-6.93,0h-3.07a57.51,57.51,0,0,1-4.16,8.73,58,58,0,0,1-26.48,23.89v-.12a58.55,58.55,0,0,1-19.35,5c-1.45.12-2.92.18-4.41.19s-3-.07-4.41-.19a58.49,58.49,0,0,1-19.34-5v.12a58.4,58.4,0,0,1-30.64-32.62H43.47a61.6,61.6,0,0,0,26.94,32.33,61.32,61.32,0,0,0,6.78,3.4v.14a70.25,70.25,0,0,0,11.31,3.48,57.56,57.56,0,0,0,11.87,1.2h1.14a57.41,57.41,0,0,0,11.87-1.2,70,70,0,0,0,11.32-3.48v-.14a60.32,60.32,0,0,0,6.77-3.4,61.42,61.42,0,0,0,26.94-32.33Zm-7,0h-2.84a54.72,54.72,0,0,1-2.86,5.46,54.14,54.14,0,0,1-19.27,19.09A50.43,50.43,0,0,1,107,154.05c-1.64.17-3.38.31-5.22.4H99.82c-1.84-.09-3.58-.23-5.22-.4a50.48,50.48,0,0,1-19.44-6.71A54.11,54.11,0,0,1,55.9,128.25,52.71,52.71,0,0,1,53,122.79H50.2l.23.54a55.59,55.59,0,0,0,26.44,28.1v.11A60.49,60.49,0,0,0,88,155.74a54.1,54.1,0,0,0,7.33,1.09c1.48.16,3,.26,4.46.3l.46,0h1l.45,0c1.5,0,3-.14,4.46-.3a54.1,54.1,0,0,0,7.33-1.09,60.55,60.55,0,0,0,11.15-4.2v-.11A54.5,54.5,0,0,0,139.2,141a55.27,55.27,0,0,0,11.94-17.68l.23-.54Zm-14.74.07h-1.91a40.13,40.13,0,0,1-10,11v-.09c-.88.68-1.75,1.32-2.61,1.91-.6.38-1.22.76-1.85,1.12a39,39,0,0,1-17.14,5.2c-.59,0-1.18,0-1.79,0a39.17,39.17,0,0,1-20-5.3,40.15,40.15,0,0,1-14.49-14h-1.9l.15.27a41.93,41.93,0,0,0,11.78,12.87v.26a41.44,41.44,0,0,0,11.14,6A41.44,41.44,0,0,0,100.25,144c1.24,0,2.47-.05,3.69-.16a38.43,38.43,0,0,0,9.61-1.73,41.42,41.42,0,0,0,11.15-6V136a41.55,41.55,0,0,0,11.77-12.87Z"/><path class="cls-3" d="M57,63.38a49.09,49.09,0,0,1,9.84-14.32A48.13,48.13,0,0,1,77.42,41v-.08A47.64,47.64,0,0,1,88.91,36a46.49,46.49,0,0,1,8-1.15c1.12-.09,2.24-.14,3.38-.15H102c1.13,0,2.26.06,3.38.15a46.22,46.22,0,0,1,8,1.15,47.31,47.31,0,0,1,11.49,4.89V41a48,48,0,0,1,10.56,8.11,48.86,48.86,0,0,1,9.83,14.32H143a46.06,46.06,0,0,0-9.18-13.19,47.43,47.43,0,0,0-8.94-7.08v.13a45.36,45.36,0,0,0-47.45,0v-.13a47.69,47.69,0,0,0-8.93,7.08,46.06,46.06,0,0,0-9.18,13.19Zm79.11,0H138c-.26-.48-.53-1-.8-1.42A40.75,40.75,0,0,0,122.34,47.1a41.73,41.73,0,0,0-20.29-5.82h-1.77A41.73,41.73,0,0,0,80,47.1,40.65,40.65,0,0,0,65.12,62c-.28.47-.55.94-.8,1.42h1.86a40.18,40.18,0,0,1,6.58-8.85,37.86,37.86,0,0,1,4.69-4.09v.13a39.77,39.77,0,0,1,47.42,0v-.13a38.69,38.69,0,0,1,4.7,4.09,40.14,40.14,0,0,1,6.57,8.85Zm13,0H152c-.23-.62-.48-1.23-.73-1.84A53.76,53.76,0,0,0,139.47,44a55.49,55.49,0,0,0-14.6-10.53v-.13a58.15,58.15,0,0,0-6.4-2.57,53.24,53.24,0,0,0-17.18-2.93h-1A53.25,53.25,0,0,0,83.09,30.8a59,59,0,0,0-6.4,2.57v.13A55.65,55.65,0,0,0,62.09,44,53.89,53.89,0,0,0,50.33,61.54c-.26.61-.5,1.22-.73,1.84h2.82a50.36,50.36,0,0,1,3.31-6.82,52.23,52.23,0,0,1,18.75-19c.73-.43,1.47-.85,2.21-1.24v0a54.43,54.43,0,0,1,24.09-6,54.37,54.37,0,0,1,24.09,6v0c.75.39,1.49.81,2.22,1.24a53,53,0,0,1,22.06,25.85Zm6,0h3.07c-.47-1.38-1-2.75-1.55-4.11a62.47,62.47,0,0,0-13-19.64,59.44,59.44,0,0,0-19.34-13.28,58.14,58.14,0,0,0-23.08-4.68h-1a58.23,58.23,0,0,0-23.09,4.68A59.39,59.39,0,0,0,57.86,39.63a62.3,62.3,0,0,0-13,19.64c-.57,1.36-1.09,2.73-1.55,4.11h3.06A59.81,59.81,0,0,1,50.67,54,57.51,57.51,0,0,1,71.48,32.72a54.71,54.71,0,0,1,25.06-7.83c1.31-.06,2.73-.1,4.24-.12s2.93.06,4.25.12a54.67,54.67,0,0,1,25.05,7.83A57.61,57.61,0,0,1,150.9,54a58.84,58.84,0,0,1,4.29,9.34Zm6.57,0h3.67a66,66,0,0,0-6.24-14.32A67.67,67.67,0,0,0,134.8,24.49a66.79,66.79,0,0,0-9.93-4.83v-.09a75.88,75.88,0,0,0-11.69-3.3,65.17,65.17,0,0,0-7.2-.83c-1.48-.1-3-.16-4.48-.17h-1.43c-1.51,0-3,.07-4.48.17a64.61,64.61,0,0,0-7.2.83,75.67,75.67,0,0,0-11.7,3.3v.09a66.69,66.69,0,0,0-9.92,4.83A67.52,67.52,0,0,0,42.38,49.06a66,66,0,0,0-6.24,14.32H39.8a62.65,62.65,0,0,1,5.64-12.6,64.16,64.16,0,0,1,53.86-32l1.45,0h.07l1.45,0a64.13,64.13,0,0,1,53.85,32,61.55,61.55,0,0,1,5.64,12.6Zm6.5,0h4.44a73.25,73.25,0,0,0-7.49-18,74.51,74.51,0,0,0-26.77-27,71.37,71.37,0,0,0-36.94-10h-1.43a71.4,71.4,0,0,0-36.95,10,74.4,74.4,0,0,0-26.76,27,72.87,72.87,0,0,0-7.49,18h4.44a66.5,66.5,0,0,1,2.74-7.82,70,70,0,0,1,15-22.36A71.21,71.21,0,0,1,73.41,18a66.59,66.59,0,0,1,20.53-5.17q3.18-.24,6.83-.27h0c2.43,0,4.7.11,6.83.27A66.66,66.66,0,0,1,128.16,18,71.06,71.06,0,0,1,150.48,33.2a69.86,69.86,0,0,1,15,22.36,68.37,68.37,0,0,1,2.74,7.82Zm6.69,0h6.33a79.89,79.89,0,0,0-8.88-22.06,83.42,83.42,0,0,0-29.9-30A79.27,79.27,0,0,0,101.7,0H99.86a79.29,79.29,0,0,0-40.8,11.28,83.4,83.4,0,0,0-29.89,30,79.89,79.89,0,0,0-8.88,22.06h6.33A80.12,80.12,0,0,1,47.23,27.73,78.51,78.51,0,0,1,71.41,11.42,71.12,71.12,0,0,1,93.9,5.82h0c2.12-.14,4.41-.22,6.85-.23s4.73.09,6.86.23h0a71.06,71.06,0,0,1,22.48,5.6,78,78,0,0,1,41,41.11A80.18,80.18,0,0,1,175,63.38Z"/></g></g></svg>