<svg xmlns="http://www.w3.org/2000/svg" xmlns:xlink="http://www.w3.org/1999/xlink" viewBox="0 0 434.01 434"><defs><style>.cls-1{fill:none;clip-rule:evenodd;}.cls-10,.cls-2{fill:#3c4a6d;}.cls-3{fill:#c54b42;}.cls-4{fill:#32415e;}.cls-5{fill:#bb483e;}.cls-6{fill:#efefef;}.cls-7{fill:#ffce54;}.cls-8{fill:#dcdcdc;}.cls-9{fill:#d1d1d1;}.cls-10,.cls-11,.cls-14,.cls-15,.cls-16,.cls-17,.cls-18,.cls-19{fill-rule:evenodd;}.cls-11{fill:#fefefe;}.cls-12{clip-path:url(#clip-path);}.cls-13,.cls-17{fill:#f48020;}.cls-14{fill:#ed5565;}.cls-15{fill:#8ec244;}.cls-16{fill:#f8b716;}.cls-18{fill:#ee3e36;}.cls-19{fill:#57474a;}</style><clipPath id="clip-path"><path class="cls-1" d="M118.13,337.57a36.75,36.75,0,0,1-13.34.62A27.56,27.56,0,0,1,92,333.32c-11.11-7.83-17.78-23.59-21-36.3-2-7.49-3.21-15.44-2.72-22.28.25-5.05,1.24-11.1,4.94-13.12,8.4-4.64,26.17,8.34,35.56,16.43,8.88,7.57,24.94,23.79,27.91,35.84A18.1,18.1,0,0,1,135.9,325l-.25,1h0l-1,1.7v-.28c-3.7,5.55-10.37,8.85-16.53,10.21Z"/></clipPath></defs><title>airdrop</title><g id="Layer_2" data-name="Layer 2"><g id="Layer_1-2" data-name="Layer 1"><path class="cls-2" d="M13.56,115.28,217,217,420.44,115.28v217L217,434,13.56,332.28Z"/><path class="cls-3" d="M13.56,135.63V199l202.76,99.35,204.12-99.69V135.63L217,235.31Z"/><path class="cls-4" d="M217,434V217L27.13,122.07H13.56V332.29Z"/><path class="cls-5" d="M13.56,135.63V199l202.76,99.35L217,298V235.31Z"/><path class="cls-2" d="M0,108.16,217,0,434,108.16V122.4L217,230.56,0,122.74Z"/><path class="cls-6" d="M341.44,34.25c-7.12-12.89-22.38-20.69-40.35-20.69-41,0-69.85,38.32-84.09,62.73C202.76,51.88,173.6,13.9,132.91,13.9c-26.1,0-44.76,15.94-44.76,37.64,0,38.65,42.39,63.74,127.49,63.74s130.21-32.21,130.21-63.4a35.8,35.8,0,0,0-4.41-17.63ZM141.73,76c-9.5-6.44-12.88-13.56-12.88-18.31,0-5.76,5.42-10.17,13.22-10.17,18.31,0,32.89,24.07,41,40.69-21.35-1.7-33.9-7.46-41.36-12.21Zm150.55,0c-7.47,4.75-20,10.51-41.37,12.21,7.79-16.62,22.38-40.69,41-40.69,7.8,0,13.23,4.41,13.23,10.17,0,4.75-3.39,11.87-12.88,18.31Z"/><path class="cls-7" d="M0,108.5,217,214.63,434,108.5v70.19L216.32,284.81,0,178.69Z"/><path class="cls-6" d="M298.38,184.11v-7.8L217,132.23l-81.37,44.08v7.8L81.38,160.38V149.53L214.29,79.34,217,80.7l2.72-1.36,132.91,69.85V160Z"/><path class="cls-8" d="M298.38,176.31V393l54.25-27.13V149.19Z"/><path class="cls-9" d="M81.37,366.19l54.26,27.12V176.65L81.37,149.19Z"/><path class="cls-10" d="M118.94,345a46.77,46.77,0,0,1-14,.36,28.37,28.37,0,0,1-13.52-4.84C79.69,332,72.66,315.43,69.28,302c-2.08-7.88-3.38-16.25-2.86-23.16.26-5.6,1.3-12,5.21-14.1,8.84-4.88,27.55,8.77,37.44,17.3,9.35,8,26.25,25.05,29.37,37.74a20,20,0,0,1-.78,11.94l-.26.73h0l-1,1.79V334c-3.9,5.85-10.92,9.33-17.42,11.05Z"/><path class="cls-11" d="M118.94,339.3a38.54,38.54,0,0,1-14,.65,29.09,29.09,0,0,1-13.52-5.12C79.69,326.58,72.66,310,69.28,296.6c-2.08-7.89-3.38-16.26-2.86-23.45.26-5.32,1.3-11.69,5.21-13.82,8.84-4.88,27.55,8.78,37.44,17.3,9.35,8,26.25,25.05,29.37,37.74a19,19,0,0,1-.78,11.65l-.26,1h0l-1,1.79v-.29c-3.9,5.84-10.92,9.32-17.42,10.75Z"/><g class="cls-12"><path class="cls-13" d="M107.36,310.71c.86-1.28,2.83-5.17,2.83-5.17l1-2.74a41.82,41.82,0,0,1-5.6-3.53l-.11,12.66A2.37,2.37,0,0,0,107.36,310.71Z"/><path class="cls-14" d="M73.18,261.62c-3.7,2-4.69,8.07-4.94,13.12a65.88,65.88,0,0,0,1.81,18.52c2.91,1.41,5.42,2.52,5.62,2.35.49-.41,1.07-19.79,2-20.94.67-.8,9.8-5.35,15.44-8.12C85.64,262,77.92,259,73.18,261.62Z"/><path class="cls-14" d="M95,274.14a8,8,0,0,1,2.48,4.28l23.37,11.34a146.41,146.41,0,0,0-12.15-11.71c-5.66-4.88-14.37-11.52-22.24-15L72,265.24a8,8,0,0,0-2.1.63,28.85,28.85,0,0,0-1.61,8.87C67.75,281.58,69,289.53,71,297c2.83,11.19,8.33,24.73,17.19,33.15,1.75-1.92,7.11-8.36,8.84-11,0,0-.8-3.94-.83-4.13-.18-1.33-1.69-7.8-1.69-7.8s-4.39-4.75-7-7.72-2.6-2.72-2.66-4.12l.34-.37s.07-.77.63-.75H86c0-.13.22-.84.74-.51A7.66,7.66,0,0,1,89.14,297c.19,1.06-.72,1.12.8,2.35s3.63,2.83,3.63,2.83-1.26-6-1.16-8.69a6.87,6.87,0,0,1,1.31-4.25,2.79,2.79,0,0,0-.82-3.07c-.59-.2-1-.39-1.33-.49a2.37,2.37,0,0,1-1.69-1.53,10.38,10.38,0,0,1-.22-1.13l-.4-1.41s-.88-.25-1-.55.77-.9.78-1.92a2,2,0,0,0-.42-1.44,20.33,20.33,0,0,1-.41-3.48C88.25,272.43,91.59,271.31,95,274.14Z"/><path class="cls-10" d="M105.75,338.27c-1.53-2.89-2.93-5.59-2.93-5.59a39.19,39.19,0,0,1-5.23,3.7,32.87,32.87,0,0,0,7.2,1.81C105.11,338.23,105.43,338.24,105.75,338.27Z"/><path class="cls-15" d="M124.39,293.68l-26.5-12.85a19.57,19.57,0,0,1,0,2.58l16.22,7.87a1.25,1.25,0,0,1,.65,1,.42.42,0,0,1-.65.4l-16.32-7.92a1.43,1.43,0,0,0,0,.4c.87,2.92,1.25,3.61,2.48,4a10.75,10.75,0,0,1,3,1.46l29.38,14.25A85.33,85.33,0,0,0,124.39,293.68Z"/><path class="cls-16" d="M124.7,308.42l-8.23-4a4.47,4.47,0,0,1-1.19,1.79l-.18.17,22,10.68a20.37,20.37,0,0,0-.47-3.18,28.58,28.58,0,0,0-2.31-6l-26.42-12.81c2.22,1.9,6.78,5.39,8.38,7.8l8.4,4.07a1.25,1.25,0,0,1,.65,1A.42.42,0,0,1,124.7,308.42Z"/><path class="cls-17" d="M113.72,308c-.79.95-1.72,2.11-2.52,3.12L133,321.66a1.24,1.24,0,0,1,.65,1,.41.41,0,0,1-.65.4l-22.65-11c-.58.74-1,1.25-1,1.25s0,.41-.09.95l25.8,12.51.51-.87.25-1a16.58,16.58,0,0,0,1.23-5.66Z"/><path class="cls-18" d="M133.85,328.42l-24.74-12a1.25,1.25,0,0,1-.3-.21,1.24,1.24,0,0,1-.71.68c-1.2.33-1.85-.42-1.71.4a13.79,13.79,0,0,0,.37,1.61l16,7.75a1.24,1.24,0,0,1,.65,1,.42.42,0,0,1-.65.4l-15.36-7.46c.4,1,.86,2,1.28,3.45l19.48,9.45A22.15,22.15,0,0,0,133.85,328.42Z"/><path class="cls-19" d="M109,326.48a12.22,12.22,0,0,1-.12,1.68s.46,1,1.09,2.36l6.26,3a1.24,1.24,0,0,1,.65,1,.42.42,0,0,1-.65.4l-5.44-2.64c.59,1.33,1.23,2.79,1.77,4.08l3.23,1.57c.78-.13,1.55-.25,2.31-.43a33,33,0,0,0,7.89-2.85Z"/></g></g></g></svg>