<svg xmlns="http://www.w3.org/2000/svg" viewBox="0 0 54.5 54"><defs><style>.cls-1{fill:#fff;}.cls-2{fill:#a0d468;stroke:#190143;stroke-miterlimit:10;}.cls-3{fill:#190143;}</style></defs><title>blockchain</title><g id="Layer_2" data-name="Layer 2"><g id="Layer_1-2" data-name="Layer 1"><path class="cls-1" d="M32.23,0H4.35A4.35,4.35,0,0,0,0,4.35v45.3A4.35,4.35,0,0,0,4.35,54H32.23a4.35,4.35,0,0,0,4.35-4.35V4.35A4.35,4.35,0,0,0,32.23,0ZM4.35,1.74H32.23a2.61,2.61,0,0,1,2.61,2.61v.88H1.74V4.35A2.61,2.61,0,0,1,4.35,1.74ZM32.23,52.26H4.35a2.61,2.61,0,0,1-2.61-2.61V47H29.61V45.29H1.74V7h33.1V49.65A2.61,2.61,0,0,1,32.23,52.26Z"/><polygon class="cls-2" points="9.74 41.81 54 41.81 54 10.45 5.23 10.45 5.23 41.81 7.93 41.81 9.74 41.81"/><rect class="cls-1" x="13.06" y="48.77" width="10.45" height="1.74"/><rect class="cls-1" x="31.35" y="45.29" width="4.35" height="1.74"/><path class="cls-3" d="M26.13,30.48h-7V21.77h7ZM20.9,28.74h3.49V23.52H20.9Z"/><rect class="cls-3" x="15.68" y="21.77" width="1.74" height="8.71"/><path class="cls-3" d="M41.81,30.48h-7V21.77h7Zm-5.23-1.74h3.48V23.52H36.58Z"/><rect class="cls-3" x="27.87" y="21.77" width="1.74" height="8.71"/><rect class="cls-3" x="31.35" y="21.77" width="1.74" height="8.71"/><rect class="cls-3" x="43.55" y="21.77" width="1.74" height="8.71"/><rect class="cls-3" x="47.03" y="21.77" width="1.74" height="8.71"/><path class="cls-3" d="M20.09,38.3A13.53,13.53,0,0,1,18.18,38l.39-1.7a11,11,0,0,0,1.63.24Zm1.93,0-.16-1.73a11.58,11.58,0,0,0,1.63-.28L23.92,38A14,14,0,0,1,22,38.27Zm-5.69-.83a11.56,11.56,0,0,1-1.72-.87l.9-1.49a9.29,9.29,0,0,0,1.48.74Zm9.42-.12-.7-1.6a9.72,9.72,0,0,0,1.46-.78l.94,1.47A13.18,13.18,0,0,1,25.75,37.32ZM13,35.45a11.73,11.73,0,0,1-1.37-1.36L13,33a10.86,10.86,0,0,0,1.18,1.17Zm-2.51-2.91a12.73,12.73,0,0,1-.89-1.72l1.61-.67A10.22,10.22,0,0,0,12,31.62ZM9.05,29a12.12,12.12,0,0,1-.3-1.9l1.73-.14a11,11,0,0,0,.26,1.64Zm1.43-3.69-1.73-.14a12.06,12.06,0,0,1,.3-1.91l1.7.41A11,11,0,0,0,10.48,25.29Zm.78-3.21-1.6-.67a13.93,13.93,0,0,1,.88-1.72l1.48.92A11.35,11.35,0,0,0,11.26,22.08ZM13,19.28l-1.32-1.14a11,11,0,0,1,1.38-1.35l1.12,1.33A10,10,0,0,0,13,19.28Zm13.53-2a10.23,10.23,0,0,0-1.46-.78l.7-1.6a12.12,12.12,0,0,1,1.7.92Zm-11-.17-.9-1.49a12.12,12.12,0,0,1,1.73-.86L17,16.42A10.22,10.22,0,0,0,15.54,17.16Zm8-1.15a10.13,10.13,0,0,0-1.63-.29L22.05,14a12.18,12.18,0,0,1,1.9.33Zm-4.92-.08-.39-1.7A12.37,12.37,0,0,1,20.12,14l.11,1.74A9.84,9.84,0,0,0,18.6,15.93Z"/><rect class="cls-3" x="48.77" y="36.58" width="1.74" height="1.74"/><rect class="cls-3" x="36.58" y="36.58" width="10.45" height="1.74"/></g></g></svg>