<svg xmlns="http://www.w3.org/2000/svg" viewBox="0 0 58.73 54"><defs><style>.cls-1{fill:#ed5565;}.cls-2{fill:#3c4a6d;}.cls-3{fill:#ffce54;}</style></defs><title>contracts</title><g id="Layer_2" data-name="Layer 2"><g id="Layer_1-2" data-name="Layer 1"><rect class="cls-1" x="4.73" y="11.01" width="49.26" height="39.25"/><path class="cls-2" d="M54.09,54H4.64A4.64,4.64,0,0,1,0,49.36v-16H1.6v16a3,3,0,0,0,3,3H54.09a3,3,0,0,0,3-3v-16h1.6v16A4.64,4.64,0,0,1,54.09,54Z"/><path class="cls-2" d="M45.88,32.44h-33A12.86,12.86,0,0,1,0,19.59V6.74H58.73V19.59A12.87,12.87,0,0,1,45.88,32.44ZM1.6,8.34V19.59A11.27,11.27,0,0,0,12.85,30.84h33A11.27,11.27,0,0,0,57.13,19.59V8.34Z"/><rect class="cls-3" x="12.54" y="26.23" width="5.61" height="10.21"/><rect class="cls-3" x="40.58" y="26.23" width="5.61" height="10.21"/><path class="cls-2" d="M42.88,8.34h-27V3.72A3.73,3.73,0,0,1,19.57,0H39.16a3.73,3.73,0,0,1,3.72,3.72ZM17.45,6.74H41.28v-3A2.12,2.12,0,0,0,39.16,1.6H19.57a2.12,2.12,0,0,0-2.12,2.12Z"/><path class="cls-2" d="M19,37.25H11.74V25.43H19Zm-5.61-1.61h4V27h-4Z"/><path class="cls-2" d="M47,37.25H39.78V25.43H47Zm-5.61-1.61h4V27h-4Z"/></g></g></svg>