<svg xmlns="http://www.w3.org/2000/svg" viewBox="0 0 74.18 23.43"><defs><style>.cls-1{fill:#fff;}</style></defs><title>ethereum</title><g id="Layer_2" data-name="Layer 2"><g id="Layer_1-2" data-name="Layer 1"><path class="cls-1" d="M7.13,16.26,6.56,16c-2-1.21-4.07-2.43-6.12-3.61-.49-.28-.56-.54-.27-1Q3.5,5.85,6.8.33c.26-.42.44-.46.72,0q3.35,5.58,6.71,11.15c.18.29.23.52-.12.73L7.51,16.1A2.72,2.72,0,0,1,7.13,16.26Z"/><path class="cls-1" d="M.28,13.66a7.33,7.33,0,0,1,1.59.84c1.52.88,3,1.77,4.53,2.7a1.21,1.21,0,0,0,1.46,0c1.78-1.09,3.57-2.13,5.36-3.19l.95-.55c.09.39-.15.57-.28.76C11.81,17.15,9.72,20.08,7.65,23c-.31.44-.54.61-.93.06-2.08-3-4.18-5.92-6.28-8.88C.34,14.06.18,13.93.28,13.66Z"/><path class="cls-1" d="M66.61,10.54C68,9.45,68.76,9.48,70,10.68c.23.24.32.18.48,0a2,2,0,0,1,2.48-.73,2.27,2.27,0,0,1,1.27,2.37c0,.75,0,1.5,0,2.24,0,.18,0,.43-.22.45s-.29-.26-.3-.46c0-.9,0-1.81,0-2.71a1.5,1.5,0,0,0-1.2-1.5,1.56,1.56,0,0,0-1.73,1,3.47,3.47,0,0,0-.17.45A3.83,3.83,0,0,0,70.35,13c0,.53,0,1.06,0,1.6,0,.15,0,.35-.21.38s-.28-.21-.29-.38,0-.43,0-.64c0-.72,0-1.44,0-2.16a1.48,1.48,0,0,0-1.28-1.5,1.6,1.6,0,0,0-1.84,1.18,3.71,3.71,0,0,0-.16,1.1c0,.58,0,1.17,0,1.76,0,.24.1.63-.28.63S66,14.63,66,14.4q0-1.92,0-3.84c0-.21,0-.49.22-.55S66.43,10.34,66.61,10.54Z"/><path class="cls-1" d="M53.74,12.82h-1.6c-.58,0-.63.24-.43.69a2,2,0,0,0,3.09.8c.17-.13.3-.3.48-.42a.31.31,0,0,1,.29,0c.13.07.11.22,0,.35a1.56,1.56,0,0,1-.53.58A2.6,2.6,0,0,1,52,14.71a2.88,2.88,0,0,1-.81-3.27,2.5,2.5,0,0,1,2.62-1.68A2.68,2.68,0,0,1,56,12c.13.6-.1.86-.68.86h-1.6Zm-.24-.63H55c.37,0,.45-.19.35-.52a1.95,1.95,0,0,0-3.72,0c-.09.32,0,.52.35.52Z"/><path class="cls-1" d="M32,10.37c.07,0,.16,0,.21-.07,1.36-1.19,3.34-.37,3.45,1.68,0,.85,0,1.7,0,2.55,0,.19,0,.45-.24.46s-.25-.29-.26-.49c0-.71,0-1.43,0-2.15-.05-1.37-.68-2.1-1.72-2a1.93,1.93,0,0,0-1.65,2.26,13.22,13.22,0,0,1,0,2c0,.18,0,.43-.24.45s-.27-.27-.32-.46a1,1,0,0,1,0-.24c0-2.66,0-5.33,0-8,0-.25-.08-.69.33-.67s.26.42.26.67c0,1.09,0,2.18,0,3.28C31.9,9.84,31.81,10.12,32,10.37Z"/><path class="cls-1" d="M20.71,15.27a2.66,2.66,0,0,1-2.6-2.54,2.78,2.78,0,0,1,2.24-3,2.63,2.63,0,0,1,2.83,2.17c.12.59-.07.87-.66.87-1,0-2.08,0-3.12,0-.7,0-.79.19-.46.82a2,2,0,0,0,3.2.54c.18-.16.36-.57.62-.29s-.1.52-.3.71A2.57,2.57,0,0,1,20.71,15.27Zm-.08-3.07H22c.59,0,.71-.3.44-.77a1.9,1.9,0,0,0-1.79-1.12,1.93,1.93,0,0,0-1.75,1.18c-.26.51-.1.74.47.72Z"/><path class="cls-1" d="M41.16,12.82H39.65c-.67,0-.7.3-.44.8a2,2,0,0,0,3.19.58c.19-.15.37-.56.62-.28s-.11.52-.31.71a2.57,2.57,0,0,1-3,.26,2.87,2.87,0,0,1-1.11-3.31,2.55,2.55,0,0,1,2.6-1.82,2.68,2.68,0,0,1,2.3,2.13c.12.6,0,.93-.7.92h-1.6Zm-.25-.62h1.44c.48,0,.61-.24.4-.67a1.9,1.9,0,0,0-1.64-1.21,1.88,1.88,0,0,0-1.86,1c-.38.64-.27.85.46.88C40.11,12.21,40.51,12.2,40.91,12.2Z"/><path class="cls-1" d="M62.46,14.46a2,2,0,0,1-2.42.66,2.24,2.24,0,0,1-1.28-2.21c0-.77,0-1.54,0-2.31,0-.23,0-.57.28-.56s.25.36.26.59c0,.77,0,1.54,0,2.31,0,1.06.53,1.7,1.34,1.79,1,.1,1.54-.36,1.82-1.49a14.42,14.42,0,0,0,.13-2.54c0-.25-.07-.65.26-.66s.27.4.27.64q0,1.88,0,3.75c0,.23.08.56-.21.63S62.68,14.67,62.46,14.46Z"/><path class="cls-1" d="M26.88,12.76c0-.4,0-.8,0-1.2.05-.68,0-1.25-.92-1.18a.27.27,0,0,1-.34-.25A.27.27,0,0,1,26,9.86c.87,0,1-.47.94-1.18,0-.21-.08-.58.25-.56s.28.37.26.6c0,.68.1,1.16.92,1.13.15,0,.34.08.31.29a.31.31,0,0,1-.36.24c-.8,0-.88.46-.86,1.1,0,1,0,2,0,3,0,.21,0,.57-.3.54s-.2-.34-.2-.53C26.88,13.93,26.88,13.34,26.88,12.76Z"/><path class="cls-1" d="M47,10.72a2.46,2.46,0,0,1,1.33-.8c.18,0,.41-.07.47.18s-.15.27-.3.31c-1.31.39-1.63,1.39-1.63,2.6,0,.54,0,1.07,0,1.6,0,.16,0,.35-.21.38s-.28-.15-.28-.3c0-1.46,0-2.93,0-4.39,0-.13.08-.3.22-.29C47,10,46.71,10.49,47,10.72Z"/></g></g></svg>