<svg xmlns="http://www.w3.org/2000/svg" viewBox="0 0 54 54"><defs><style>.cls-1{fill:#a0d468;}.cls-2{fill:#002fc7;}.cls-3{fill:#190143;}</style></defs><title>gear</title><g id="Layer_2" data-name="Layer 2"><g id="Layer_1-2" data-name="Layer 1"><path class="cls-1" d="M5.4,9.9A4.51,4.51,0,0,0,9.9,5.4,4.5,4.5,0,1,0,5.4,9.9Z"/><circle class="cls-1" cx="5.4" cy="27" r="4.5"/><path class="cls-1" d="M5.4,53.1a4.51,4.51,0,0,0,4.5-4.5,4.51,4.51,0,0,0-4.5-4.5,4.5,4.5,0,1,0,0,9Z"/><path class="cls-1" d="M48.6.9a4.51,4.51,0,0,0-4.5,4.5,4.51,4.51,0,0,0,4.5,4.5,4.5,4.5,0,0,0,0-9Z"/><circle class="cls-1" cx="48.6" cy="27" r="4.5"/><path class="cls-1" d="M48.6,44.1a4.51,4.51,0,0,0-4.5,4.5,4.5,4.5,0,1,0,4.5-4.5Z"/><circle class="cls-1" cx="27" cy="5.4" r="4.5"/><circle class="cls-1" cx="27" cy="48.6" r="4.5"/><path class="cls-2" d="M16.2,25.2v3.6h2.91a7.94,7.94,0,0,0,1,2.51l-2.06,2.05,1.27,1.28,1.28,1.27,2.05-2.06a7.94,7.94,0,0,0,2.51,1V37.8h3.6V34.89a7.94,7.94,0,0,0,2.51-1l2.05,2.06,1.28-1.27,1.27-1.28-2.06-2.05a7.94,7.94,0,0,0,1-2.51H37.8V25.2H34.89a7.94,7.94,0,0,0-1-2.51l2.06-2.05-1.27-1.28-1.28-1.27-2.05,2.06a7.94,7.94,0,0,0-2.51-1V16.2H25.2v2.91a7.94,7.94,0,0,0-2.51,1l-2.05-2.06-1.28,1.27-1.27,1.28,2.06,2.05a7.94,7.94,0,0,0-1,2.51ZM27,23.4A3.6,3.6,0,1,1,23.4,27,3.6,3.6,0,0,1,27,23.4Z"/><path class="cls-3" d="M54,5.4a5.4,5.4,0,0,0-10.72-.9h-11a5.39,5.39,0,0,0-10.64,0h-11A5.4,5.4,0,1,0,4.5,10.72v11a5.39,5.39,0,0,0,0,10.64v11a5.4,5.4,0,1,0,6.22,6.22h11a5.39,5.39,0,0,0,10.64,0h11a5.4,5.4,0,1,0,6.22-6.22v-11a5.39,5.39,0,0,0,0-10.64v-11A5.41,5.41,0,0,0,54,5.4ZM43.28,26.1H38.7v-.9a.9.9,0,0,0-.9-.9H35.58A8.84,8.84,0,0,0,35,22.84l1.58-1.57a.9.9,0,0,0,0-1.27l-.64-.64L45.48,9.8a5.4,5.4,0,0,0,2.22.92v11A5.4,5.4,0,0,0,43.28,26.1Zm2.2,18.1-9.57-9.56.64-.64a.9.9,0,0,0,0-1.27L35,31.16a8.84,8.84,0,0,0,.61-1.46H37.8a.9.9,0,0,0,.9-.9v-.9h4.58a5.4,5.4,0,0,0,4.42,4.42v11A5.4,5.4,0,0,0,45.48,44.2ZM26.1,36.9v-2a.89.89,0,0,0-.7-.87,7,7,0,0,1-2.23-.93.89.89,0,0,0-1.11.13l-1.42,1.42-1.28-1.28,1.42-1.42a.89.89,0,0,0,.13-1.11A7.26,7.26,0,0,1,20,28.6a.91.91,0,0,0-.88-.7h-2V26.1h2a.89.89,0,0,0,.87-.7,7.28,7.28,0,0,1,.93-2.23.89.89,0,0,0-.13-1.11l-1.42-1.42,1.28-1.28,1.42,1.42a.89.89,0,0,0,1.11.13A7.28,7.28,0,0,1,25.4,20a.89.89,0,0,0,.7-.87v-2h1.8v2a.89.89,0,0,0,.7.87,7.28,7.28,0,0,1,2.23.93.9.9,0,0,0,1.11-.13l1.42-1.42,1.28,1.28-1.42,1.42a.89.89,0,0,0-.13,1.11A7.26,7.26,0,0,1,34,25.4a.91.91,0,0,0,.88.7h2v1.8h-2a.89.89,0,0,0-.87.7,7.28,7.28,0,0,1-.93,2.23.89.89,0,0,0,.13,1.11l1.42,1.42-1.28,1.28-1.42-1.42a.89.89,0,0,0-1.11-.13A7,7,0,0,1,28.6,34a.89.89,0,0,0-.7.87v2ZM8.52,44.2a5.4,5.4,0,0,0-2.22-.92v-11a5.4,5.4,0,0,0,4.42-4.42H15.3v.9a.9.9,0,0,0,.9.9h2.22A8.84,8.84,0,0,0,19,31.16l-1.58,1.57a.9.9,0,0,0,0,1.27l.64.64Zm0-34.4,9.57,9.56-.64.64a.9.9,0,0,0,0,1.27L19,22.84a8.84,8.84,0,0,0-.61,1.46H16.2a.9.9,0,0,0-.9.9v.9H10.72A5.4,5.4,0,0,0,6.3,21.68v-11A5.4,5.4,0,0,0,8.52,9.8Zm40.08-8A3.6,3.6,0,1,1,45,5.4,3.6,3.6,0,0,1,48.6,1.8ZM32.32,6.3h11a5.4,5.4,0,0,0,.92,2.22l-9.56,9.57L34,17.45a.9.9,0,0,0-1.27,0L31.16,19a8.84,8.84,0,0,0-1.46-.61V16.2a.9.9,0,0,0-.9-.9h-.9V10.72A5.4,5.4,0,0,0,32.32,6.3ZM27,1.8a3.6,3.6,0,1,1-3.6,3.6A3.6,3.6,0,0,1,27,1.8Zm-.9,8.92V15.3h-.9a.9.9,0,0,0-.9.9v2.22a9.74,9.74,0,0,0-1.46.6l-1.57-1.57a.9.9,0,0,0-1.27,0l-.64.64L9.8,8.52a5.4,5.4,0,0,0,.92-2.22h11A5.4,5.4,0,0,0,26.1,10.72ZM1.8,5.4A3.6,3.6,0,1,1,5.4,9,3.6,3.6,0,0,1,1.8,5.4ZM1.8,27a3.6,3.6,0,1,1,3.6,3.6A3.6,3.6,0,0,1,1.8,27ZM5.4,52.2A3.6,3.6,0,1,1,9,48.6,3.6,3.6,0,0,1,5.4,52.2Zm16.28-4.5h-11a5.4,5.4,0,0,0-.92-2.22l9.56-9.57.64.64a.9.9,0,0,0,1.27,0L22.84,35a8.84,8.84,0,0,0,1.46.61V37.8a.9.9,0,0,0,.9.9h.9v4.58A5.4,5.4,0,0,0,21.68,47.7ZM27,52.2a3.6,3.6,0,1,1,3.6-3.6A3.6,3.6,0,0,1,27,52.2Zm.9-8.92V38.7h.9a.9.9,0,0,0,.9-.9V35.58a9.74,9.74,0,0,0,1.46-.6l1.57,1.57a.9.9,0,0,0,1.27,0l.64-.64,9.56,9.57a5.4,5.4,0,0,0-.92,2.22h-11A5.4,5.4,0,0,0,27.9,43.28ZM52.2,48.6A3.6,3.6,0,1,1,48.6,45,3.6,3.6,0,0,1,52.2,48.6Zm0-21.6a3.6,3.6,0,1,1-3.6-3.6A3.6,3.6,0,0,1,52.2,27Z"/><path class="cls-3" d="M31.5,27A4.5,4.5,0,1,0,27,31.5,4.51,4.51,0,0,0,31.5,27ZM27,29.7A2.7,2.7,0,1,1,29.7,27,2.7,2.7,0,0,1,27,29.7Z"/></g></g></svg>