<svg xmlns="http://www.w3.org/2000/svg" viewBox="0 0 39.6 54"><defs><style>.cls-1{fill:#ffce54;}.cls-2{fill:#3c4a6d;}.cls-3{fill:#ed5565;}.cls-4{fill:#fff;}</style></defs><title>hoodlers</title><g id="Layer_2" data-name="Layer 2"><g id="Layer_1-2" data-name="Layer 1"><path class="cls-1" d="M27.14,8.1H12.74a3.72,3.72,0,0,1-1.66-.4h0a3.71,3.71,0,0,1-1-5.9l.85-.9.9,1.8H23.25c2.8,0,5.55,2.74,4.65,5.4Z"/><path class="cls-1" d="M27.9,8.1a4.26,4.26,0,0,1,2.93,4.42L30.6,15.3,24.3,8.1Z"/><path class="cls-2" d="M15.3,8.1,9,15.3l-.23-2.78c-.17-2,1.37-3.6,2.93-4.42Z"/><path class="cls-2" d="M27,27.29a.9.9,0,0,1-1.6-.16l-.64-1.67a1.81,1.81,0,0,0-1.7-1.16H16.54a1.79,1.79,0,0,0-1.68,1.16l-.64,1.67a.9.9,0,0,1-1.6.16l-3.6-6v6.24a8.42,8.42,0,0,0,1.05,4.07l.33.59a10.91,10.91,0,0,0,19.5-.9h0a8.24,8.24,0,0,0,.7-3.39V21.69Z"/><path class="cls-3" d="M32.45,38.76l-4.82-.56-.31.71a8.18,8.18,0,0,1-15,0L12,38.2l-4.82.56A7.2,7.2,0,0,0,.9,45.9V54h.84V49.5H8.1V54H31.5V49.5h7.2V45.9A7.2,7.2,0,0,0,32.45,38.76Z"/><circle class="cls-2" cx="14.4" cy="18" r="1.8"/><circle class="cls-2" cx="25.2" cy="18" r="1.8"/><path class="cls-2" d="M19.8,25.2h-.9a.9.9,0,0,1-.89-1l.9-7.2,1.78.22-.89,7.15Z"/><path class="cls-2" d="M19.92,38.7A11.81,11.81,0,0,1,9.6,32.63L9.27,32A9.27,9.27,0,0,1,8.1,27.53V14.4H9.9V27.53a7.44,7.44,0,0,0,.94,3.63l.33.59A10,10,0,0,0,29.06,31a7.45,7.45,0,0,0,.64-3.05V14.4h1.8V27.9a9.29,9.29,0,0,1-.8,3.78A11.83,11.83,0,0,1,19.92,38.7Z"/><path class="cls-4" d="M19.8,29.7a9.56,9.56,0,0,1-3-.49l.58-1.7a7.67,7.67,0,0,0,4.83,0l.57,1.7A9.56,9.56,0,0,1,19.8,29.7Z"/><path class="cls-2" d="M26.22,28.61a1.93,1.93,0,0,1-.74-.16,1.79,1.79,0,0,1-.94-1l-.64-1.66a.9.9,0,0,0-.84-.58H16.54a.87.87,0,0,0-.86.58L15,27.45a1.8,1.8,0,0,1-3.2.32l-3.6-5.69,1.52-1,3.6,5.69L14,25.14a2.67,2.67,0,0,1,2.55-1.74h6.51a2.72,2.72,0,0,1,2.52,1.74l.64,1.66,3.62-5.68,1.52,1-3.62,5.69a1.83,1.83,0,0,1-.88.72A1.77,1.77,0,0,1,26.22,28.61Z"/><path class="cls-2" d="M27.9,9H12.74a4.61,4.61,0,0,1-4.1-6.7,4.93,4.93,0,0,1,.8-1.13l.85-.89A.92.92,0,0,1,11.08,0a.87.87,0,0,1,.67.49l.65,1.3H23.25a6.12,6.12,0,0,1,4.8,2.52,4.42,4.42,0,0,1,.7,4.07A.9.9,0,0,1,27.9,9ZM10.71,2.45a2.88,2.88,0,0,0-.47.67A2.82,2.82,0,0,0,11.49,6.9a2.72,2.72,0,0,0,1.26.3H27.17a2.84,2.84,0,0,0-.59-1.83A4.28,4.28,0,0,0,23.25,3.6H11.84a.88.88,0,0,1-.8-.5Z"/><path class="cls-2" d="M30.6,16.2a.92.92,0,0,1-.68-.31l-6.3-7.2L25,7.51l4.9,5.6.06-.67a3.61,3.61,0,0,0-2.35-3.69l.62-1.69a5.4,5.4,0,0,1,3.52,5.54l-.23,2.78a.92.92,0,0,1-.62.78A.9.9,0,0,1,30.6,16.2Z"/><path class="cls-2" d="M9,16.2a.69.69,0,0,1-.28-.05.89.89,0,0,1-.62-.77l-.23-2.79a5.39,5.39,0,0,1,3-5.3l.8,1.62a3.57,3.57,0,0,0-2,3.53l.06.67,4.9-5.6L16,8.69l-6.3,7.2A.92.92,0,0,1,9,16.2Z"/><path class="cls-2" d="M1.8,54H0V45.9a8.13,8.13,0,0,1,7-8l6.91-.81a2.72,2.72,0,0,0,1.62-.8l1.28,1.28a4.66,4.66,0,0,1-2.69,1.31l-6.9.81A6.31,6.31,0,0,0,1.8,45.9Z"/><path class="cls-2" d="M19.8,44.77h0a9.06,9.06,0,0,1-8.34-5.51l-.58-1.34,1.66-.71.57,1.34A7.29,7.29,0,0,0,19.8,43h0a7.29,7.29,0,0,0,6.7-4.42l.57-1.34,1.66.71-.58,1.34A9.07,9.07,0,0,1,19.8,44.77Z"/><path class="cls-2" d="M9,54H7.2V50.4H.9V48.6H8.1a.9.9,0,0,1,.9.9Z"/><path class="cls-2" d="M39.6,54H37.8V45.9a6.31,6.31,0,0,0-5.47-6.24l-6.87-.81a4.6,4.6,0,0,1-2.7-1.31L24,36.27a2.76,2.76,0,0,0,1.63.79l6.89.81a8.13,8.13,0,0,1,7,8Z"/><path class="cls-2" d="M32.4,54H30.6V49.5a.9.9,0,0,1,.9-.9h7.2v1.8H32.4Z"/><path class="cls-2" d="M30.6,21.6h-.9V19.8h.9a1.8,1.8,0,0,0,0-3.6h-.9V14.4h.9a3.6,3.6,0,1,1,0,7.2Z"/><path class="cls-2" d="M9.9,21.6H9a3.6,3.6,0,1,1,0-7.2h.9v1.8H9a1.8,1.8,0,1,0,0,3.6h.9Z"/></g></g></svg>