<svg xmlns="http://www.w3.org/2000/svg" viewBox="0 0 46.88 54"><defs><style>.cls-1{fill:#002fc7;}.cls-2{fill:#a0d468;stroke:#190143;stroke-miterlimit:10;}.cls-3{fill:#190143;}</style></defs><title>increase</title><g id="Layer_2" data-name="Layer 2"><g id="Layer_1-2" data-name="Layer 1"><rect class="cls-1" x="5.55" y="32" width="9.66" height="21.03"/><rect class="cls-1" x="18.67" y="21.87" width="9.66" height="31.15"/><rect class="cls-2" x="31.73" y="12.67" width="9.66" height="40.35"/><polygon class="cls-3" points="6.07 26.38 39.5 4.18 37.81 9.99 39.63 10.51 41.92 2.61 41.98 2.55 41.92 2.55 42.31 1.18 40.94 1.04 40.94 0.98 40.88 1.04 32.19 0 32 1.83 38.46 2.61 5.03 24.81 6.07 26.38"/><path class="cls-3" d="M42.38,52V11.69H30.82V52h-1.5V20.89H17.7V52H16.13v-21H4.64v21H0V54H46.88V52.11h-4.5ZM6.46,52V33H14.3V52.11H6.46Zm13.13,0V22.79h7.77V52Zm13.12,0V13.52h7.77V52Z"/></g></g></svg>