<svg xmlns="http://www.w3.org/2000/svg" viewBox="0 0 53.83 53.83"><defs><style>.cls-1{fill:#ed5565;}.cls-2{fill:#fff;}.cls-3{fill:#ffce54;}.cls-4{fill:#3c4a6d;}</style></defs><title>live-view</title><g id="Layer_2" data-name="Layer 2"><g id="Layer_1-2" data-name="Layer 1"><path class="cls-1" d="M6.38,52.78l8.2-8.2L11.3,41.31,1.05,51.56a1.22,1.22,0,0,0,1.22,1.22Z"/><path class="cls-2" d="M14.57,44.58,11.66,47.5,8.39,44.23l2.91-2.92Z"/><path class="cls-3" d="M13,42.93a12.62,12.62,0,1,1,17.85,0,12.63,12.63,0,0,1-17.85,0Z"/><path class="cls-2" d="M21.87,42.84A8.83,8.83,0,1,1,30.71,34a8.83,8.83,0,0,1-8.84,8.83Z"/><path class="cls-4" d="M30.05,42.19l0,0a1.05,1.05,0,0,0,1.48,1.5l.05,0a1.05,1.05,0,0,0-1.49-1.49Z"/><path class="cls-4" d="M31.54,24.35A13.67,13.67,0,0,0,10.12,41L.31,50.82a1.06,1.06,0,0,0,.74,1.8,1.05,1.05,0,0,0,.74-.31l6.55-6.55,1.78,1.79L5.63,52a1.05,1.05,0,0,0,.75,1.79,1,1,0,0,0,.74-.31l7.76-7.76a13.64,13.64,0,0,0,12.22.89,1.06,1.06,0,0,0-.81-1.95,11.57,11.57,0,1,1,6.47-6.79,1.06,1.06,0,0,0,.64,1.35,1,1,0,0,0,1.34-.64,13.63,13.63,0,0,0-3.2-14.27ZM11.61,46.06,9.83,44.28l1.53-1.54a12.64,12.64,0,0,0,.85.94c.3.3.61.58.93.85Z"/><path class="cls-4" d="M14.09,34v0a1,1,0,0,0-1-1.06h0a1.05,1.05,0,0,0-1,1V34a1.05,1.05,0,1,0,2.1,0Z"/><path class="cls-4" d="M21.87,43.9A9.89,9.89,0,1,0,13.2,29.27a1,1,0,0,0,.42,1.42,1.05,1.05,0,0,0,1.43-.41,7.77,7.77,0,1,1,0,7.49,1,1,0,1,0-1.84,1,9.87,9.87,0,0,0,8.65,5.12Z"/><path class="cls-4" d="M1.05,11.35a1,1,0,0,0,1.05-1V1.05a1.05,1.05,0,0,0-2.1,0V10.3a1,1,0,0,0,1.05,1Z"/><path class="cls-4" d="M8,11.35a3.74,3.74,0,0,0,3.74-3.74V3.74a3.74,3.74,0,1,0-7.48,0V7.61A3.73,3.73,0,0,0,8,11.35ZM6.31,3.74a1.64,1.64,0,1,1,3.27,0V7.61a1.64,1.64,0,1,1-3.27,0Z"/><path class="cls-4" d="M14.84,11.35a1,1,0,0,0,1.05-1V1.05a1,1,0,0,0-2.1,0V10.3a1,1,0,0,0,1.05,1Z"/><path class="cls-4" d="M21.74,11.35a3.74,3.74,0,0,0,3.74-3.74V3.74a3.74,3.74,0,0,0-7.48,0V7.61a3.73,3.73,0,0,0,3.74,3.74ZM20.1,3.74a1.64,1.64,0,1,1,3.27,0V7.61a1.64,1.64,0,1,1-3.27,0Z"/><path class="cls-4" d="M28.63,11.35a1,1,0,0,0,1.05-1V1.05a1,1,0,0,0-2.1,0V10.3a1,1,0,0,0,1.05,1Z"/><path class="cls-4" d="M52.78,0a1,1,0,0,0-1.05,1.05V10.3a1,1,0,0,0,2.1,0V1.05a1,1,0,0,0-1-1Z"/><path class="cls-4" d="M35.53,11.35a3.74,3.74,0,0,0,3.74-3.74V3.74a3.74,3.74,0,0,0-7.48,0V7.61a3.73,3.73,0,0,0,3.74,3.74ZM33.89,3.74a1.64,1.64,0,1,1,3.27,0V7.61a1.64,1.64,0,1,1-3.27,0Z"/><path class="cls-4" d="M45.11,11.35a3.74,3.74,0,0,0,3.74-3.74V3.74a3.74,3.74,0,0,0-7.48,0V7.61a3.74,3.74,0,0,0,3.74,3.74ZM43.47,3.74a1.64,1.64,0,0,1,3.28,0V7.61a1.64,1.64,0,0,1-3.28,0Z"/><path class="cls-4" d="M9.58,15.33v6.75a1.06,1.06,0,0,0,2.11,0V15.33a1.06,1.06,0,0,0-2.11,0Z"/><path class="cls-4" d="M3.74,25.64A3.75,3.75,0,0,0,7.48,21.9V18A3.74,3.74,0,1,0,0,18V21.9a3.75,3.75,0,0,0,3.74,3.74ZM2.1,18a1.64,1.64,0,0,1,3.28,0V21.9a1.64,1.64,0,0,1-3.28,0Z"/><path class="cls-4" d="M14.84,19.66a1,1,0,0,0,1.05-1.05V15.33a1.05,1.05,0,0,0-2.1,0v3.28a1,1,0,0,0,1.05,1.05Z"/><path class="cls-4" d="M19.05,19.66a1,1,0,0,0,1.05-1.05V18a1.64,1.64,0,1,1,3.27,0v.59a1.06,1.06,0,0,0,2.11,0V18A3.74,3.74,0,0,0,18,18v.59a1,1,0,0,0,1.05,1.05Z"/><path class="cls-4" d="M28.63,19.66a1,1,0,0,0,1.05-1.05V15.33a1.05,1.05,0,0,0-2.1,0v3.28a1,1,0,0,0,1.05,1.05Z"/><path class="cls-4" d="M32.84,23.13a1,1,0,0,0,1-1.05V15.33a1.05,1.05,0,1,0-2.1,0v6.75a1,1,0,0,0,1.05,1.05Z"/><path class="cls-4" d="M50.09,14.28A3.75,3.75,0,0,0,46.35,18V21.9a3.74,3.74,0,0,0,7.48,0V18a3.75,3.75,0,0,0-3.74-3.74Zm1.64,7.62a1.64,1.64,0,0,1-3.28,0V18a1.64,1.64,0,1,1,3.28,0Z"/><path class="cls-4" d="M44.25,21.9V18a3.75,3.75,0,0,0-7.49,0V21.9a3.75,3.75,0,0,0,7.49,0Zm-2.11,0a1.64,1.64,0,0,1-3.27,0V18a1.64,1.64,0,1,1,3.27,0Z"/><path class="cls-4" d="M20.3,38.87V29.61a1.05,1.05,0,0,0-2.1,0v9.26a1,1,0,0,0,2.1,0Z"/><path class="cls-4" d="M25.2,30.67a1.06,1.06,0,0,0,0-2.11,3.75,3.75,0,0,0-3.74,3.74v3.88a3.75,3.75,0,0,0,3.74,3.74,1.06,1.06,0,0,0,0-2.11,1.64,1.64,0,0,1-1.64-1.63V32.3a1.64,1.64,0,0,1,1.64-1.63Z"/><path class="cls-4" d="M38.22,28.56a1.05,1.05,0,0,0-1.06,1.05v9.26a1.06,1.06,0,0,0,2.11,0V29.61a1,1,0,0,0-1.05-1.05Z"/><path class="cls-4" d="M52.78,28.56a1,1,0,0,0-1.05,1.05v9.26a1.05,1.05,0,0,0,2.1,0V29.61a1,1,0,0,0-1-1.05Z"/><path class="cls-4" d="M45.11,28.56a3.75,3.75,0,0,0-3.74,3.74v3.88a3.74,3.74,0,0,0,7.48,0V32.3a3.75,3.75,0,0,0-3.74-3.74Zm1.64,7.62a1.64,1.64,0,0,1-3.28,0V32.3a1.64,1.64,0,0,1,3.28,0Z"/></g></g></svg>