<svg xmlns="http://www.w3.org/2000/svg" xmlns:xlink="http://www.w3.org/1999/xlink" viewBox="0 0 121.58 55.62"><defs><style>.cls-1{fill:none;clip-rule:evenodd;}.cls-12,.cls-2{fill:#3c4a6d;}.cls-10,.cls-11,.cls-2,.cls-3,.cls-6,.cls-7,.cls-8,.cls-9{fill-rule:evenodd;}.cls-3{fill:#fefefe;}.cls-4{clip-path:url(#clip-path);}.cls-5,.cls-9{fill:#f48020;}.cls-6{fill:#ed5565;}.cls-7{fill:#8ec244;}.cls-8{fill:#f8b716;}.cls-10{fill:#ee3e36;}.cls-11,.cls-15{fill:#57474a;}.cls-12{font-size:15.68px;font-family:UniversLTStd-Bold, Univers LT Std;font-weight:700;}.cls-13{letter-spacing:-0.02em;}.cls-14{letter-spacing:0em;}</style><clipPath id="clip-path"><path class="cls-1" d="M41.07,43.9A43.43,43.43,0,0,1,30.5,49c-3.13,1-6.85,1.76-10.17,1C11.52,48.21,6.23,39.21,3.68,31.19A39.3,39.3,0,0,1,1.53,16.12c.2-3.73,1-8.42,3.92-11.16,6.66-6.27,20.74-3.13,28.19-.59,7,2.35,19.76,8.42,22.11,16.05a13.13,13.13,0,0,1-.59,8.22l-.2.79h0L54.18,31v-.2c-2.93,5.28-8.22,10-13.11,13.11Z"/></clipPath></defs><title>logo-full_2</title><g id="Layer_2" data-name="Layer 2"><g id="Layer_1-2" data-name="Layer 1"><path class="cls-2" d="M41.72,49a55.43,55.43,0,0,1-11.13,5.15,21.16,21.16,0,0,1-10.71,1.23c-9.27-2-14.84-11.54-17.52-20A40.7,40.7,0,0,1,.09,19.72c.21-4.12,1-9.06,4.13-11.95,7-6.59,21.83-3.3,29.67-.61C41.3,9.63,54.7,16,57.18,24.05a14.41,14.41,0,0,1-.63,8.86l-.2.62h0l-.83,1.65V35c-3.09,5.57-8.65,10.52-13.8,14Z"/><path class="cls-3" d="M41.72,44.86a45.83,45.83,0,0,1-11.13,5.36c-3.29,1-7.21,1.85-10.71,1C10.61,49.4,5,39.92,2.36,31.47A41.24,41.24,0,0,1,.09,15.6c.21-3.91,1-8.86,4.13-11.74,7-6.6,21.83-3.3,29.67-.62C41.3,5.71,54.7,12.1,57.18,20.13a13.79,13.79,0,0,1-.63,8.66l-.2.83h0l-.83,1.65v-.21c-3.09,5.56-8.65,10.51-13.8,13.8Z"/><g class="cls-4"><path class="cls-5" d="M32.54,28.34c.68-1.23,2.25-4.71,2.25-4.71l.74-2.3a23.59,23.59,0,0,1-4.44-.58L31,29.89A3.43,3.43,0,0,0,32.54,28.34Z"/><path class="cls-6" d="M5.45,5C2.51,7.7,1.73,12.39,1.53,16.12A37.46,37.46,0,0,0,3,28.8a18.12,18.12,0,0,0,4.45-.27c.39-.46.85-14.6,1.62-15.77C9.58,12,16.82,5.49,21.28,1.54,15.32.88,9.21,1.42,5.45,5Z"/><path class="cls-6" d="M22.78,6.33a3.16,3.16,0,0,1,2,2.22H43.27a63.72,63.72,0,0,0-9.63-4.18c-4.5-1.53-11.4-3.27-17.64-3L4.47,8A11.57,11.57,0,0,0,2.81,9.17a24.46,24.46,0,0,0-1.28,7A39.3,39.3,0,0,0,3.68,31.19C5.93,38.25,10.29,46.06,17.31,49c1.39-2,5.64-8.49,7-11,0,0-.64-2.55-.66-2.68-.14-.89-1.34-5-1.34-5s-3.48-1.89-5.55-3.11-2.06-1.06-2.11-2l.27-.38a1,1,0,0,1,.5-.77l.16-.06c0-.11.17-.68.59-.63s1.76.78,1.91,1.47-.56,1.06.65,1.41,2.87.77,2.87.77a29,29,0,0,1-.92-5.84,6.79,6.79,0,0,1,1-3.51c.48-1.05-.29-2-.65-1.93s-.82.08-1,.11c-.76.1-1.23-.1-1.34-.51a6.32,6.32,0,0,1-.18-.73l-.32-.88s-.69.13-.82,0S18,12.79,18,12s-.34-.88-.34-.88a11.23,11.23,0,0,1-.32-2.36C17.39,7.48,20,5.51,22.78,6.33Z"/><path class="cls-2" d="M31.27,48.72c-1.22-1.55-2.33-3-2.33-3a59,59,0,0,1-4.14,4.49A27.47,27.47,0,0,0,30.5,49C30.76,48.91,31,48.81,31.27,48.72Z"/><path class="cls-7" d="M46,10.16H25A14,14,0,0,1,25,12H37.87a.52.52,0,0,1,0,1H24.93a.91.91,0,0,0,0,.27c.7,1.8,1,2.17,2,2a6.52,6.52,0,0,1,2.38,0H52.58A32.65,32.65,0,0,0,46,10.16Z"/><path class="cls-8" d="M46.29,20.65H39.76a5.8,5.8,0,0,1-.94,1.7l-.14.18H56.13a10.87,10.87,0,0,0-.38-2.11,11.6,11.6,0,0,0-1.83-3.49H33c1.76.59,5.38,1.51,6.64,2.69h6.67a.51.51,0,0,1,.51.51A.52.52,0,0,1,46.29,20.65Z"/><path class="cls-9" d="M37.58,24.14c-.63,1-1.37,2.12-2,3.12H52.9a.51.51,0,1,1,0,1h-18l-.76,1.24s0,.3-.07.71H54.56l.4-.8.2-.79a14.91,14.91,0,0,0,1-4.5Z"/><path class="cls-10" d="M53.54,31.83H33.93a.61.61,0,0,1-.24,0,1.85,1.85,0,0,1-.56.73c-1,.67-1.47.35-1.36.89a5.77,5.77,0,0,0,.3,1H44.73a.52.52,0,0,1,0,1H32.54a13.62,13.62,0,0,1,1,2H49A33.22,33.22,0,0,0,53.54,31.83Z"/><path class="cls-11" d="M33.86,39.1a9.29,9.29,0,0,1-.09,1.24l.86,1.33h5a.51.51,0,1,1,0,1H35.28c.47.75,1,1.58,1.4,2.32h2.57c.61-.36,1.22-.72,1.82-1.11a47.27,47.27,0,0,0,6.26-4.8Z"/></g><text class="cls-12" transform="translate(60.59 23.29)">Cryp<tspan class="cls-13" x="34.86" y="0">t</tspan><tspan class="cls-14" x="40.65" y="0">o</tspan><tspan class="cls-15"><tspan x="0" y="18.13">Champs</tspan></tspan></text></g></g></svg>