<svg xmlns="http://www.w3.org/2000/svg" xmlns:xlink="http://www.w3.org/1999/xlink" viewBox="0 0 121.13 55.62"><defs><style>.cls-1{fill:none;clip-rule:evenodd;}.cls-12,.cls-2{fill:#3c4a6d;}.cls-10,.cls-11,.cls-2,.cls-3,.cls-6,.cls-7,.cls-8,.cls-9{fill-rule:evenodd;}.cls-3{fill:#fefefe;}.cls-4{clip-path:url(#clip-path);}.cls-5,.cls-9{fill:#f48020;}.cls-6{fill:#ed5565;}.cls-7{fill:#8ec244;}.cls-8{fill:#f8b716;}.cls-10{fill:#ee3e36;}.cls-11,.cls-13{fill:#57474a;}</style><clipPath id="clip-path"><path class="cls-1" d="M41.07,43.9A43.43,43.43,0,0,1,30.5,49c-3.13,1-6.85,1.76-10.17,1C11.52,48.21,6.23,39.21,3.68,31.19A39.3,39.3,0,0,1,1.53,16.12c.2-3.73,1-8.42,3.92-11.16,6.66-6.27,20.74-3.13,28.19-.59,7,2.35,19.76,8.42,22.11,16.05a13.13,13.13,0,0,1-.59,8.22l-.2.79h0L54.18,31v-.2c-2.93,5.28-8.22,10-13.11,13.11Z"/></clipPath></defs><title>logo-full</title><g id="Layer_2" data-name="Layer 2"><g id="Layer_1-2" data-name="Layer 1"><path class="cls-2" d="M41.72,49a55.43,55.43,0,0,1-11.13,5.15,21.16,21.16,0,0,1-10.71,1.23c-9.27-2-14.84-11.54-17.52-20A40.7,40.7,0,0,1,.09,19.72c.21-4.12,1-9.06,4.13-11.95,7-6.59,21.83-3.3,29.67-.61C41.3,9.63,54.7,16,57.18,24.05a14.41,14.41,0,0,1-.63,8.86l-.2.62h0l-.83,1.65V35c-3.09,5.57-8.65,10.52-13.8,14Z"/><path class="cls-3" d="M41.72,44.86a45.83,45.83,0,0,1-11.13,5.36c-3.29,1-7.21,1.85-10.71,1C10.61,49.4,5,39.92,2.36,31.47A41.24,41.24,0,0,1,.09,15.6c.21-3.91,1-8.86,4.13-11.74,7-6.6,21.83-3.3,29.67-.62C41.3,5.71,54.7,12.1,57.18,20.13a13.79,13.79,0,0,1-.63,8.66l-.2.83h0l-.83,1.65v-.21c-3.09,5.56-8.65,10.51-13.8,13.8Z"/><g class="cls-4"><path class="cls-5" d="M32.54,28.34c.68-1.23,2.25-4.71,2.25-4.71l.74-2.3a23.59,23.59,0,0,1-4.44-.58L31,29.89A3.43,3.43,0,0,0,32.54,28.34Z"/><path class="cls-6" d="M5.45,5C2.51,7.7,1.73,12.39,1.53,16.12A37.46,37.46,0,0,0,3,28.8a18.12,18.12,0,0,0,4.45-.27c.39-.46.85-14.6,1.62-15.77C9.58,12,16.82,5.49,21.28,1.54,15.32.88,9.21,1.42,5.45,5Z"/><path class="cls-6" d="M22.78,6.33a3.16,3.16,0,0,1,2,2.22H43.27a63.72,63.72,0,0,0-9.63-4.18c-4.5-1.53-11.4-3.27-17.64-3L4.47,8A11.57,11.57,0,0,0,2.81,9.17a24.46,24.46,0,0,0-1.28,7A39.3,39.3,0,0,0,3.68,31.19C5.93,38.25,10.29,46.06,17.31,49c1.39-2,5.64-8.49,7-11,0,0-.64-2.55-.66-2.68-.14-.89-1.34-5-1.34-5s-3.48-1.89-5.55-3.11-2.06-1.06-2.11-2l.27-.38a1,1,0,0,1,.5-.77l.16-.06c0-.11.17-.68.59-.63s1.76.78,1.91,1.47-.56,1.06.65,1.41,2.87.77,2.87.77a29,29,0,0,1-.92-5.84,6.79,6.79,0,0,1,1-3.51c.48-1.05-.29-2-.65-1.93s-.82.08-1,.11c-.76.1-1.23-.1-1.34-.51a6.32,6.32,0,0,1-.18-.73l-.32-.88s-.69.13-.82,0S18,12.79,18,12s-.34-.88-.34-.88a11.23,11.23,0,0,1-.32-2.36C17.39,7.48,20,5.51,22.78,6.33Z"/><path class="cls-2" d="M31.27,48.72c-1.22-1.55-2.33-3-2.33-3a59,59,0,0,1-4.14,4.49A27.47,27.47,0,0,0,30.5,49C30.76,48.91,31,48.81,31.27,48.72Z"/><path class="cls-7" d="M46,10.16H25A14,14,0,0,1,25,12H37.87a.52.52,0,0,1,0,1H24.93a.91.91,0,0,0,0,.27c.7,1.8,1,2.17,2,2a6.52,6.52,0,0,1,2.38,0H52.58A32.65,32.65,0,0,0,46,10.16Z"/><path class="cls-8" d="M46.29,20.65H39.76a5.8,5.8,0,0,1-.94,1.7l-.14.18H56.13a10.87,10.87,0,0,0-.38-2.11,11.6,11.6,0,0,0-1.83-3.49H33c1.76.59,5.38,1.51,6.64,2.69h6.67a.51.51,0,0,1,.51.51A.52.52,0,0,1,46.29,20.65Z"/><path class="cls-9" d="M37.58,24.14c-.63,1-1.37,2.12-2,3.12H52.9a.51.51,0,1,1,0,1h-18l-.76,1.24s0,.3-.07.71H54.56l.4-.8.2-.79a14.91,14.91,0,0,0,1-4.5Z"/><path class="cls-10" d="M53.54,31.83H33.93a.61.61,0,0,1-.24,0,1.85,1.85,0,0,1-.56.73c-1,.67-1.47.35-1.36.89a5.77,5.77,0,0,0,.3,1H44.73a.52.52,0,0,1,0,1H32.54a13.62,13.62,0,0,1,1,2H49A33.22,33.22,0,0,0,53.54,31.83Z"/><path class="cls-11" d="M33.86,39.1a9.29,9.29,0,0,1-.09,1.24l.86,1.33h5a.51.51,0,1,1,0,1H35.28c.47.75,1,1.58,1.4,2.32h2.57c.61-.36,1.22-.72,1.82-1.11a47.27,47.27,0,0,0,6.26-4.8Z"/></g><path class="cls-12" d="M68.05,15.65c0-.39-.18-2-1.83-2s-2.56,1.88-2.56,4.22c0,.68,0,3.89,2.37,3.89a2,2,0,0,0,2-2.15h2.56a3.89,3.89,0,0,1-1,2.67,4.48,4.48,0,0,1-3.31,1.27c-3.91,0-5.18-2.89-5.18-5.69,0-3.6,2-6,5.19-6,2.48,0,4.22,1.5,4.22,3.76Z"/><path class="cls-12" d="M72.07,17.32c0-.38-.06-1.53-.11-2h2.18l0,1.52a2.38,2.38,0,0,1,2.69-1.54v2.09c-2.35-.22-2.49,1-2.49,2v3.9H72.07Z"/><path class="cls-12" d="M79.88,15.37l1.74,5.49,1.77-5.49H85.7l-3,7.78-1,3.15H79.41l1-3-3-8Z"/><path class="cls-12" d="M89.07,15.37l.06,1.13a2.65,2.65,0,0,1,2.42-1.29c2,0,3.29,1.54,3.29,4,0,2.24-1.16,4.23-3.45,4.23a2.52,2.52,0,0,1-2.21-1v4H86.81v-11Zm3.42,3.89c0-.94-.24-2.56-1.6-2.56-.75,0-1.82.57-1.82,2.7,0,.47,0,2.48,1.72,2.48C91.89,21.88,92.49,20.83,92.49,19.26Z"/><path class="cls-12" d="M101.13,23.18a6.9,6.9,0,0,1-1.8.25C97,23.43,97,22,97,21.3V17H95.47V15.42H97V13.87L99.3,13v2.4h1.88V17H99.3v3.57c0,.72,0,1.18,1,1.18a6,6,0,0,0,.78-.05Z"/><path class="cls-12" d="M106,15.18a3.84,3.84,0,0,1,4.11,4.16,3.92,3.92,0,0,1-4.16,4.23,3.82,3.82,0,0,1-4-4.17C101.9,17.49,102.87,15.18,106,15.18ZM106,22c1,0,1.71-.61,1.71-2.71,0-1.06-.2-2.51-1.74-2.51s-1.71,2-1.71,2.68C104.28,21.19,104.88,22,106,22Z"/><path class="cls-13" d="M68.05,33.78c0-.39-.18-2-1.83-2S63.66,33.67,63.66,36c0,.67,0,3.89,2.37,3.89a2,2,0,0,0,2-2.15h2.56a3.91,3.91,0,0,1-1,2.67,4.48,4.48,0,0,1-3.31,1.27c-3.91,0-5.18-2.89-5.18-5.7,0-3.59,2-6,5.19-6,2.48,0,4.22,1.5,4.22,3.76Z"/><path class="cls-13" d="M72.13,30.1h2.31v4.48a2.55,2.55,0,0,1,2.29-1.19A2.83,2.83,0,0,1,79,34.46a3.7,3.7,0,0,1,.52,2.15v4.81H77.24V36.68c0-.45,0-1.72-1.3-1.72a1.44,1.44,0,0,0-1.49,1.61l0,4.85H72.13Z"/><path class="cls-13" d="M86.4,41.42a6.25,6.25,0,0,1-.08-1.08A3.05,3.05,0,0,1,82,41a2.45,2.45,0,0,1-.69-1.74A2.63,2.63,0,0,1,83,36.78a8.26,8.26,0,0,1,3.14-.44A3.18,3.18,0,0,0,86,35.29a1.09,1.09,0,0,0-1-.66,1.06,1.06,0,0,0-.88.44,1.19,1.19,0,0,0-.17.7H81.64a2.19,2.19,0,0,1,.89-1.86,4.13,4.13,0,0,1,2.4-.65,3.79,3.79,0,0,1,2.82,1,3.11,3.11,0,0,1,.55,1.95l0,3.18a9,9,0,0,0,.19,2ZM83.55,39a1.09,1.09,0,0,0,1.13,1.13,1.32,1.32,0,0,0,1-.45,3,3,0,0,0,.44-2C84.62,37.56,83.55,38,83.55,39Z"/><path class="cls-13" d="M90.42,35a14.87,14.87,0,0,0-.08-1.49h2.24l.08,1a2.71,2.71,0,0,1,2.45-1.19,2.41,2.41,0,0,1,2.49,1.49,2.64,2.64,0,0,1,2.54-1.48,2.61,2.61,0,0,1,2.42,1.27A4.6,4.6,0,0,1,103,37v4.47h-2.34V36.76c0-.85-.12-1.79-1.33-1.79-1.4,0-1.43,1.31-1.43,2.48v4H95.52V36.71c0-.61,0-1.74-1.31-1.74-1.46,0-1.46,1.26-1.46,1.79v4.66H90.42Z"/><path class="cls-13" d="M107.36,33.5l.06,1.13a2.65,2.65,0,0,1,2.41-1.29c2.06,0,3.3,1.54,3.3,3.95,0,2.25-1.16,4.24-3.45,4.24a2.52,2.52,0,0,1-2.21-1v4H105.1v-11Zm3.42,3.89c0-.94-.24-2.56-1.6-2.56-.76,0-1.82.57-1.82,2.7,0,.47,0,2.48,1.72,2.48C110.18,40,110.78,39,110.78,37.39Z"/><path class="cls-13" d="M116.37,39.13a1.15,1.15,0,0,0,1.32,1.08c.83,0,1.22-.47,1.22-.94s-.18-.64-1.09-.89L116.37,38a2.29,2.29,0,0,1-2-2.2c0-1.54,1.41-2.48,3.46-2.48,1.63,0,3,.75,3,2.34h-2.11a1,1,0,0,0-1.13-.94c-.63,0-1.1.29-1.1.78s.39.64,1.08.83l1.43.39c1.44.4,2.12,1.13,2.12,2.22,0,1.36-1.18,2.73-3.64,2.73a3.56,3.56,0,0,1-2.72-1,2.31,2.31,0,0,1-.58-1.55Z"/></g></g></svg>