<svg xmlns="http://www.w3.org/2000/svg" viewBox="0 0 1169.89 503.49"><defs><style>.cls-1{fill:#0536ad;}.cls-2{opacity:0.2;}.cls-3{fill:#f6bb42;}.cls-11,.cls-4{fill:#ffce54;}.cls-15,.cls-5{fill:#002fc7;}.cls-6{opacity:0.3;}.cls-7{fill:#fff;}.cls-8{fill:#82af48;}.cls-9{fill:#a0d468;}.cls-10{fill:#190143;}.cls-11{stroke:#190143;stroke-linecap:round;stroke-linejoin:round;stroke-width:8px;}.cls-12,.cls-13,.cls-14,.cls-15{isolation:isolate;}.cls-13,.cls-14,.cls-15{font-size:176.55px;font-family:UniversLTStd-Bold, Univers LT Std;font-weight:700;}.cls-14{letter-spacing:-0.02em;}</style></defs><title>logo-fulll</title><g id="Layer_2" data-name="Layer 2"><g id="Layer_1-2" data-name="Layer 1"><g id="Layer_2-2" data-name="Layer 2"><g id="Capa_1" data-name="Capa 1"><path class="cls-1" d="M3.93,184.87c.62-15.73,10.55-23.6,23.61-23.6H373.68A39.45,39.45,0,0,1,413,200.6v55.07H347.09c-4.33,0-10.07,2.75-12.9,6.06l-29.27,35.09a9.92,9.92,0,0,0,0,12.11L334.19,344c2.83,3.3,8.57,6.05,12.9,6.05H413V413a39.46,39.46,0,0,1-39.33,39.33H27.53a23.57,23.57,0,0,1-23.6-23.54V184.87Z"/><g class="cls-2"><path d="M373.68,161.27H357.94a39.45,39.45,0,0,1,39.34,39.33v55.07H413V200.6A39.45,39.45,0,0,0,373.68,161.27Z"/></g><path class="cls-3" d="M365.81,342.21a7.87,7.87,0,1,1-7.87,7.87h0A7.89,7.89,0,0,1,365.81,342.21Z"/><path class="cls-4" d="M342.21,350.08a23.57,23.57,0,1,1,0,.06Zm15.73,0a7.87,7.87,0,1,0,7.87-7.87h0A7.89,7.89,0,0,0,357.94,350.08Z"/><path class="cls-5" d="M413,397.28H347.09c-4.33,0-10.07-2.75-12.9-6.06l-29.27-35.09a9.92,9.92,0,0,1,0-12.11l29.27-35.09c2.82-3.3,8.57-6.05,12.9-6.05h81.65a7.89,7.89,0,0,1,7.87,7.86v78.67a7.89,7.89,0,0,1-7.87,7.87Zm-47.2-70.81a23.61,23.61,0,1,0,23.6,23.62h0a23.58,23.58,0,0,0-23.55-23.61h-.05Z"/><g class="cls-2"><path d="M428.74,302.87H413a7.9,7.9,0,0,1,7.87,7.87v78.67a7.9,7.9,0,0,1-7.87,7.87h15.73a7.9,7.9,0,0,0,7.87-7.87V310.74A7.9,7.9,0,0,0,428.74,302.87Z"/></g><g class="cls-6"><path class="cls-7" d="M320.65,356.13a9.92,9.92,0,0,1,0-12.11l29.27-35.09c2.83-3.3,8.58-6.06,12.9-6.06H347.09c-4.33,0-10.07,2.76-12.9,6.06L304.92,344a9.92,9.92,0,0,0,0,12.11l29.27,35.09c2.82,3.31,8.57,6.06,12.9,6.06h15.73c-4.32,0-10.07-2.75-12.9-6.06Z"/></g><path class="cls-5" d="M3.93,184.87a23.58,23.58,0,0,0,23.56,23.6H373.68A39.45,39.45,0,0,1,413,247.81v55.06H347.09c-4.33,0-10.07,2.75-12.9,6.06L304.92,344a9.92,9.92,0,0,0,0,12.11l29.27,35.09a19.29,19.29,0,0,0,12.9,6H413v62.94a39.46,39.46,0,0,1-39.33,39.33H27.53a23.57,23.57,0,0,1-23.6-23.54V184.87Z"/><g class="cls-2"><path d="M373.68,208.47H357.94a39.45,39.45,0,0,1,39.34,39.34v55.06H413V247.81A39.45,39.45,0,0,0,373.68,208.47Z"/><path d="M397.28,413v47.2a39.45,39.45,0,0,1-39.34,39.34h15.74A39.45,39.45,0,0,0,413,460.21V397.28H397.28Z"/></g><g class="cls-6"><path class="cls-7" d="M19.67,476V207A23.49,23.49,0,0,1,3.93,184.87V475.94a23.58,23.58,0,0,0,23.55,23.61H43.27A23.57,23.57,0,0,1,19.67,476Z"/></g><polygon class="cls-8" points="341.11 184.87 374.8 59.16 272.61 31.71 272.61 184.87 341.11 184.87"/><polygon class="cls-9" points="321.77 184.87 347.34 89.76 337.31 66.24 267.3 47.37 267.3 184.87 321.77 184.87"/><rect class="cls-8" x="59" y="3.93" width="212.41" height="180.94"/><polygon class="cls-9" points="255.67 184.87 255.67 43.27 239.94 19.67 90.47 19.67 74.74 43.27 74.74 184.87 255.67 184.87"/><g class="cls-2"><polygon points="341.11 184.87 59 184.87 59 169.14 346.46 169.14 341.11 184.87"/></g><g class="cls-2"><path d="M19.67,184.87A23.54,23.54,0,0,1,35.4,162.71a23.6,23.6,0,1,0,0,44.32A23.54,23.54,0,0,1,19.67,184.87Z"/></g><path class="cls-10" d="M428.74,401.21H347.12a22.82,22.82,0,0,1-15.93-7.46l-29.25-35.11a13.7,13.7,0,0,1,0-17.13l29.25-35.11a22.82,22.82,0,0,1,15.93-7.46h81.62a11.82,11.82,0,0,1,11.8,11.8v78.67A11.82,11.82,0,0,1,428.74,401.21Zm-81.62-94.4a15.38,15.38,0,0,0-9.89,4.63L308,346.55a5.87,5.87,0,0,0,0,7.05l29.25,35.11a15.38,15.38,0,0,0,9.89,4.63h81.62a4,4,0,0,0,3.94-3.93V310.74a4,4,0,0,0-3.94-3.93Z"/><path class="cls-10" d="M365.81,377.61a27.54,27.54,0,1,1,27.53-27.55v0A27.56,27.56,0,0,1,365.81,377.61Zm0-47.2a19.67,19.67,0,1,0,19.67,19.67,19.67,19.67,0,0,0-19.67-19.67Z"/><path class="cls-10" d="M365.81,361.88a11.8,11.8,0,1,1,11.8-11.8h0A11.82,11.82,0,0,1,365.81,361.88Zm0-15.74a3.94,3.94,0,1,0,3.93,3.95h0A4,4,0,0,0,365.81,346.14Z"/><path class="cls-10" d="M122.17,149.47a4,4,0,0,1-4-3.93A3.91,3.91,0,0,1,122,141.6h.11a3.94,3.94,0,0,1,0,7.87Z"/><path class="cls-10" d="M122.17,133.74a4,4,0,0,1-4-3.94,3.91,3.91,0,0,1,3.87-3.93h.1a3.94,3.94,0,0,1,0,7.87Z"/><path class="cls-10" d="M122.17,118a4,4,0,0,1-4-3.93,3.91,3.91,0,0,1,3.87-3.93h.1a3.93,3.93,0,0,1,0,7.86Z"/><path class="cls-10" d="M122.17,102.27a4,4,0,0,1-4-3.93A3.91,3.91,0,0,1,122,94.4h.11a3.94,3.94,0,0,1,0,7.87Z"/><path class="cls-10" d="M122.17,86.54a4,4,0,0,1-4-3.94A3.91,3.91,0,0,1,122,78.67h.1a3.94,3.94,0,0,1,0,7.87Z"/><path class="cls-10" d="M122.17,70.8a4,4,0,0,1-4-3.93A3.91,3.91,0,0,1,122,62.93h.11a3.94,3.94,0,0,1,0,7.87Z"/><path class="cls-10" d="M255.67,173.07a3.93,3.93,0,0,1-3.93-3.93V38.94A19.7,19.7,0,0,1,236.41,23.6H94A19.72,19.72,0,0,1,78.67,38.94v130.2a3.94,3.94,0,0,1-7.87,0V35.4a3.93,3.93,0,0,1,3.93-3.93h0a11.82,11.82,0,0,0,11.8-11.8,3.93,3.93,0,0,1,3.92-3.94H239.94a3.93,3.93,0,0,1,3.93,3.93h0a11.82,11.82,0,0,0,11.8,11.8,3.93,3.93,0,0,1,3.94,3.92h0V169.14a3.93,3.93,0,0,1-3.93,3.93Z"/><path class="cls-10" d="M271.41,173.07a3.93,3.93,0,0,1-3.94-3.92h0V7.87H62.94V169.14a3.94,3.94,0,0,1-7.87,0V3.93A3.93,3.93,0,0,1,59,0H271.41a3.93,3.93,0,0,1,3.93,3.93V169.14a3.93,3.93,0,0,1-3.93,3.93Z"/><path class="cls-10" d="M208.47,157.34a3.93,3.93,0,0,1-3.93-3.93h0V59a3.94,3.94,0,0,1,7.87,0v94.4a3.93,3.93,0,0,1-3.92,3.94Z"/><path class="cls-10" d="M184.87,149.47H145.54a3.94,3.94,0,0,1-.4-7.87h39.73a3.94,3.94,0,0,1,.4,7.87Z"/><path class="cls-10" d="M173.07,125.87H157.34a15.74,15.74,0,0,1,0-31.47h15.73a15.74,15.74,0,0,1,0,31.47Zm-15.73-23.6a7.87,7.87,0,1,0-.56,15.73,5.23,5.23,0,0,0,.56,0h15.73a7.87,7.87,0,1,0,.56-15.73H157.34Z"/><path class="cls-10" d="M173.07,86.54H157.34a15.74,15.74,0,0,1,0-31.47h15.73a15.74,15.74,0,0,1,0,31.47ZM157.34,62.93a7.87,7.87,0,0,0,0,15.74h15.73a7.87,7.87,0,0,0,0-15.74H157.34Z"/><path class="cls-10" d="M153.4,157.34a3.94,3.94,0,0,1-2.78-1.16l-7.86-7.86a3.93,3.93,0,0,1,5.56-5.56l7.86,7.86a3.94,3.94,0,0,1-2.78,6.72Z"/><path class="cls-10" d="M184.87,157.34a3.93,3.93,0,0,1-3.93-3.93h0V137.67a3.93,3.93,0,0,1,7.86,0V153.4a3.93,3.93,0,0,1-3.92,3.94Z"/><path class="cls-10" d="M330.18,173.07a4.81,4.81,0,0,1-1-.13,3.92,3.92,0,0,1-2.78-4.81h0L347.9,87.9A19.66,19.66,0,0,1,337,69.1l-48.52-13a3.94,3.94,0,0,1-2.79-4.81v0a4,4,0,0,1,4.81-2.78l51.95,13.92a4,4,0,0,1,2.39,1.84,3.89,3.89,0,0,1,.39,3,11.77,11.77,0,0,0,8.3,14.43h0a4,4,0,0,1,2.4,1.83,3.89,3.89,0,0,1,.38,3L334,170.16A3.92,3.92,0,0,1,330.18,173.07Z"/><path class="cls-10" d="M346.48,173.07a4.22,4.22,0,0,1-1-.13,3.92,3.92,0,0,1-2.79-4.79v0L371.12,62,288.51,39.82A3.92,3.92,0,0,1,285.73,35h0a4,4,0,0,1,4.81-2.78L377,55.37a3.92,3.92,0,0,1,2.78,4.81h0l-29.46,110A3.9,3.9,0,0,1,346.48,173.07Z"/><path class="cls-10" d="M413,251.74a3.93,3.93,0,0,1-3.93-3.93,35.44,35.44,0,0,0-35.4-35.4,3.94,3.94,0,0,1-.4-7.87h.4a43.32,43.32,0,0,1,43.26,43.27,3.93,3.93,0,0,1-3.93,3.93Z"/><path class="cls-10" d="M373.68,503.48H27.53a3.94,3.94,0,0,1,0-7.87H373.68a35.44,35.44,0,0,0,35.4-35.4,3.93,3.93,0,0,1,7.86,0A43.32,43.32,0,0,1,373.68,503.48Z"/><path class="cls-10" d="M413,217a3.93,3.93,0,0,1-3.93-3.93V200.6a35.44,35.44,0,0,0-35.4-35.4,3.93,3.93,0,0,1,0-7.86,43.31,43.31,0,0,1,43.26,43.26v12.47A3.93,3.93,0,0,1,413,217Z"/><path class="cls-10" d="M27.53,212.41A27.57,27.57,0,0,1,0,184.87a3.94,3.94,0,0,1,7.87,0,19.7,19.7,0,0,0,19.66,19.67,3.94,3.94,0,0,1,.4,7.87Z"/><path class="cls-10" d="M27.53,503.48A27.56,27.56,0,0,1,0,475.94a3.94,3.94,0,0,1,7.87,0,19.7,19.7,0,0,0,19.66,19.67,3.94,3.94,0,0,1,.4,7.87Z"/><path class="cls-10" d="M3.93,188.8A3.93,3.93,0,0,1,0,184.87H0a27.56,27.56,0,0,1,27.54-27.53,3.93,3.93,0,1,1,0,7.86A19.69,19.69,0,0,0,7.87,184.87a3.93,3.93,0,0,1-3.93,3.93Z"/><path class="cls-10" d="M373.68,212.41H27.53a3.94,3.94,0,0,1,0-7.87H373.68a3.94,3.94,0,0,1,0,7.87Z"/><path class="cls-10" d="M365.81,188.8H35.4a3.93,3.93,0,1,1,0-7.86H365.81a3.93,3.93,0,0,1,0,7.86Z"/><path class="cls-10" d="M3.93,479.88A3.93,3.93,0,0,1,0,476V184.87a3.94,3.94,0,0,1,7.87,0V475.94A3.93,3.93,0,0,1,4,479.88Z"/><path class="cls-10" d="M373.68,165.2h-7.87a3.93,3.93,0,0,1,0-7.86h7.87a3.93,3.93,0,1,1,0,7.86Z"/><path class="cls-10" d="M43.27,165.2H27.53a3.93,3.93,0,0,1,0-7.86H43.27a3.93,3.93,0,1,1,0,7.86Z"/><path class="cls-10" d="M43.27,236H35.4a3.94,3.94,0,0,1,0-7.87h7.87a3.94,3.94,0,0,1,0,7.87Z"/><path class="cls-10" d="M350.44,236H335.09a3.94,3.94,0,0,1,0-7.87h15.35a3.94,3.94,0,0,1,.4,7.87Zm-30.71,0H304.37a3.94,3.94,0,0,1,0-7.87h15.36a3.94,3.94,0,0,1,0,7.87ZM289,236H273.65a3.94,3.94,0,0,1,0-7.87H289a3.94,3.94,0,0,1,0,7.87Zm-30.73,0H242.94a3.94,3.94,0,0,1-.4-7.87h15.75a3.94,3.94,0,0,1,.4,7.87h-.42Zm-30.72,0H212.22a3.94,3.94,0,0,1-.4-7.87h15.75a3.94,3.94,0,0,1,0,7.87Zm-30.71,0H181.5a3.94,3.94,0,0,1,0-7.87h15.36a3.94,3.94,0,0,1,0,7.87Zm-30.72,0H150.78a3.94,3.94,0,0,1,0-7.87h15.36a3.94,3.94,0,0,1,0,7.87Zm-30.72,0H120.06a3.94,3.94,0,0,1,0-7.87h15.36a3.94,3.94,0,0,1,0,7.87Zm-30.72,0H89.34a3.94,3.94,0,0,1,0-7.87H104.7a3.94,3.94,0,0,1,0,7.87ZM74,236H58.63a3.94,3.94,0,0,1-.4-7.87H74a3.94,3.94,0,0,1,.4,7.87Z"/><path class="cls-10" d="M373.68,236h-7.87a3.94,3.94,0,0,1,0-7.87h7.87a3.94,3.94,0,0,1,0,7.87Z"/><path class="cls-10" d="M43.27,479.89H35.4a3.94,3.94,0,0,1,0-7.87h7.87a3.94,3.94,0,0,1,0,7.87Z"/><path class="cls-10" d="M350.44,479.89H335.09a3.94,3.94,0,0,1,0-7.87h15.35a3.94,3.94,0,0,1,.4,7.87Zm-30.71,0H304.37a3.94,3.94,0,0,1,0-7.87h15.36a3.94,3.94,0,0,1,0,7.87Zm-30.71,0H273.65a3.94,3.94,0,0,1,0-7.87H289a3.94,3.94,0,0,1,0,7.87Zm-30.73,0H242.94a3.94,3.94,0,0,1-.4-7.87h15.75a3.94,3.94,0,0,1,.4,7.87Zm-30.72,0H212.22a3.94,3.94,0,0,1-.4-7.87h15.75a3.94,3.94,0,0,1,0,7.87Zm-30.71,0H181.5a3.94,3.94,0,0,1,0-7.87h15.36a3.94,3.94,0,0,1,0,7.87Zm-30.72,0H150.78a3.94,3.94,0,0,1,0-7.87h15.36a3.94,3.94,0,0,1,0,7.87Zm-30.72,0H120.06a3.94,3.94,0,0,1,0-7.87h15.36a3.94,3.94,0,0,1,0,7.87Zm-30.72,0H89.34a3.94,3.94,0,0,1,0-7.87H104.7a3.94,3.94,0,0,1,0,7.87Zm-30.72,0H58.63a3.94,3.94,0,0,1-.4-7.87H74a3.94,3.94,0,0,1,.4,7.87H74Z"/><path class="cls-10" d="M373.68,479.89h-7.87a3.94,3.94,0,0,1,0-7.87h7.87a3.94,3.94,0,0,1,0,7.87Z"/><path class="cls-10" d="M413,291.07a3.93,3.93,0,0,1-3.93-3.93V247.81a3.93,3.93,0,1,1,7.86,0v39.35A3.93,3.93,0,0,1,413,291.07Z"/><path class="cls-10" d="M413,464.14a3.93,3.93,0,0,1-3.93-3.91V413a3.93,3.93,0,0,1,7.86,0v47.2a3.93,3.93,0,0,1-3.9,3.94Z"/><path class="cls-11" d="M180.94,388.66a9.7,9.7,0,0,1,4.48,1.1l37.37,19.65a1.74,1.74,0,0,0,2.54-1.84l-8-46.61h0l33.86-33a1.74,1.74,0,0,0,.05-2.47,1.72,1.72,0,0,0-1.05-.53l-46.79-6.8-20.93-42.41a1.76,1.76,0,0,0-2.37-.77,1.74,1.74,0,0,0-.77.77L158.4,318.16,111.65,325a1.75,1.75,0,0,0-1,3l33.87,33-8,46.61a1.75,1.75,0,0,0,1.43,2,1.78,1.78,0,0,0,1.11-.18l37.38-19.65A9.72,9.72,0,0,1,180.94,388.66Z"/><g class="cls-6"><path class="cls-7" d="M156.75,295a3.93,3.93,0,0,1-3.93-3.93h0V273.37a3.94,3.94,0,0,1,7.87,0v17.72A3.92,3.92,0,0,1,156.75,295Z"/><path class="cls-7" d="M205.12,295a3.93,3.93,0,0,1-3.94-3.94h0V273.37a3.94,3.94,0,0,1,7.88,0v17.72A3.92,3.92,0,0,1,205.12,295Z"/></g><g class="cls-6"><path class="cls-7" d="M156.75,437.59a3.93,3.93,0,0,1-3.93-3.93V415.94a3.94,3.94,0,0,1,7.87-.4,2.67,2.67,0,0,1,0,.4v17.72a3.93,3.93,0,0,1-3.93,3.93Z"/><path class="cls-7" d="M205.12,437.59a4,4,0,0,1-3.94-3.93V415.94a3.94,3.94,0,0,1,7.88,0h0v17.72a3.93,3.93,0,0,1-3.93,3.93Z"/></g><g class="cls-12"><text class="cls-13" transform="translate(483.28 234.15)">Cryp</text><text class="cls-14" transform="translate(875.76 234.15)">t</text><text class="cls-13" transform="translate(940.91 234.15)">o</text><text class="cls-15" transform="translate(483.28 423.02)">Champs</text></g></g></g></g></g></svg>