<svg xmlns="http://www.w3.org/2000/svg" viewBox="0 0 409.6 294.4"><defs><style>.cls-1{fill:#3c4a6d;}.cls-2{fill:#ffce54;}.cls-3{fill:#b8bac0;}.cls-4{fill:#8a8895;}.cls-5{fill:#ed5565;}.cls-6{fill:#ff9500;}</style></defs><title>marketplace</title><g id="Layer_2" data-name="Layer 2"><g id="Layer_1-2" data-name="Layer 1"><path class="cls-1" d="M377.6,0H32A32,32,0,0,0,0,32V262.4a32,32,0,0,0,32,32H377.6a32,32,0,0,0,32-32V32a32,32,0,0,0-32-32Z"/><path class="cls-2" d="M140.8,128H64a12.8,12.8,0,0,1-12.8-12.8V64A12.8,12.8,0,0,1,64,51.2h76.8A12.8,12.8,0,0,1,153.6,64v51.2A12.8,12.8,0,0,1,140.8,128Z"/><path class="cls-3" d="M96,211.2H64a12.8,12.8,0,0,1-12.8-12.8V192A12.8,12.8,0,0,1,64,179.2H96A12.8,12.8,0,0,1,108.8,192v6.4A12.8,12.8,0,0,1,96,211.2Z"/><path class="cls-3" d="M179.2,211.2h-32a12.8,12.8,0,0,1-12.8-12.8V192a12.8,12.8,0,0,1,12.8-12.8h32A12.8,12.8,0,0,1,192,192v6.4a12.8,12.8,0,0,1-12.8,12.8Z"/><path class="cls-3" d="M262.4,211.2h-32a12.8,12.8,0,0,1-12.8-12.8V192a12.8,12.8,0,0,1,12.8-12.8h32A12.8,12.8,0,0,1,275.2,192v6.4a12.8,12.8,0,0,1-12.8,12.8Z"/><path class="cls-3" d="M345.6,211.2h-32a12.8,12.8,0,0,1-12.8-12.8V192a12.8,12.8,0,0,1,12.8-12.8h32A12.8,12.8,0,0,1,358.4,192v6.4a12.8,12.8,0,0,1-12.8,12.8Z"/><path class="cls-4" d="M185.6,249.6H57.6a6.4,6.4,0,0,1,0-12.8h128a6.4,6.4,0,1,1,0,12.8Z"/><path class="cls-4" d="M268.8,249.6H211.2a6.4,6.4,0,1,1,0-12.8h57.6a6.4,6.4,0,0,1,0,12.8Z"/><path class="cls-5" d="M294.4,115.2a38.4,38.4,0,1,1,0-51.2"/><path class="cls-6" d="M153.6,96h-64V83.2h64V70.4h-64V51.2H76.8V128H89.6V108.8h64Z"/><path class="cls-2" d="M358.4,89.6A38.4,38.4,0,1,1,320,51.2a38.4,38.4,0,0,1,38.4,38.4Z"/></g></g></svg>