<svg xmlns="http://www.w3.org/2000/svg" viewBox="0 0 60.63 54"><defs><style>.cls-1{fill:#ed5565;}.cls-2{fill:#3c4a6d;}.cls-3{fill:#ffce54;}</style></defs><title>volume</title><g id="Layer_2" data-name="Layer 2"><g id="Layer_1-2" data-name="Layer 1"><polygon class="cls-1" points="30.38 54 60.63 35.3 30.38 21.78 0 35.3 30.38 54"/><polygon class="cls-2" points="49.8 36.95 30.36 3.27 10.91 36.95 9.5 36.13 30.36 0 51.22 36.13 49.8 36.95"/><path class="cls-2" d="M30.36,49,9.48,36.14l20.88-9.29,20.78,9.29ZM13,36.38,30.36,47.07l17.3-10.69-17.3-7.74Z"/><rect class="cls-2" x="29.5" y="2.5" width="1.63" height="0.98"/><path class="cls-2" d="M31.13,45.16H29.5V43.27h1.63Zm0-3.79H29.5V39.48h1.63Zm0-3.79H29.5V35.69h1.63Zm0-3.79H29.5V31.9h1.63Zm0-3.78H29.5v-1.9h1.63Zm0-3.79H29.5v-1.9h1.63Zm0-3.79H29.5v-1.9h1.63Zm0-3.79H29.5V16.75h1.63Zm0-3.79H29.5V13h1.63Zm0-3.79H29.5V9.17h1.63Zm0-3.79H29.5V5.38h1.63Z"/><rect class="cls-2" x="29.5" y="47.05" width="1.63" height="0.98"/><rect class="cls-3" x="29.5" y="43.27" width="1.63" height="1.89"/><rect class="cls-3" x="29.5" y="39.48" width="1.63" height="1.89"/><rect class="cls-3" x="29.5" y="35.69" width="1.63" height="1.9"/><rect class="cls-3" x="29.5" y="31.9" width="1.63" height="1.89"/><rect class="cls-3" x="29.5" y="28.11" width="1.63" height="1.89"/><rect class="cls-3" x="29.5" y="24.32" width="1.63" height="1.89"/><rect class="cls-3" x="29.5" y="47.05" width="1.63" height="0.98"/></g></g></svg>